<?xml version="1.0" standalone="no"?>
<!DOCTYPE svg PUBLIC "-//W3C//DTD SVG 20010904//EN"
 "http://www.w3.org/TR/2001/REC-SVG-20010904/DTD/svg10.dtd">
<svg version="1.0" xmlns="http://www.w3.org/2000/svg"
 width="700.000000pt" height="700.000000pt" viewBox="0 0 700.000000 700.000000"
 preserveAspectRatio="xMidYMid meet">
<metadata>
Created by potrace 1.14, written by Peter Selinger 2001-2017
</metadata>
<g transform="translate(0.000000,700.000000) scale(0.100000,-0.100000)"
fill="#000000" stroke="none">
<path d="M3107 6865 c-1 -1 -49 -5 -107 -9 -58 -3 -116 -8 -130 -11 -14 -2
-41 -7 -60 -9 -307 -42 -651 -164 -924 -328 -92 -56 -224 -144 -236 -158 -3
-3 -15 -13 -28 -22 -21 -15 -120 -101 -191 -167 -54 -51 -180 -192 -224 -251
-22 -30 -43 -57 -47 -60 -24 -20 -144 -223 -210 -355 -84 -171 -134 -305 -176
-480 -31 -130 -30 -126 -39 -200 -4 -33 -9 -69 -11 -80 -2 -11 -6 -74 -9 -140
-9 -206 -15 -299 -20 -325 -3 -14 -10 -52 -16 -85 -25 -143 -97 -324 -177
-449 -58 -91 -101 -138 -269 -298 -49 -46 -64 -68 -80 -118 -38 -117 -7 -240
82 -318 24 -20 132 -82 244 -137 l201 -100 1 -50 c2 -154 -4 -204 -38 -305
-41 -122 -37 -252 12 -358 14 -30 25 -60 25 -66 0 -31 32 -116 63 -167 31 -52
34 -63 34 -140 0 -115 11 -190 38 -271 76 -225 268 -400 501 -457 67 -17 104
-19 244 -16 171 5 240 9 294 19 17 3 54 8 82 11 28 3 61 8 75 10 13 3 60 12
104 20 44 9 105 22 135 30 75 20 74 20 95 -27 21 -48 83 -182 156 -336 27 -57
49 -105 49 -107 0 -2 21 -48 46 -102 129 -273 120 -257 166 -287 61 -40 150
-37 210 5 39 29 71 94 71 149 0 45 -4 54 -148 365 -175 378 -215 469 -208 476
4 4 44 23 88 42 190 81 418 209 459 258 83 98 34 257 -88 290 -61 16 -104 6
-192 -45 -137 -79 -354 -182 -489 -231 -210 -76 -403 -121 -685 -160 -25 -4
-119 -8 -210 -10 -163 -4 -166 -3 -225 25 -63 29 -105 64 -143 117 -44 62 -53
109 -56 278 -4 172 -12 207 -62 251 -27 24 -44 64 -44 103 0 16 -14 56 -32 90
-35 69 -36 51 13 206 19 61 22 97 26 285 4 238 1 255 -53 319 -50 58 -105 93
-281 181 l-154 76 59 59 c129 132 254 323 326 497 33 80 80 231 91 293 3 17
12 69 20 116 8 47 17 148 20 225 11 291 28 421 79 590 54 178 159 414 184 414
25 0 193 -70 282 -117 334 -178 598 -441 779 -776 22 -41 67 -143 101 -226
173 -435 362 -694 738 -1012 149 -125 197 -159 231 -160 117 -7 139 10 275
210 64 93 135 186 158 205 144 124 360 79 449 -93 59 -115 23 -384 -79 -586
-58 -116 -105 -179 -210 -281 -112 -109 -185 -135 -327 -113 -96 14 -141 6
-187 -35 -117 -104 -61 -284 102 -322 19 -4 42 -9 50 -11 82 -20 253 -2 348
35 38 15 54 17 58 9 4 -13 82 -292 114 -412 10 -38 26 -95 35 -125 9 -30 17
-62 19 -70 4 -16 229 -831 246 -890 5 -19 26 -93 45 -165 59 -216 76 -264 102
-296 94 -111 275 -69 314 73 14 52 18 37 -168 708 -74 267 -141 510 -149 540
-8 30 -21 76 -29 102 l-14 48 72 46 c261 169 542 417 712 629 22 28 42 52 45
55 17 16 80 103 136 187 177 267 321 649 383 1018 33 190 39 285 37 518 -2
135 1 217 7 217 23 0 200 93 276 144 240 164 414 393 507 671 53 158 69 267
67 441 -2 136 -38 327 -82 429 -90 208 -162 317 -301 455 -326 327 -769 453
-1225 350 -166 -38 -404 -157 -520 -261 -111 -100 -105 -98 -175 -54 -150 94
-540 245 -720 279 -14 2 -45 9 -70 15 -79 18 -196 35 -325 47 -66 6 -332 13
-338 9z m351 -379 c23 -3 61 -8 85 -11 23 -3 53 -7 67 -10 14 -2 41 -7 60 -10
19 -3 84 -19 145 -35 219 -58 371 -119 589 -239 57 -31 236 -148 246 -161 3
-3 34 -28 70 -55 36 -28 113 -97 173 -154 574 -555 836 -1319 721 -2106 -16
-110 -71 -342 -110 -468 -94 -298 -275 -578 -555 -856 -136 -135 -411 -353
-426 -338 -3 3 -13 36 -23 74 -11 37 -34 122 -53 189 l-33 121 28 34 c259 310
376 811 258 1109 -51 130 -160 260 -274 329 -216 129 -483 124 -696 -14 -82
-52 -146 -117 -213 -216 l-53 -77 -69 59 c-245 207 -411 445 -549 786 -84 208
-146 330 -239 469 -216 324 -514 586 -866 758 -58 29 -126 60 -150 69 l-44 18
34 36 c114 121 180 182 303 280 113 90 349 220 524 288 94 36 289 90 362 100
25 4 63 10 85 15 22 5 83 12 135 16 52 3 96 8 98 9 6 5 325 -3 370 -9z m2257
0 c28 -4 94 -22 148 -40 444 -151 708 -613 613 -1074 -55 -264 -234 -505 -469
-631 -31 -17 -61 -31 -66 -31 -5 0 -12 17 -16 38 -10 55 -82 274 -122 372 -38
92 -124 265 -172 345 -17 28 -38 63 -47 79 -30 54 -158 228 -235 320 -78 93
-262 276 -356 355 l-53 43 48 38 c199 156 460 223 727 186z"/>
</g>
</svg>
