<svg width="64" height="64" viewBox="0 0 64 64" fill="none" xmlns="http://www.w3.org/2000/svg">
<rect width="64" height="64" rx="32" fill="#A96C50"/>
<path opacity="0.4" d="M24.228 15.9733C19.195 17.6575 9.12913 17.4792 10.0604 22.413C10.9917 27.3469 12.5373 31.1117 16.2426 33.7471C19.948 36.3824 25.0205 32.9941 26.8435 28.4169C28.6665 23.8397 31.3216 19.9758 31.0244 17.4594C30.7272 14.9429 29.2609 14.289 24.228 15.9733Z" fill="#724A38"/>
<path opacity="0.4" d="M48.917 11.1979C45.608 9.89008 43.1113 15.2797 39.6833 21.0458C37.7415 24.335 34.056 26.6137 33.3228 30.6955C32.233 36.6796 37.0282 41.9899 32.9067 46.0916C31.1432 47.8551 30.846 51.0254 32.9067 54.711C34.9674 58.4163 41.9422 57.7823 45.2315 51.6397C51.0174 40.801 51.81 34.7972 51.1759 26.1778C50.5022 16.8054 52.3846 12.5651 48.917 11.1979Z" fill="#724A38"/>
</svg>
