<svg width="64" height="64" viewBox="0 0 64 64" fill="none" xmlns="http://www.w3.org/2000/svg">
<rect width="64" height="64" rx="32" fill="#A96C50"/>
<path d="M20.6055 12.6808C20.6055 12.6808 30.1021 17.8789 33.4519 24.9349C33.4519 24.9349 33.356 29.7488 32.625 32.2038C32.625 32.2038 35.7221 28.6497 36.1707 26.8108C36.1707 26.8108 40.4663 31.9046 41.0984 33.8943C41.0984 33.8943 42.0816 36.5783 40.7658 40.6706C40.7824 40.6053 43.1146 37.7875 43.6108 36.8784C43.6108 36.8784 45.0627 42.2194 42.5273 46.1602C42.5273 46.1602 33.7903 51.1385 28.264 44.8476C28.264 44.8476 30.7567 43.906 32.2732 42.159C32.2732 42.159 26.9534 43.2826 25.2316 41.3137C25.2348 41.3284 11.9571 29.0754 20.6055 12.6808Z" fill="#EFC3AE" stroke="#84472B" stroke-width="0.967033" stroke-miterlimit="10" stroke-linecap="round" stroke-linejoin="round"/>
<path d="M49.1893 51.0796C49.1893 51.0796 28.8796 39.6591 23.2553 23.1869" stroke="#84472B" stroke-width="0.967033" stroke-miterlimit="10" stroke-linecap="round" stroke-linejoin="round"/>
</svg>
