<svg width="64" height="64" viewBox="0 0 64 64" fill="none" xmlns="http://www.w3.org/2000/svg">
<g clip-path="url(#clip0_2884_24097)">
<rect width="64" height="64" rx="32" fill="#A96C50"/>
<path d="M29.6273 46.7586C29.14 46.8148 28.3904 46.7774 27.5845 46.3838C27.1722 46.1776 26.7786 45.8778 26.4226 45.4655C26.0852 45.0531 25.8228 44.5846 25.4668 44.3972C25.1294 44.191 24.6234 44.2848 24.0237 44.4347C23.7238 44.4909 23.3865 44.5659 23.0116 44.5471C22.6368 44.5284 22.2807 44.4159 21.9434 44.2285C21.6248 44.0411 21.3249 43.7975 21.1188 43.4976C20.8939 43.179 20.7814 42.8604 20.669 42.7292C20.5565 42.598 20.4816 42.5793 20.2379 42.6355C20.013 42.6917 19.7319 42.7854 19.4883 42.8979C18.495 43.3102 17.5954 43.8162 16.7146 44.0036C15.9462 44.1723 15.2715 44.0973 14.8217 43.9287C14.9904 44.1161 15.159 44.3222 15.2902 44.5659C15.4589 44.8845 15.5713 45.278 15.5526 45.6904C15.5339 46.1027 15.3465 46.5337 15.0841 46.8336C14.8217 47.1147 14.5781 47.3021 14.4281 47.4895C14.2782 47.6582 14.1658 47.8831 14.1095 48.108C13.9783 48.5765 14.0346 49.1575 14.147 49.7385C14.2032 50.0383 14.2969 50.3195 14.3719 50.6193C14.4656 50.9192 14.5593 51.2003 14.6718 51.3502C14.7842 51.4814 14.803 51.4814 15.0466 51.4814C15.2715 51.4627 15.6463 51.369 15.9837 51.3315C16.6771 51.2378 17.3705 51.2003 18.0827 51.219C18.4388 51.2378 18.7949 51.2565 19.1509 51.3127L19.6757 51.3877C19.7694 51.4064 19.8631 51.4252 20.0318 51.4814C20.1817 51.5376 20.3316 51.6313 20.4441 51.7438C20.7065 51.9874 20.7627 52.456 20.7627 52.6246C20.7627 52.8495 20.7814 52.9245 20.8002 52.9995C20.8564 53.1494 21.1 53.393 21.3811 53.7304C21.9621 54.4238 22.262 55.3234 22.187 56.223C22.1308 57.1225 21.7372 57.9472 21.25 58.6218C20.7627 59.2965 20.1817 59.8588 19.6195 60.4023C19.2446 60.7584 18.8698 61.1144 18.495 61.4705C18.57 61.508 18.6824 61.5455 18.8136 61.583C19.1135 61.6579 19.6007 61.6392 20.1442 61.433C20.7065 61.2456 21.3624 60.7583 22.3557 60.7583C22.8242 60.7583 23.274 60.8895 23.6676 60.9083C23.8737 60.927 24.0424 60.9083 24.2111 60.8333C24.3985 60.7771 24.6047 60.6646 24.867 60.5709C25.1107 60.4772 25.4855 60.4023 25.8228 60.5522C26.1602 60.7021 26.3476 60.9458 26.4788 61.0957C26.7412 61.4143 27.041 61.6017 27.3971 61.7329C28.0905 61.9953 28.8214 61.9578 29.4024 61.8454C30.5831 61.583 31.3328 61.2831 31.3703 61.3956C31.4077 61.4705 30.7705 61.9578 29.5149 62.3701C28.8964 62.5575 28.053 62.6887 27.1535 62.4076C26.7224 62.2764 26.2539 61.9953 25.9165 61.6017C25.5792 61.2269 25.5042 61.1707 25.1107 61.3018C24.9233 61.3768 24.6984 61.4893 24.436 61.5642C24.1549 61.6579 23.8737 61.6767 23.6114 61.6579C23.1053 61.6205 22.693 61.4893 22.3182 61.4705C21.6248 61.433 20.9314 61.8079 20.2942 61.9578C19.6382 62.1265 19.0385 62.0702 18.7011 61.8641C18.5325 61.7704 18.42 61.6767 18.3638 61.583C18.0452 61.8828 17.7266 62.1827 17.3705 62.4825C16.5834 63.1572 15.6651 63.7757 14.5593 64.0381C13.9971 64.1693 13.4536 64.1693 12.9851 64.1693C12.4978 64.1693 12.048 64.188 11.6919 64.3005C11.3358 64.4129 11.1671 64.5628 11.0922 64.844C11.0547 64.9939 11.0547 65.2188 10.9985 65.5186C10.9423 65.8185 10.8485 66.1184 10.6799 66.3807C10.3425 66.9055 9.85526 67.2616 9.40547 67.5052C8.93693 67.7488 8.48714 67.9175 8.05609 68.0862C7.23147 68.4048 6.25693 68.7421 6.2007 69.2107C6.12574 69.4918 6.12574 69.9978 6.107 70.4101C6.107 70.8412 6.12574 71.2722 6.16322 71.6845C6.21945 72.2655 6.31315 72.8277 6.4256 73.3712C6.46308 73.4087 6.51931 73.4649 6.59427 73.5024C6.85665 73.6711 7.34392 73.8023 7.90616 73.6711C8.48714 73.5774 9.14309 73.1089 10.1551 73.0714C10.6611 73.0901 11.0922 73.2213 11.3733 73.1276C11.5232 73.0901 11.7106 72.9589 11.973 72.8465C12.2541 72.734 12.554 72.6966 12.8539 72.7153C13.0038 72.5841 13.1537 72.4154 13.2474 72.2093C13.3974 71.9282 13.3224 71.5346 13.2287 70.9536C13.1725 70.6725 13.1725 70.2789 13.3037 69.9416C13.4348 69.5855 13.641 69.2856 13.8659 69.042C14.3157 68.536 14.7655 68.1612 15.0091 67.7676C15.2527 67.3928 15.234 66.943 15.309 66.4744C15.3839 66.0247 15.6088 65.6498 15.8337 65.4999C16.0586 65.3312 16.2273 65.3687 16.246 65.4062C16.2648 65.4624 16.1523 65.5374 16.0586 65.7061C15.9462 65.8747 15.8525 66.1558 15.8712 66.5307C15.8712 66.7181 15.89 66.943 15.8712 67.2241C15.8712 67.4865 15.7962 67.8238 15.6463 68.1049C15.3465 68.6859 14.8592 69.117 14.4656 69.548C14.0533 69.9978 13.8846 70.3726 13.9596 70.8786C13.9783 71.141 14.0158 71.4034 13.9971 71.7033C13.9783 71.9844 13.8846 72.2842 13.7347 72.4904C13.6223 72.6403 13.5098 72.734 13.3974 72.8277C13.5098 72.8652 13.6223 72.9027 13.716 72.9589C13.9783 73.0901 14.2032 73.3338 14.3344 73.5024C14.4844 73.6898 14.5968 73.8023 14.728 73.8585C14.8592 73.9335 15.0466 73.971 15.2527 74.0084C16.0586 74.1584 16.8083 74.1959 17.4455 74.1771C18.7011 74.1584 19.4883 74.0084 19.5258 74.1209C19.5445 74.2146 18.8136 74.5707 17.483 74.7206C16.827 74.7956 16.0211 74.8143 15.159 74.7019C14.9529 74.6644 14.6905 74.6456 14.4281 74.5332C14.147 74.402 13.9221 74.1771 13.7909 74.0084C13.641 73.821 13.5286 73.7273 13.3599 73.6336C13.1912 73.5399 13.0225 73.4837 12.8164 73.465C12.629 73.4462 12.4416 73.4837 12.2729 73.5399C12.1042 73.5961 11.8793 73.7461 11.5795 73.821C10.9423 73.971 10.4925 73.7461 10.1364 73.7461C9.42421 73.7086 8.6933 74.1022 7.99987 74.1771C7.36266 74.2521 6.85665 74.0647 6.55679 73.8023C6.57553 73.9147 6.59427 74.0084 6.63175 74.1209C6.7442 74.5145 6.85665 74.8893 6.98784 75.3016C7.11903 75.7139 7.25022 76.1637 7.26896 76.6697C7.26896 77.1757 7.21273 77.4756 7.32518 77.6443C7.41889 77.8129 7.64378 77.9629 7.99987 78.0378C8.65581 78.2252 9.51792 78.2252 10.2863 78.825C10.305 78.825 10.305 78.825 10.3238 78.825C10.7174 78.825 11.1297 78.8062 11.5982 78.75C12.048 78.6938 12.554 78.6001 13.0975 78.5626C13.641 78.5251 14.2782 78.5064 14.8967 78.7875C15.0466 78.8624 15.1965 78.9374 15.3465 79.0499C15.4964 79.1623 15.6088 79.2935 15.6651 79.3122C15.7213 79.3497 15.74 79.3497 15.8712 79.3497C15.9837 79.3497 16.1523 79.331 16.3023 79.3122C16.902 79.2747 17.5017 79.2185 18.0827 79.181C18.6449 79.1436 19.2259 79.0686 19.8256 79.181C20.1255 79.2373 20.4253 79.3497 20.669 79.5371C20.9126 79.7245 21.0813 79.9307 21.2312 80.1368C21.5123 80.5492 21.7372 80.7366 22.0933 81.0364C22.4681 81.3363 22.5993 81.861 22.5431 82.1984C22.4869 82.5545 22.3557 82.8169 22.2432 83.023C21.9996 83.4166 21.8122 83.604 21.7747 83.5665C21.7185 83.529 21.8309 83.3041 21.9621 82.8918C22.0933 82.4982 22.2807 81.8048 21.7372 81.43C21.606 81.3176 21.4186 81.2238 21.2125 81.0552C21.0251 80.8865 20.8751 80.6991 20.7252 80.5304C20.4253 80.1743 20.1442 79.9307 19.6944 79.8745C19.2446 79.7995 18.7199 79.8745 18.1389 79.9119C17.5579 79.9682 16.9769 80.0056 16.3585 80.0619C16.2086 80.0806 16.0774 80.0806 15.8712 80.0994C15.7025 80.0994 15.4214 80.0619 15.234 79.9119C15.0466 79.7808 14.9716 79.6683 14.8779 79.6121C14.7842 79.5371 14.6905 79.4809 14.5781 79.4247C14.147 79.2185 13.6223 79.1998 13.135 79.2373C12.629 79.256 12.123 79.331 11.6544 79.3497C11.3546 79.3685 11.0734 79.3685 10.7923 79.3497C10.9048 79.5184 10.9985 79.6683 11.0922 79.762C11.2609 79.9494 11.5232 80.0806 11.8418 80.1931C12.1604 80.3055 12.5165 80.3805 12.8913 80.5117C13.2474 80.6429 13.6972 80.8678 13.9596 81.2988C14.2032 81.7111 14.2032 82.2734 14.0346 82.6482C13.8846 83.0417 13.641 83.3229 13.4161 83.604L13.0788 83.9788C12.9851 84.0913 12.8913 84.2037 12.8164 84.3162C12.6665 84.541 12.5353 84.8034 12.4978 85.0096C12.4603 85.2345 12.4978 85.4031 12.629 85.5343C12.7039 85.6093 12.8164 85.703 12.9663 85.8342C13.135 86.0029 13.2662 86.209 13.2662 86.4527C13.2849 86.7713 13.0038 87.1086 12.8726 87.2398C12.7227 87.3897 12.554 87.5397 12.4041 87.6708C12.0855 87.9332 11.7669 88.1394 11.467 88.3643C10.8673 88.7953 10.4175 89.2451 10.2113 89.7886C10.0239 90.3508 10.0239 90.9881 9.78029 91.569C9.5554 92.1688 9.08686 92.5248 8.73078 92.806C8.35595 93.0871 8.05609 93.312 7.86868 93.5744C7.68126 93.8367 7.56882 94.0991 7.55008 94.324C7.49385 94.7738 7.70001 94.9612 7.66253 94.9987C7.66253 95.0174 7.36267 94.8488 7.36267 94.324C7.36267 94.0616 7.43763 93.743 7.64379 93.4244C7.8312 93.0871 8.16854 92.806 8.50589 92.5248C8.84323 92.225 9.19931 91.9064 9.34924 91.4191C9.51792 90.9318 9.48043 90.3321 9.68658 89.6387C9.89274 88.9265 10.4737 88.3268 11.0734 87.877C11.3733 87.6334 11.6732 87.4085 11.973 87.1648C12.123 87.0336 12.2541 86.9212 12.3853 86.7713C12.5353 86.6213 12.5353 86.6026 12.554 86.4901C12.554 86.4339 12.5165 86.3777 12.479 86.359C12.4041 86.284 12.2729 86.1903 12.1417 86.0591C11.8231 85.778 11.7106 85.2907 11.7669 84.8971C11.8231 84.5036 11.9918 84.185 12.1792 83.8851C12.2729 83.7352 12.3853 83.5852 12.4978 83.4541L12.7976 83.098C13.1912 82.6294 13.4723 82.0859 13.2287 81.7299C13.0413 81.3738 12.3104 81.2613 11.5795 81.0364C11.2046 80.924 10.7736 80.7553 10.4362 80.3805C10.1176 80.0244 9.94896 79.687 9.76155 79.5371C9.36798 79.181 8.59959 79.1436 7.75623 78.9374C7.6063 78.8999 7.43763 78.8437 7.26896 78.7687C7.32518 78.9936 7.3814 79.2747 7.32518 79.6121C7.21273 80.3243 6.59427 80.8865 6.38812 81.4862C6.27567 81.8048 6.27567 82.1047 6.44434 82.2921C6.51931 82.4045 6.80043 82.5919 6.89413 82.9668C6.9691 83.3229 6.87539 83.6415 6.68798 83.9038C6.29441 84.4286 5.67595 84.541 5.31986 84.5973C5.16993 84.6535 5.2449 84.616 5.20742 84.6535C5.20742 84.7285 5.26364 84.9159 5.33861 85.1033C5.41357 85.2907 5.48854 85.5531 5.4698 85.778C5.4698 86.0029 5.41357 86.2278 5.33861 86.4152C5.18868 86.79 4.9263 87.0899 4.66392 87.296C4.12042 87.6896 3.61441 87.7833 3.27706 87.8395C2.93972 87.877 2.75231 87.877 2.73357 87.8208C2.71482 87.7645 2.8835 87.6896 3.18336 87.5584C3.48322 87.4272 3.91427 87.2398 4.30784 86.8837C4.66392 86.5276 4.98252 85.9279 4.68266 85.3657C4.6077 85.1783 4.49525 84.9908 4.47651 84.6722C4.47651 84.5036 4.53273 84.2787 4.68266 84.1287C4.83259 83.9788 5.00126 83.9039 5.13245 83.8664C5.39483 83.8101 5.52602 83.7914 5.71343 83.7164C5.86336 83.6602 6.01329 83.5478 6.06952 83.4541C6.14448 83.3416 6.18196 83.2104 6.16322 83.1355C6.16322 83.0605 6.06952 82.9855 5.8821 82.7606C5.69469 82.5357 5.58224 82.2171 5.60098 81.9548C5.60098 81.6924 5.65721 81.4487 5.75091 81.2426C5.91959 80.8115 6.2007 80.4929 6.38812 80.2306C6.59427 79.9682 6.7442 79.7245 6.81917 79.4809C6.91287 79.1623 6.85665 78.7875 6.83791 78.4876C6.70672 78.3752 6.59427 78.244 6.50057 78.094C6.35064 77.8317 6.29441 77.5131 6.29441 77.2882L6.31315 76.6697C6.29441 76.0325 5.90085 75.2266 5.67595 74.3645C5.43231 73.5212 5.28238 72.6403 5.18868 71.722C5.15119 71.2722 5.13245 70.8037 5.13245 70.3539C5.15119 69.8854 5.11371 69.4731 5.2449 68.8733C5.31987 68.5735 5.52602 68.2549 5.73217 68.0487C5.95707 67.8426 6.20071 67.6926 6.4256 67.5802C6.87539 67.3553 7.32518 67.1866 7.75623 67.0179C8.56211 66.7181 9.36798 66.3807 9.74281 65.856C9.51791 65.856 9.23679 65.856 8.89945 65.8935C8.44966 65.931 7.9249 66.0059 7.2877 65.9872C6.66924 65.9497 5.8821 65.8372 5.26364 65.2375C4.94504 64.9377 4.79511 64.5816 4.64518 64.3379C4.49525 64.0756 4.34532 63.9256 4.17665 63.8694C3.98923 63.8132 3.67063 63.8132 3.38951 63.757C3.10839 63.7007 2.84601 63.6258 2.62112 63.5133C1.72154 63.101 1.40293 62.5575 1.4779 62.5013C1.55286 62.4076 1.98392 62.7824 2.80853 63.0073C3.01469 63.0635 3.23958 63.101 3.48322 63.1198C3.72685 63.1572 3.97049 63.101 4.3828 63.176C4.79511 63.2697 5.11371 63.6258 5.30112 63.9069C5.48854 64.2068 5.63846 64.4879 5.82588 64.6565C6.21945 65.0314 6.81917 65.1813 7.36267 65.2375C7.90616 65.2937 8.4684 65.275 8.91819 65.3125C9.3305 65.3312 9.66785 65.4062 9.91148 65.4999C9.93022 65.4249 9.98645 65.35 9.98645 65.275C10.0239 65.0876 10.0052 64.844 10.0802 64.5254C10.1551 64.188 10.3238 63.8694 10.6049 63.6258C10.8673 63.3821 11.1859 63.2509 11.467 63.1572C12.5915 62.8574 13.6035 63.0823 14.3906 62.8761C16.0774 62.4638 17.4267 60.8708 18.9073 59.5027C19.9943 58.4719 21.0625 57.3474 21.1375 56.073C21.1937 55.4546 20.9688 54.8361 20.594 54.3676C20.4066 54.1239 20.0505 53.8803 19.8256 53.3368C19.7132 53.0557 19.7132 52.7558 19.7132 52.6059C19.6944 52.3997 19.6944 52.4747 19.6944 52.456C19.6944 52.456 19.7319 52.456 19.5445 52.4185L19.076 52.3435C18.7574 52.306 18.4388 52.2685 18.1202 52.2498C17.8765 52.2311 17.6329 52.2498 17.3893 52.2498C17.3705 52.3435 17.3143 52.4934 17.2393 52.6996C17.0894 53.0557 16.8458 53.5617 16.3772 54.1239C15.9087 54.6487 15.1216 55.2484 14.0346 55.1922C13.4723 55.1547 13.0225 54.8548 12.6664 54.8174C12.2916 54.7424 11.8606 54.8548 11.4295 55.061C10.9797 55.2672 10.5487 55.5108 10.0614 55.7169C9.874 55.7919 9.68658 55.8481 9.49917 55.9044C9.53665 55.9793 9.59288 56.073 9.6491 56.1667C9.74281 56.3354 9.87399 56.5416 9.93022 56.8414C10.0052 57.1413 9.94896 57.4786 9.85526 57.741C9.66784 58.2845 9.44295 58.7718 9.19931 59.334C8.95567 59.8963 8.71204 60.4023 8.48714 60.8895L8.39344 61.0582C8.35595 61.1144 8.31847 61.2081 8.26225 61.2831C8.1498 61.4143 7.99987 61.5455 7.84994 61.6017C7.53134 61.7329 7.2877 61.6954 7.08155 61.6767C6.66924 61.6392 6.40686 61.6017 6.2007 61.6205C5.99455 61.6392 5.8821 61.6767 5.84462 61.6205C5.82588 61.583 5.8821 61.4518 6.107 61.3206C6.33189 61.1894 6.70672 61.1332 7.08155 61.1144C7.26896 61.0957 7.47511 61.077 7.58756 61.002C7.70001 60.927 7.73749 60.8708 7.84994 60.5709C8.03735 60.0837 8.26225 59.5589 8.50589 58.9967C8.74952 58.4532 8.99316 57.9472 9.19931 57.4599C9.29302 57.235 9.3305 57.0663 9.31176 56.8976C9.29302 56.729 9.21805 56.5228 9.16183 56.3541C9.10561 56.223 9.06812 56.0918 9.03064 55.9793C8.88071 55.9981 8.73078 56.0355 8.59959 56.0543C7.68127 56.1667 6.87539 56.1667 6.23819 56.2417C5.60098 56.3167 5.13245 56.5416 4.88881 56.7852C4.64518 57.0101 4.58895 57.235 4.53273 57.2162C4.49525 57.2162 4.42028 56.9726 4.66392 56.5978C4.88881 56.223 5.43231 55.8856 6.14448 55.7169C6.83791 55.5483 7.66253 55.5108 8.50589 55.3609C8.67456 55.3234 8.84323 55.2859 9.0119 55.2484C9.08686 55.0797 9.18057 55.0048 9.21805 55.0423C9.25554 55.061 9.25554 55.1172 9.25554 55.1922C9.42421 55.136 9.59288 55.0797 9.76155 55.0048C10.1739 54.8174 10.6049 54.555 11.1109 54.3301C11.5982 54.1052 12.1979 53.9365 12.7976 54.049C13.3974 54.1802 13.7534 54.4425 14.1095 54.4613C14.8404 54.555 15.5526 54.1427 16.0024 53.7304C16.4709 53.2993 16.7708 52.8308 16.9957 52.5309C17.0894 52.3997 17.1644 52.306 17.2206 52.2311C16.8832 52.2498 16.5646 52.2685 16.246 52.3248C15.9274 52.3622 15.6651 52.4372 15.234 52.4747C15.0279 52.4934 14.7655 52.4747 14.5031 52.381C14.2407 52.2873 14.0158 52.0811 13.8846 51.8937C13.6035 51.5002 13.5285 51.1441 13.4348 50.8255C13.3411 50.5069 13.2474 50.1883 13.1912 49.8509C13.1725 49.7197 13.1537 49.5885 13.135 49.4761C12.8164 49.6823 12.2354 50.0009 11.4108 50.4132C10.7548 50.6943 10.0989 51.1816 9.03064 51.3127C8.76826 51.3315 8.4684 51.294 8.16854 51.1816C7.88742 51.0504 7.66252 50.8817 7.47511 50.7318C7.2877 50.5818 7.11903 50.4506 6.93162 50.3944C6.7442 50.3194 6.51931 50.3007 6.25693 50.282C5.76965 50.2445 5.16993 50.282 4.58895 49.9634C4.00798 49.6073 3.82056 49.0638 3.57692 48.7827C3.35203 48.5015 2.99595 48.3141 2.62112 48.108C2.26504 47.9018 1.92769 47.7332 1.62783 47.5645C0.409647 46.8711 -0.321264 46.4025 -0.265041 46.3088C-0.208817 46.2151 0.59706 46.515 1.87147 47.0772C2.19007 47.2271 2.54615 47.3771 2.90224 47.5457C3.25832 47.7144 3.72685 47.9018 4.10168 48.3329C4.43902 48.7452 4.64518 49.1762 4.94504 49.3262C5.26364 49.5136 5.75091 49.5136 6.29441 49.5323C6.31315 49.5323 6.35064 49.5323 6.36938 49.5511C6.25693 49.0825 6.21945 47.9393 6.31315 46.6274C6.33189 46.4025 6.35064 46.1964 6.33189 46.0652C6.33189 45.9527 6.27567 45.859 6.16322 45.6904C5.95707 45.3718 5.76965 45.0906 5.63847 44.8282C5.35735 44.3222 5.22616 43.9849 5.30112 43.9287C5.39483 43.8724 5.67595 44.0973 6.06952 44.5097C6.27567 44.7158 6.48182 44.9782 6.72546 45.2593C6.83791 45.4092 7.02532 45.6341 7.0628 45.934C7.10029 46.2151 7.0628 46.4213 7.0628 46.6462C6.98784 47.9768 6.80043 49.12 6.63175 49.5511C6.80043 49.5698 6.9691 49.6073 7.13777 49.6822C7.43763 49.7947 7.70001 49.9821 7.88742 50.1508C8.28099 50.4881 8.54337 50.6381 8.93693 50.6193C9.70533 50.5818 10.5112 50.1508 11.1484 49.9259C12.048 49.5885 12.7039 49.3636 13.06 49.2887C13.0038 48.7827 13.0038 48.2766 13.1537 47.7331C13.2474 47.3583 13.4348 47.0022 13.6972 46.7024C13.9596 46.4025 14.222 46.2151 14.3532 46.0464C14.6343 45.7466 14.6343 45.353 14.4281 44.922C14.222 44.5096 13.8284 44.1348 13.3974 43.9474C12.4978 43.5539 11.3171 43.6288 10.1364 43.4414C9.83651 43.3852 9.5554 43.3477 9.21805 43.179C8.86197 43.0291 8.52463 42.5793 8.48714 42.2232C8.41218 41.8671 8.43092 41.586 8.41218 41.3799C8.39344 41.1737 8.33721 41.0238 8.22477 40.8926C7.99987 40.6115 7.56882 40.424 7.11903 40.3116C6.6505 40.1804 6.18196 40.1429 5.61973 39.9368C5.09497 39.7306 4.62644 39.4308 4.27035 38.981C4.19539 38.8873 4.08294 38.6999 4.00797 38.5124C3.95175 38.325 3.91427 38.1376 3.93301 37.9689C3.95175 37.8003 3.98923 37.6316 4.0642 37.4817L4.1579 37.238L4.27035 37.1068C4.51399 37.2006 4.73889 37.2755 4.96378 37.3317C5.09497 37.3505 5.11371 37.3505 5.16993 37.3505C5.22616 37.3505 5.28238 37.3505 5.33861 37.3505C5.5635 37.3505 5.76965 37.2942 5.97581 37.238C6.40686 37.1068 6.76294 36.8632 7.10029 36.5633C7.75623 35.9636 8.18728 35.1952 8.63707 34.4831C9.06812 33.7896 9.34924 33.115 9.12435 32.5152C9.03064 32.1966 8.88071 31.878 8.80574 31.5219C8.73078 31.1658 8.74952 30.8285 8.78701 30.5286C8.86197 29.9102 9.03064 29.4229 9.12435 28.9919C9.21805 28.5608 9.27428 28.186 9.25554 27.9049C9.21805 27.3051 8.97442 27.0615 9.03064 27.024C9.04938 27.0053 9.10561 27.0615 9.21805 27.1927C9.31176 27.3239 9.44295 27.5488 9.48043 27.8674C9.63036 28.5233 9.3305 29.4604 9.21805 30.5661C9.19931 30.8472 9.19931 31.1284 9.27427 31.4282C9.34924 31.7093 9.49917 32.0092 9.63036 32.3653C9.76155 32.7214 9.79903 33.2087 9.68658 33.621C9.57414 34.052 9.38672 34.4268 9.18057 34.8017C8.76826 35.5326 8.33721 36.3572 7.6063 37.0694C7.23147 37.4254 6.78168 37.744 6.25693 37.9315C5.99455 38.0252 5.71343 38.0814 5.41357 38.1189C5.33861 38.1189 5.26364 38.1189 5.18868 38.1189C5.11371 38.1189 5.02001 38.1189 5.02001 38.1189C4.98252 38.1189 4.94504 38.1001 4.88881 38.1001L4.83259 38.0814L4.81385 38.1376C4.81385 38.1751 4.79511 38.2126 4.81385 38.2501C4.81385 38.2875 4.83259 38.325 4.85133 38.3438C4.87007 38.3812 4.88881 38.4 4.94504 38.475C5.16993 38.7561 5.54476 38.9997 5.95707 39.1309C6.31315 39.2621 6.87539 39.3183 7.38141 39.4495C7.88742 39.5807 8.48714 39.7681 8.97442 40.3116C9.19931 40.574 9.34924 40.9488 9.38672 41.2674C9.42421 41.586 9.4242 41.8484 9.46169 42.0358C9.51791 42.2232 9.53665 42.2607 9.68658 42.3357C9.83651 42.4106 10.1176 42.4669 10.3613 42.5043C11.3733 42.6917 12.5727 42.5231 13.8659 43.0478C14.0346 43.1228 14.2032 43.2165 14.3532 43.3289C14.4656 43.3664 14.6343 43.4414 14.8592 43.4976C15.2902 43.6101 15.9462 43.6288 16.6958 43.4039C17.3518 43.2165 18.0639 42.8042 18.9073 42.3919C18.9448 42.2045 18.9635 41.9421 18.8698 41.661C18.8136 41.4923 18.7386 41.3611 18.5887 41.1737C18.4575 40.9863 18.2514 40.7614 18.1389 40.424C18.0265 40.068 18.0452 39.7494 18.0452 39.4682C18.0452 39.1684 18.0452 38.8685 18.0452 38.5499C18.0827 36.0198 18.2888 33.9583 18.5137 33.977C18.7199 33.977 18.8511 36.0386 18.8136 38.5687C18.8136 38.8873 18.7949 39.1871 18.7949 39.487C18.7761 39.7868 18.7574 40.0492 18.8136 40.2366C18.8886 40.5927 19.3571 41.0425 19.4133 41.5673C19.4508 41.8109 19.4133 42.0171 19.3758 42.1857C19.6382 42.0733 19.8818 41.9608 20.2004 41.8859C20.3691 41.8484 20.5753 41.8109 20.8002 41.8671C21.0251 41.9046 21.25 42.0733 21.3811 42.2232C21.6435 42.5606 21.7185 42.8417 21.8684 43.0291C22.0184 43.2352 22.2245 43.4039 22.4494 43.5351C22.9367 43.7975 23.4239 43.8162 24.0049 43.6663C24.286 43.6101 24.6046 43.5351 24.942 43.5164C25.2793 43.4976 25.6542 43.5726 25.954 43.76C26.5537 44.1536 26.7786 44.6971 27.041 45.0531C27.3034 45.4092 27.6407 45.6903 27.9593 45.8965C28.634 46.3088 29.29 46.4213 29.721 46.4587C30.1708 46.4775 30.4332 46.4587 30.4519 46.515C30.3582 46.5524 30.1146 46.7024 29.6273 46.7586Z" fill="#4B301F"/>
<path d="M52.0608 11.4312C51.6859 11.1126 51.2174 10.5316 50.9738 9.66953C50.8426 9.23848 50.8051 8.73246 50.8801 8.18896C50.955 7.66421 51.1237 7.1582 51.03 6.76463C50.955 6.37106 50.5427 6.0712 50.0367 5.73386C49.7931 5.56519 49.5119 5.35903 49.2683 5.05917C49.0434 4.77805 48.8747 4.42197 48.781 4.06588C48.6873 3.7098 48.6873 3.31623 48.7623 2.96015C48.8373 2.58532 49.0059 2.28546 49.0247 2.09805C49.0434 1.92938 49.0059 1.87315 48.7998 1.70448C48.5936 1.57329 48.35 1.4421 48.1063 1.32965C47.1318 0.879864 46.1573 0.542521 45.4263 0.017765C44.7891 -0.432026 44.3956 -0.975521 44.2082 -1.44405C44.1894 -1.18168 44.1332 -0.919302 44.0395 -0.675667C43.9083 -0.338324 43.7021 0.0177631 43.3835 0.280142C43.0649 0.56126 42.6152 0.711195 42.2216 0.711195C41.828 0.711195 41.5282 0.654968 41.3033 0.67371C41.0784 0.67371 40.8347 0.748674 40.6286 0.861122C40.1788 1.08602 39.7852 1.51707 39.4479 1.9856C39.2792 2.22924 39.1105 2.49162 38.9419 2.75399C38.7732 3.03511 38.6232 3.27875 38.6045 3.46616C38.5858 3.63483 38.5858 3.65357 38.7544 3.84099C38.9231 3.99092 39.2417 4.21581 39.5041 4.44071C40.0476 4.8905 40.5349 5.37777 41.0034 5.92127C41.2283 6.18365 41.4532 6.48351 41.6406 6.76463L41.9405 7.21442C41.9967 7.30813 42.0529 7.38309 42.1091 7.53302C42.1654 7.68295 42.2028 7.85163 42.1841 8.0203C42.1654 8.37638 41.8655 8.73246 41.7343 8.84491C41.5844 8.99484 41.5094 9.05106 41.4907 9.12603C41.4157 9.27596 41.397 9.6133 41.3595 10.0444C41.2283 10.9252 40.7785 11.7686 40.0663 12.3308C39.3542 12.893 38.4733 13.1554 37.6674 13.2491C36.8428 13.3428 36.037 13.3053 35.2498 13.2491C34.7251 13.2116 34.2191 13.1742 33.6943 13.1367C33.713 13.2116 33.7505 13.3241 33.8255 13.4365C33.9754 13.7176 34.3128 14.055 34.8375 14.3174C35.3435 14.5985 36.1494 14.7672 36.8241 15.4981C37.1427 15.8541 37.3488 16.2665 37.5925 16.5663C37.7237 16.7163 37.8549 16.8287 38.0048 16.9224C38.1735 17.0161 38.3984 17.0911 38.642 17.2223C38.8856 17.3347 39.1855 17.5596 39.3167 17.9157C39.4479 18.2718 39.3729 18.5529 39.3542 18.7778C39.2979 19.1714 39.3542 19.5274 39.5041 19.8835C39.7852 20.577 40.2912 21.083 40.7785 21.4391C41.7718 22.1512 42.5027 22.4886 42.4465 22.601C42.409 22.676 41.6406 22.5261 40.4786 21.8889C39.9164 21.5515 39.2605 21.008 38.8669 20.1646C38.6795 19.7523 38.567 19.2088 38.6233 18.7028C38.6607 18.1968 38.6607 18.1031 38.2859 17.897C38.0985 17.8033 37.8736 17.7095 37.63 17.5784C37.3863 17.4284 37.1614 17.2223 37.0115 17.0349C36.6929 16.6225 36.5055 16.229 36.2806 15.9479C35.8495 15.4044 35.0999 15.142 34.5564 14.7859C33.9754 14.4111 33.6381 13.9238 33.5444 13.549C33.5069 13.3616 33.5069 13.2116 33.5256 13.1179C33.0946 13.0804 32.6448 13.043 32.195 12.9867C31.1642 12.8556 30.0772 12.5932 29.1402 11.956C28.6716 11.6374 28.2968 11.2251 27.9782 10.8877C27.6409 10.5316 27.3223 10.213 27.0037 10.0069C26.685 9.81946 26.4602 9.80072 26.2165 9.93191C26.0853 10.0069 25.9167 10.1568 25.673 10.3255C25.4106 10.4941 25.1295 10.6066 24.8109 10.6816C24.1925 10.794 23.6115 10.6628 23.1242 10.4942C22.6369 10.3255 22.2059 10.1006 21.7936 9.87568C21.0064 9.48211 20.1069 8.99484 19.7133 9.25722C19.4509 9.38841 19.0761 9.72576 18.7762 9.98813C18.4576 10.2693 18.1578 10.5691 17.8579 10.8877C17.4643 11.3188 17.1082 11.7498 16.7896 12.2183C16.7896 12.2746 16.7896 12.3495 16.8084 12.4245C16.8459 12.7244 17.0895 13.1742 17.558 13.5115C18.0266 13.8676 18.8137 14.0363 19.5071 14.7672C19.8445 15.142 20.0131 15.5543 20.2755 15.7042C20.4067 15.7792 20.6129 15.8541 20.894 15.9666C21.1564 16.0978 21.4 16.3039 21.5874 16.5288C21.7748 16.5476 21.9997 16.5476 22.2246 16.4914C22.5432 16.4164 22.7681 16.0978 23.1429 15.6293C23.3116 15.4044 23.6115 15.142 23.9488 15.0108C24.2862 14.8609 24.661 14.8234 24.9983 14.8234C25.673 14.8234 26.254 14.8984 26.7038 14.8046C27.1348 14.7297 27.4722 14.4111 27.8658 14.1674C28.2593 13.9051 28.6716 13.8301 28.934 13.8863C29.2151 13.9425 29.3088 14.0925 29.2713 14.13C29.2526 14.1862 29.1214 14.1487 28.9153 14.1862C28.7279 14.2237 28.4467 14.3361 28.1656 14.5985C28.0157 14.7297 27.8658 14.8796 27.6596 15.067C27.4534 15.2357 27.1723 15.4044 26.8537 15.4981C26.2353 15.6667 25.5793 15.5918 24.9796 15.5918C24.3611 15.5918 23.9863 15.723 23.649 16.1165C23.4615 16.304 23.2929 16.5101 23.068 16.6975C22.8431 16.8849 22.562 17.0161 22.3183 17.0349C22.1309 17.0536 21.981 17.0349 21.8498 17.0161C21.8873 17.1286 21.9435 17.241 21.9622 17.3535C22.0372 17.6346 22.0185 17.9719 21.981 18.1781C21.9435 18.4217 21.9435 18.5716 21.981 18.7028C22.0185 18.8528 22.1309 19.0214 22.2434 19.1901C22.6744 19.8835 23.1617 20.4645 23.5927 20.933C24.4548 21.8514 25.092 22.3199 25.0358 22.4323C24.9796 22.5073 24.2299 22.1887 23.2179 21.3266C22.7119 20.8956 22.1684 20.3146 21.6624 19.5837C21.5312 19.415 21.4 19.2089 21.3063 18.9277C21.2126 18.6279 21.2313 18.328 21.2688 18.1031C21.2876 17.8595 21.3063 17.7095 21.2501 17.5221C21.2126 17.3347 21.1189 17.166 21.0064 17.0161C20.894 16.8662 20.7441 16.735 20.5754 16.66C20.4067 16.5663 20.1631 16.5101 19.9007 16.3414C19.3759 15.9666 19.226 15.4793 19.0011 15.2357C18.5513 14.6922 17.7642 14.4111 17.2394 13.9425C16.7709 13.5302 16.5648 13.0242 16.5273 12.6306C16.471 12.7244 16.3961 12.7993 16.3399 12.893C16.115 13.2491 15.9088 13.5865 15.7027 13.9613C15.4965 14.3361 15.2529 14.7297 14.878 15.0858C14.5032 15.4231 14.2408 15.5918 14.1846 15.7792C14.1096 15.9666 14.1659 16.229 14.3345 16.5476C14.6157 17.166 15.2154 17.7845 15.3091 18.7591L15.3278 18.7778C15.5902 19.0589 15.8901 19.3588 16.2274 19.6586C16.5648 19.9585 16.9771 20.2584 17.3706 20.6332C17.7642 21.008 18.1952 21.4578 18.4201 22.1138C18.4764 22.2824 18.5138 22.4511 18.5326 22.6198C18.5513 22.8072 18.5326 22.9758 18.5513 23.0321C18.5513 23.0883 18.5701 23.1258 18.6638 23.2195C18.7387 23.2944 18.8699 23.4069 18.9824 23.5193C19.4322 23.9317 19.8632 24.344 20.2755 24.7375C20.6878 25.1311 21.1189 25.5059 21.4375 26.0307C21.5874 26.2931 21.6999 26.5929 21.7373 26.8928C21.7748 27.1926 21.7186 27.4738 21.6811 27.6987C21.5687 28.1859 21.5687 28.467 21.6062 28.9356C21.6249 29.4041 21.3438 29.8726 21.0439 30.0601C20.7441 30.2662 20.4629 30.3412 20.238 30.3974C19.7883 30.4911 19.5259 30.4724 19.5259 30.4161C19.5071 30.3599 19.7508 30.2849 20.1443 30.0975C20.5192 29.9289 21.1564 29.6103 21.0627 28.9356C21.0439 28.7669 21.0064 28.5608 21.0064 28.2984C21.0064 28.0547 21.0439 27.8111 21.0627 27.5862C21.1376 27.1177 21.1189 26.7616 20.8565 26.3868C20.6129 26.0119 20.2006 25.6559 19.7695 25.2623C19.3572 24.8687 18.9074 24.4564 18.4764 24.0441C18.3639 23.9317 18.2702 23.8567 18.139 23.7068C18.0078 23.5756 17.8579 23.3507 17.8392 23.107C17.8204 22.8821 17.8392 22.7509 17.8204 22.6385C17.8204 22.5261 17.7829 22.4136 17.7455 22.3012C17.6143 21.8514 17.2769 21.4578 16.9208 21.1017C16.5648 20.7456 16.1712 20.427 15.8338 20.0897C15.6277 19.8835 15.4215 19.6774 15.2529 19.4525C15.1966 19.6586 15.1592 19.8086 15.1404 19.9585C15.1217 20.2021 15.1966 20.502 15.3278 20.8019C15.459 21.1017 15.6464 21.4203 15.7964 21.7951C15.9463 22.1512 16.0775 22.6198 15.9275 23.107C15.7776 23.5756 15.3653 23.9316 14.9717 24.0628C14.5782 24.2128 14.2033 24.2315 13.866 24.2503H13.36C13.2101 24.2503 13.0789 24.269 12.9289 24.2877C12.6478 24.3252 12.3854 24.4002 12.198 24.5314C12.0106 24.6626 11.9169 24.7938 11.8982 24.9812C11.8982 25.0936 11.8982 25.2435 11.8982 25.431C11.8982 25.6746 11.8232 25.8995 11.6545 26.0682C11.4296 26.3118 10.9986 26.3305 10.8112 26.3118C10.5863 26.3118 10.3801 26.2743 10.174 26.2368C9.76167 26.1806 9.38684 26.0869 9.03075 26.0119C8.31859 25.862 7.66264 25.8245 7.13788 26.0494C6.59439 26.2743 6.12585 26.7054 5.54487 26.9303C4.94515 27.1739 4.36417 27.0615 3.93312 26.9865C3.48333 26.9115 3.10851 26.8365 2.77116 26.874C2.45256 26.9115 2.19018 27.024 2.00277 27.1364C1.64669 27.3988 1.62795 27.6799 1.59046 27.6799C1.57172 27.6986 1.49675 27.3613 1.89032 26.9865C2.07773 26.8178 2.3776 26.6679 2.73368 26.5929C3.10851 26.5179 3.53956 26.5742 3.98935 26.6117C4.43914 26.6679 4.92641 26.7054 5.3762 26.4992C5.84474 26.3118 6.27579 25.862 6.93173 25.5434C7.60642 25.2248 8.43104 25.2435 9.16195 25.3935C9.53677 25.4497 9.9116 25.5247 10.2864 25.5809C10.4738 25.5996 10.6612 25.6184 10.8487 25.6184C11.0736 25.6184 11.0736 25.6184 11.1673 25.5621C11.2047 25.5247 11.2235 25.4684 11.2235 25.4122C11.2235 25.2998 11.2047 25.1498 11.2047 24.9624C11.2047 24.5501 11.4859 24.1191 11.8045 23.9129C12.1418 23.688 12.4791 23.5943 12.8352 23.5381C13.0039 23.5193 13.1913 23.5006 13.3787 23.4819L13.8473 23.4631C14.4657 23.4444 15.0467 23.2757 15.1404 22.8634C15.2716 22.4886 14.878 21.8701 14.5407 21.1767C14.372 20.8206 14.2221 20.3895 14.2408 19.8835C14.2783 19.415 14.4282 19.0589 14.4095 18.8153C14.4095 18.2905 13.9222 17.6908 13.5099 16.9224C13.435 16.7912 13.36 16.6225 13.3038 16.4351C13.1726 16.6225 13.0039 16.8474 12.7228 17.0349C12.1231 17.4284 11.2985 17.3535 10.7175 17.5971C10.4176 17.7283 10.1927 17.9344 10.174 18.1781C10.1552 18.3093 10.1927 18.6466 9.96782 18.9652C9.76167 19.2651 9.44306 19.415 9.1432 19.4525C8.48726 19.5275 7.98124 19.1339 7.70012 18.909C7.55019 18.834 7.6439 18.8528 7.58768 18.8715C7.53145 18.9277 7.43775 19.0964 7.34404 19.2651C7.26907 19.4337 7.11914 19.6774 6.93173 19.8273C6.76306 19.9772 6.5569 20.0897 6.36949 20.1646C5.97592 20.2958 5.6011 20.3146 5.26375 20.2584C4.60781 20.1272 4.1955 19.8086 3.93312 19.6024C3.67075 19.3775 3.5583 19.2276 3.57704 19.1901C3.61452 19.1526 3.78319 19.2088 4.08306 19.3588C4.38292 19.49 4.81396 19.6961 5.31998 19.7336C5.82599 19.7711 6.48194 19.5837 6.68809 18.984C6.7818 18.8153 6.83802 18.5904 7.06292 18.3655C7.17537 18.253 7.40026 18.1406 7.58768 18.1593C7.79383 18.1593 7.9625 18.253 8.07495 18.328C8.29984 18.4779 8.41229 18.5716 8.58097 18.6466C8.7309 18.7216 8.89956 18.7591 9.01201 18.7403C9.1432 18.7216 9.27439 18.6466 9.31187 18.5904C9.3681 18.5529 9.3681 18.4217 9.38684 18.1218C9.42432 17.822 9.59299 17.5409 9.78041 17.3722C9.98656 17.1848 10.1927 17.0723 10.4176 16.9974C10.8487 16.8287 11.261 16.8287 11.5796 16.7912C11.9169 16.7537 12.198 16.7163 12.4229 16.6038C12.7228 16.4539 12.9664 16.1728 13.1726 15.9479C13.1726 15.7792 13.1913 15.6105 13.2475 15.4231C13.3413 15.142 13.5287 14.8796 13.7161 14.7297L14.1846 14.3361C14.6531 13.9051 14.9717 13.0617 15.459 12.3308C15.9275 11.5811 16.471 10.869 17.0895 10.1943C17.3894 9.85694 17.7267 9.53834 18.0641 9.21973C18.4201 8.91987 18.7013 8.60128 19.2448 8.30142C19.5071 8.15149 19.882 8.09526 20.1818 8.114C20.4817 8.13275 20.7628 8.22645 20.9877 8.30142C21.4562 8.47009 21.8873 8.69499 22.2996 8.90114C23.068 9.29471 23.8551 9.65078 24.4923 9.59456C24.3424 9.42589 24.155 9.21974 23.9113 8.99485C23.5927 8.69499 23.1804 8.35764 22.7494 7.87037C22.3558 7.3831 21.9248 6.72715 21.9435 5.86505C21.9622 5.434 22.1122 5.07791 22.1871 4.79679C22.2808 4.51567 22.2808 4.30952 22.2059 4.14085C22.1309 3.97218 21.906 3.72854 21.7561 3.4849C21.6062 3.24127 21.4937 2.99763 21.4187 2.75399C21.1189 1.81693 21.325 1.21721 21.4 1.21721C21.5125 1.21721 21.5312 1.79819 21.906 2.54784C21.9997 2.73525 22.1122 2.92266 22.2621 3.12882C22.3933 3.31623 22.6182 3.46616 22.8243 3.82224C23.0305 4.19707 22.993 4.66561 22.8993 5.00295C22.8056 5.34029 22.6932 5.64015 22.6932 5.90253C22.6744 6.44603 22.9743 6.98952 23.2929 7.43931C23.6302 7.8891 24.005 8.26393 24.2862 8.63876C24.5485 8.95736 24.7172 9.25722 24.8297 9.50085C24.9046 9.46337 24.9796 9.44463 25.0546 9.40715C25.2045 9.31344 25.3919 9.14477 25.673 8.9761C25.9729 8.80743 26.329 8.71372 26.6851 8.7512C27.0411 8.78868 27.3597 8.91987 27.6034 9.06981C28.5779 9.70701 29.1027 10.5878 29.7961 11.0376C31.2392 12.0122 33.3195 11.9372 35.3435 12.1246C36.8428 12.2371 38.3796 12.2558 39.3729 11.4687C39.8602 11.0939 40.1788 10.5129 40.2537 9.93191C40.31 9.63205 40.2537 9.20099 40.4974 8.65749C40.6286 8.37638 40.8535 8.18897 40.9659 8.07652C41.0971 7.92659 41.0596 7.98282 41.0596 7.96408C41.0596 7.96408 41.0784 7.98281 40.9847 7.83288L40.7223 7.42057C40.5349 7.1582 40.3475 6.89582 40.1413 6.65219C39.9914 6.46477 39.8227 6.27736 39.654 6.10868C39.5603 6.16491 39.4291 6.22113 39.223 6.2961C38.8669 6.42729 38.3234 6.59596 37.5925 6.6147C36.8803 6.63344 35.9058 6.44602 35.2311 5.60267C34.8937 5.17162 34.8 4.62812 34.5939 4.32826C34.3877 4.00966 34.0316 3.76602 33.5818 3.57861C33.1321 3.3912 32.6448 3.24127 32.1762 3.01637C31.9888 2.94141 31.8389 2.82896 31.6702 2.73525C31.6327 2.82896 31.614 2.92266 31.5765 3.03511C31.5203 3.22253 31.4453 3.44742 31.2767 3.69106C31.108 3.95344 30.8269 4.14085 30.5645 4.2533C30.0397 4.47819 29.515 4.64687 28.934 4.83428C28.353 5.02169 27.8095 5.19036 27.3035 5.34029L27.1161 5.39652C27.0411 5.41526 26.9474 5.434 26.8725 5.45274C26.6851 5.47148 26.4976 5.45274 26.3477 5.35903C26.0478 5.2091 25.8979 5.00295 25.7667 4.83428C25.5231 4.49693 25.3544 4.29078 25.2045 4.14085C25.0546 4.00966 24.9421 3.93469 24.9609 3.87847C24.9609 3.84099 25.1108 3.80351 25.3544 3.87847C25.5981 3.95344 25.8792 4.19707 26.1603 4.45945C26.2915 4.59064 26.4602 4.72183 26.5726 4.75931C26.7038 4.79679 26.76 4.77805 27.0599 4.6656C27.5472 4.47819 28.0906 4.29078 28.6716 4.10336C29.2339 3.91595 29.7774 3.74728 30.2646 3.59735C30.4895 3.52239 30.6395 3.42868 30.7519 3.29749C30.8644 3.1663 30.9581 2.97889 31.0518 2.81021C31.108 2.67903 31.183 2.56658 31.2392 2.45413C31.1267 2.36043 30.9955 2.28546 30.8831 2.19176C30.1709 1.59203 29.6462 0.99231 29.1402 0.56126C28.6529 0.148952 28.1844 -0.0572014 27.847 -0.075943C27.5097 -0.0946827 27.3223 -0.000974655 27.2848 -0.0384579C27.2473 -0.0759392 27.3972 -0.282097 27.8283 -0.357061C28.2593 -0.432026 28.8778 -0.263353 29.4775 0.148956C30.0585 0.561264 30.6582 1.1235 31.3329 1.64826C31.4641 1.76071 31.614 1.85441 31.7639 1.94811C31.9326 1.87315 32.0451 1.91063 32.0638 1.94811C32.0638 1.9856 32.0263 2.02308 31.9701 2.07931C32.12 2.17301 32.2887 2.26672 32.4574 2.34168C32.8697 2.5291 33.357 2.67903 33.863 2.88518C34.3502 3.09133 34.8937 3.42868 35.2123 3.95344C35.5122 4.47819 35.5684 4.92798 35.7933 5.2091C36.2244 5.80882 36.9928 6.0712 37.6112 6.10868C38.2484 6.16491 38.7919 6.0712 39.1667 6.03372C39.3167 6.01498 39.4479 6.01498 39.5416 6.01498C39.3167 5.77134 39.073 5.54644 38.8107 5.34029C38.567 5.13414 38.3421 4.98421 38.0235 4.70309C37.8736 4.55316 37.7049 4.36574 37.6112 4.10336C37.5175 3.84098 37.4988 3.54113 37.555 3.31623C37.6674 2.8477 37.8736 2.54784 38.0423 2.26672C38.2109 1.9856 38.3984 1.70448 38.6045 1.42336C38.6795 1.32965 38.7544 1.21721 38.8481 1.1235C38.4921 1.02979 37.8549 0.804897 36.9928 0.467554C36.3368 0.167694 35.5497 0.017767 34.7251 -0.694403C34.5377 -0.881815 34.3502 -1.12546 34.2565 -1.42532C34.1628 -1.72518 34.1441 -2.0063 34.1253 -2.24993C34.1066 -2.49357 34.0879 -2.69972 34.0129 -2.86839C33.9379 -3.05581 33.8067 -3.24322 33.6568 -3.44937C33.3569 -3.84294 32.9259 -4.25525 32.776 -4.91119C32.6448 -5.58588 32.9259 -6.0919 32.9634 -6.46672C33.0196 -6.82281 32.9259 -7.21638 32.8135 -7.60994C32.7197 -8.00351 32.626 -8.37834 32.5511 -8.71568C32.2512 -10.0838 32.1013 -10.9272 32.195 -10.9646C32.2887 -11.0021 32.626 -10.1962 33.0571 -8.86561C33.1695 -8.52826 33.282 -8.17218 33.4132 -7.77861C33.5256 -7.40379 33.713 -6.93526 33.6381 -6.35428C33.5631 -5.82952 33.3757 -5.39847 33.4694 -5.06113C33.5444 -4.70504 33.8817 -4.34896 34.219 -3.91791C34.2378 -3.89917 34.2565 -3.88043 34.2753 -3.84294C34.5564 -4.23651 35.3623 -5.02364 36.393 -5.867C36.5617 -5.99819 36.7491 -6.12938 36.8241 -6.22308C36.8991 -6.29805 36.9365 -6.4105 36.9928 -6.59791C37.0865 -6.95399 37.1802 -7.29134 37.2739 -7.55372C37.4613 -8.09721 37.6112 -8.43456 37.7237 -8.39707C37.8361 -8.37833 37.8549 -8.00351 37.8174 -7.44127C37.7986 -7.16015 37.7612 -6.82281 37.7049 -6.44798C37.6862 -6.26057 37.6112 -5.97945 37.4238 -5.73582C37.2364 -5.51092 37.0677 -5.39847 36.8991 -5.26728C35.8495 -4.42392 34.8937 -3.78672 34.4627 -3.61804C34.5564 -3.46811 34.6501 -3.31818 34.7251 -3.14951C34.8563 -2.84965 34.875 -2.53105 34.8937 -2.28741C34.8937 -1.76266 34.9687 -1.48154 35.2498 -1.20042C35.7933 -0.656921 36.6554 -0.357063 37.2551 -0.0197201C38.0985 0.411329 38.717 0.748674 39.0168 0.954828C39.3542 0.580004 39.729 0.223917 40.2163 -0.0197201C40.5536 -0.188393 40.9472 -0.30084 41.3407 -0.30084C41.7343 -0.319582 42.0529 -0.244614 42.2778 -0.244614C42.6901 -0.244614 42.99 -0.506992 43.1586 -0.938044C43.3273 -1.36909 43.3273 -1.91259 43.1961 -2.36238C42.8775 -3.29945 42.0154 -4.12406 41.3782 -5.11735C41.2283 -5.37973 41.0596 -5.60462 40.9472 -5.97945C40.816 -6.33553 40.9284 -6.89777 41.1721 -7.16015C41.3782 -7.44127 41.6031 -7.60994 41.753 -7.77861C41.8842 -7.92854 41.9592 -8.07847 41.9967 -8.24715C42.0529 -8.60323 41.903 -9.05302 41.6781 -9.46533C41.4719 -9.89638 41.1721 -10.2712 40.9472 -10.8147C40.741 -11.3395 40.6473 -11.883 40.741 -12.4639C40.7598 -12.5951 40.8347 -12.7825 40.9097 -12.9699C41.0034 -13.1386 41.1158 -13.2886 41.2658 -13.401C41.4157 -13.5134 41.5656 -13.5884 41.7156 -13.6446L41.9592 -13.7196H42.1279C42.2216 -13.476 42.3153 -13.2511 42.4277 -13.0449C42.5027 -12.9325 42.5214 -12.9137 42.5589 -12.8762C42.5964 -12.8388 42.6339 -12.8013 42.6714 -12.7638C42.8213 -12.6139 43.0087 -12.4827 43.1961 -12.3702C43.5897 -12.1453 44.002 -12.0329 44.4518 -11.9954C45.3326 -11.9204 46.1947 -12.1079 47.0194 -12.2578C47.8252 -12.4077 48.4999 -12.6514 48.7998 -13.2136C48.9684 -13.4947 49.0996 -13.832 49.3245 -14.1132C49.5494 -14.413 49.8118 -14.6192 50.0554 -14.8066C50.5615 -15.1627 51.03 -15.3688 51.4236 -15.5937C51.8171 -15.8186 52.117 -16.0248 52.3231 -16.2309C52.7354 -16.6432 52.7542 -17.0181 52.8104 -16.9993C52.8292 -16.9993 52.8292 -16.9056 52.8104 -16.7557C52.7729 -16.6058 52.698 -16.3621 52.4918 -16.0997C52.0982 -15.5562 51.2174 -15.1439 50.3178 -14.4693C50.0929 -14.3006 49.8868 -14.0944 49.7181 -13.8508C49.5494 -13.6072 49.437 -13.3073 49.2683 -12.9512C49.0996 -12.5951 48.7623 -12.2578 48.3687 -12.0704C47.9939 -11.8642 47.5628 -11.7518 47.1505 -11.6581C46.3447 -11.4706 45.4263 -11.2458 44.3956 -11.302C43.8896 -11.3395 43.3461 -11.4706 42.84 -11.733C42.5964 -11.8642 42.3528 -12.0329 42.1466 -12.239C42.0904 -12.2953 42.0342 -12.3515 41.9967 -12.4077C41.9405 -12.4639 41.8842 -12.5389 41.8842 -12.5389C41.8655 -12.5764 41.828 -12.6139 41.8093 -12.6514L41.7905 -12.6888L41.7343 -12.6701C41.6968 -12.6514 41.6781 -12.6326 41.6406 -12.5951C41.6219 -12.5764 41.6031 -12.5389 41.5844 -12.5014C41.5656 -12.4639 41.5656 -12.4452 41.5469 -12.3327C41.4907 -11.9767 41.5656 -11.5269 41.7343 -11.152C41.8842 -10.796 42.2216 -10.3649 42.4652 -9.87764C42.7089 -9.4091 42.9712 -8.84687 42.8963 -8.1347C42.8588 -7.79735 42.6714 -7.44127 42.4652 -7.19763C42.2591 -6.954 42.0529 -6.78533 41.9592 -6.6354C41.8655 -6.46672 41.8468 -6.42924 41.903 -6.26057C41.9592 -6.0919 42.0904 -5.867 42.2216 -5.64211C42.7651 -4.76127 43.7021 -3.99287 44.1894 -2.68098C44.2456 -2.51231 44.2831 -2.3249 44.3019 -2.13748C44.3393 -2.02504 44.3956 -1.85636 44.508 -1.65021C44.7142 -1.25664 45.1452 -0.769369 45.8199 -0.357061C46.4009 -0.000976562 47.188 0.242661 48.0689 0.598745C48.2375 0.486298 48.4249 0.336365 48.5936 0.0927277C48.6873 -0.0572014 48.7248 -0.20713 48.7623 -0.450768C48.7998 -0.675663 48.8373 -0.975525 49.0247 -1.29413C49.2121 -1.61273 49.4745 -1.81888 49.6806 -2.00629C49.9055 -2.21245 50.1304 -2.4186 50.374 -2.62476C52.2857 -4.29273 53.9349 -5.52966 54.0848 -5.36099C54.216 -5.21106 52.7917 -3.71175 50.8801 -2.04378C50.6364 -1.83762 50.4115 -1.63147 50.1866 -1.44405C49.943 -1.2379 49.7556 -1.08797 49.6431 -0.9193C49.437 -0.61944 49.4182 0.017765 49.0622 0.411333C48.9122 0.598745 48.7435 0.711195 48.5749 0.804901C48.8373 0.917349 49.0809 1.02979 49.3433 1.21721C49.4932 1.31091 49.6431 1.4421 49.7556 1.64826C49.8868 1.85441 49.9055 2.11679 49.8868 2.32294C49.8118 2.73525 49.6619 2.97889 49.6244 3.22253C49.5682 3.46616 49.5869 3.74728 49.6431 3.99092C49.7743 4.53442 50.0929 4.8905 50.5802 5.22784C50.8238 5.39651 51.0862 5.58393 51.3111 5.80882C51.5547 6.03372 51.7609 6.37106 51.8171 6.72714C51.9296 7.43931 51.6672 7.96407 51.5922 8.41386C51.5173 8.84491 51.5173 9.27596 51.5922 9.66953C51.7422 10.4379 52.0982 11.0002 52.3606 11.3562C52.6417 11.7123 52.8479 11.881 52.8104 11.9185C52.698 11.8435 52.4356 11.7498 52.0608 11.4312Z" fill="#4B301F"/>
<path d="M23.6114 33.996C23.8176 33.5275 23.8551 33.1339 23.7989 32.8716C23.7426 32.6092 23.6302 32.478 23.6864 32.4218C23.7052 32.3843 23.9113 32.4405 24.08 32.7591C24.2486 33.0777 24.2861 33.6025 24.1175 34.1647C23.9488 34.7082 23.6302 35.3267 23.7239 35.8514C23.7989 36.3762 24.4548 36.751 25.1857 37.1821C25.5418 37.407 25.9541 37.6506 26.2165 38.0816C26.5163 38.494 26.5538 39.0187 26.5351 39.3748C26.5163 39.7496 26.4976 40.0682 26.5538 40.3119C26.6101 40.5742 26.7225 40.8179 26.8724 41.0053C27.4909 41.7924 28.2405 41.7924 28.2218 41.9049C28.2218 41.9424 28.0531 42.0173 27.7158 41.9986C27.3784 41.9798 26.8912 41.8112 26.4601 41.3614C26.2352 41.1365 26.0478 40.8366 25.9354 40.4805C25.8229 40.1057 25.8417 39.7121 25.8229 39.3748C25.8229 39.0187 25.7667 38.7563 25.598 38.5127C25.4293 38.2691 25.1295 38.0629 24.7734 37.8568C24.4361 37.6506 24.0425 37.4445 23.7051 37.1633C23.3491 36.901 23.0679 36.4512 22.993 35.9826C22.9368 35.5141 23.0679 35.1205 23.1991 34.8207C23.3678 34.4833 23.5177 34.2209 23.6114 33.996Z" fill="#4B301F"/>
<path d="M28.4468 19.4898C28.8779 19.5835 29.3839 19.7334 29.8149 20.0707C30.0398 20.2394 30.1898 20.4268 30.4147 20.708C30.6208 20.9891 30.9769 21.3077 31.333 21.4576C32.0639 21.7762 32.7386 21.9074 33.3758 22.0011C34.013 22.0761 34.5752 22.0573 34.95 22.1698C35.3249 22.2635 35.5685 22.5258 35.6622 22.7133C35.7747 22.9007 35.7747 23.0506 35.8309 23.0693C35.8684 23.0881 35.9996 22.9382 35.9433 22.6196C35.9059 22.3197 35.6435 21.8886 35.1375 21.6638C34.6314 21.4389 34.0505 21.4201 33.4882 21.3077C32.926 21.1952 32.2326 21.0265 31.6703 20.7829C31.3892 20.6517 31.2018 20.4831 30.9956 20.2394C30.7895 19.9958 30.5271 19.6959 30.2272 19.5085C29.6275 19.1149 29.0278 19.0212 28.5405 18.9838C27.566 18.9275 27.0037 19.0587 27.0037 19.1524C26.985 19.2461 27.566 19.3024 28.4468 19.4898Z" fill="#4B301F"/>
<path d="M57.2709 44.1723C56.896 43.9287 56.5025 43.5538 55.9215 43.2352C55.6404 43.0853 55.303 42.9354 54.9095 42.8792C54.5346 42.8229 54.0474 42.8792 53.6725 43.1041C53.3352 43.329 53.1103 43.4789 53.0166 43.4414C52.8854 43.4227 52.5293 43.179 52.192 43.0853C51.536 42.8604 50.8988 42.9166 50.4303 43.0478C49.437 43.3289 49.0809 43.9099 49.1559 43.9662C49.2309 44.0599 49.6806 43.685 50.5427 43.5913C50.955 43.5351 51.4611 43.5726 51.9671 43.76C52.0983 43.8162 52.2107 43.8725 52.3419 43.9474C52.4731 44.0224 52.6418 44.1348 52.9041 44.1911C53.1665 44.2473 53.4476 44.1723 53.6351 44.0599C53.8225 43.9662 53.9724 43.8537 54.1036 43.7787C54.5346 43.4976 55.1344 43.6476 55.6404 43.8725C56.1464 44.0973 56.5962 44.4534 57.046 44.6408C57.477 44.847 57.8893 44.9594 58.1704 44.9407C58.4516 44.922 58.6015 44.847 58.5828 44.8095C58.5453 44.6971 58.0018 44.6971 57.2709 44.1723Z" fill="#4B301F"/>
<path d="M63.4367 22.301C62.9682 22.5072 62.3123 22.957 61.8437 23.8003C61.6001 24.1939 61.4876 24.7749 61.4127 25.2434C61.319 25.6932 61.0379 25.993 60.5506 26.1805C60.0633 26.3866 59.4823 26.4428 58.8076 26.7052C58.489 26.8364 58.1517 27.0051 57.8706 27.2862C57.5707 27.5486 57.3458 27.9984 57.3646 28.4482C57.3646 28.5981 57.402 28.7855 57.3833 28.8979C57.3646 28.9917 57.3458 29.0666 57.2709 29.1603C57.1397 29.329 56.896 29.4789 56.6524 29.5726C56.1464 29.7601 55.5092 29.8538 54.9657 29.91C53.8412 30.0412 52.8479 29.91 51.9296 29.8725C51.03 29.835 50.2429 29.9662 49.7931 30.2661C49.6994 30.341 49.6057 30.3973 49.5494 30.4535C49.6244 30.2473 49.6994 30.0599 49.7556 29.8538C49.9055 29.3852 50.0367 28.9167 50.1679 28.4669C50.4678 28.2233 51.0113 27.6985 51.8171 27.0238C52.3981 26.5365 53.1103 25.9931 53.9349 25.4683C54.3472 25.2059 54.8157 24.9435 55.2843 24.6062C55.7528 24.2689 56.2401 23.7441 56.4087 23.0694C56.5025 22.7696 56.5399 22.4884 56.6336 22.301C56.7086 22.1136 56.8585 21.9449 57.0647 21.7388C57.2708 21.5326 57.477 21.1953 57.5332 20.9142C57.6269 20.6143 57.6457 20.3519 57.6832 20.1083C57.8143 19.0775 57.7769 18.1405 57.6644 17.3533C57.4208 15.7978 56.9335 14.9544 56.8398 14.9919C56.7273 15.0294 57.0272 15.929 57.1209 17.4095C57.1771 18.1405 57.1584 19.04 56.9897 19.9958C56.9523 20.2395 56.896 20.4831 56.8398 20.6893C56.7648 20.9142 56.6899 21.0454 56.5025 21.2328C56.3338 21.4202 56.0714 21.6638 55.9402 22.0012C55.809 22.3198 55.7528 22.6196 55.6778 22.8633C55.4342 23.8191 54.3847 24.2876 53.5413 24.8873C52.698 25.4683 52.0045 26.0868 51.4423 26.6303C50.9363 27.1363 50.5615 27.5861 50.3178 27.9234C50.4303 27.4924 50.5427 27.0613 50.524 26.5553C50.5052 26.2554 50.4303 25.8993 50.2429 25.637C50.0742 25.3559 49.8493 25.1684 49.6431 24.9998C49.2308 24.6812 48.8185 24.4375 48.5936 24.1564C48.3687 23.8753 48.3875 23.6316 48.5187 23.1631C48.5749 22.9382 48.6124 22.6571 48.5374 22.3572C48.4624 22.0761 48.2938 21.8325 48.1251 21.6826C47.7503 21.3452 47.3567 21.1953 46.9819 21.0454C46.6258 20.9329 46.2697 20.8017 45.9324 20.6893C45.2577 20.4644 44.658 20.277 44.0957 20.0895C41.8843 19.3774 40.6661 19.0213 40.6286 19.0963C40.6098 19.1712 41.7905 19.6772 43.9458 20.5019C44.4893 20.708 45.089 20.9329 45.745 21.1953C46.3822 21.4577 47.188 21.6451 47.6753 22.1136C47.9002 22.3572 47.9564 22.5821 47.844 22.9757C47.7878 23.1819 47.7128 23.4068 47.7128 23.7254C47.7128 24.0252 47.844 24.3438 48.0127 24.5687C48.3687 25.0185 48.8185 25.2621 49.1559 25.562C49.512 25.8619 49.7181 26.143 49.7181 26.5553C49.7369 26.9676 49.5682 27.4549 49.4182 27.9796C49.2683 28.5044 49.1184 29.0104 48.931 29.5352C48.5749 30.5659 48.0876 31.6154 47.3754 32.4775C47.3005 32.5712 47.2068 32.6462 47.1131 32.7399C47.0943 32.7024 47.0756 32.665 47.0568 32.6275C46.9819 32.4775 46.9631 32.2339 47.0194 31.934C47.0756 31.6529 47.3192 31.2968 47.4504 30.7346C47.5066 30.4535 47.5066 30.0599 47.3005 29.7413C47.1131 29.4227 46.8319 29.2353 46.5883 29.0666C46.3447 28.898 46.1198 28.7668 45.9886 28.6356C45.8387 28.5044 45.8199 28.3919 45.8012 28.2608C45.8012 28.1108 45.8949 27.9047 45.9511 27.661C46.0261 27.4361 46.0261 27.0988 45.8949 26.8739C45.6513 26.4241 45.2577 26.3117 45.014 26.3117C44.7517 26.3117 44.658 26.4428 44.6767 26.4803C44.6954 26.5366 44.8079 26.5366 44.9766 26.6115C45.1265 26.6677 45.3514 26.8364 45.4076 27.0801C45.4451 27.1925 45.4264 27.2862 45.3514 27.4736C45.2952 27.6423 45.164 27.8484 45.089 28.1858C45.0328 28.5231 45.2015 28.9542 45.4451 29.1791C45.6887 29.4227 45.9324 29.5539 46.1573 29.7038C46.3822 29.8538 46.5508 29.985 46.6445 30.1349C46.7382 30.2661 46.757 30.416 46.7382 30.6221C46.7008 31.0157 46.4759 31.428 46.4759 31.8966C46.4571 32.3089 46.6071 32.6837 46.8132 32.8524C46.8694 32.8898 46.9069 32.9086 46.9444 32.9273C46.682 33.171 46.4009 33.3959 46.0823 33.5833C45.595 33.8644 45.0328 34.0518 44.4143 34.2392C43.7959 34.4266 43.1399 34.5953 42.4652 34.9326C42.2778 35.0264 42.1091 35.1388 41.9217 35.2512C41.8843 35.0264 41.8843 34.6515 41.5844 34.2017C41.2845 33.7707 40.7035 33.4896 40.1038 33.3959C39.4854 33.2834 38.8669 33.3396 38.2859 33.2272C38.0048 33.171 37.7612 33.0773 37.555 32.9461C37.3676 32.8149 37.1614 32.59 36.9178 32.3838C36.393 31.9528 35.7746 31.8591 35.3061 31.8966C34.3128 31.9903 33.9379 32.5525 34.0129 32.6087C34.0879 32.7024 34.5377 32.3838 35.3061 32.4401C35.6809 32.4775 36.1307 32.6087 36.468 32.9273C36.6554 33.096 36.8241 33.3396 37.124 33.5645C37.4238 33.7894 37.7986 33.9206 38.1547 33.9956C38.8669 34.1268 39.5041 34.0518 40.0101 34.108C40.5349 34.1643 40.9472 34.3142 41.1721 34.5578C41.4157 34.8015 41.5094 35.1388 41.6406 35.345C41.6594 35.3824 41.6781 35.4012 41.6781 35.4199C41.322 35.6823 41.0034 35.9822 40.7223 36.3195C39.7665 37.4815 39.2605 38.9245 38.9231 40.3489C38.7732 41.0798 38.6607 41.8107 38.567 42.5416L38.5108 43.1039C38.4921 43.2913 38.4546 43.4599 38.4733 43.7411C38.4733 43.9847 38.5858 44.4157 38.8856 44.6406C39.2042 44.8843 39.5041 44.9218 39.729 44.9405C40.2163 44.9592 40.4224 44.9405 40.6661 45.0342C40.891 45.1279 41.1159 45.2966 41.3033 45.5402C41.6031 45.915 41.8655 46.4023 42.1279 46.9271C41.6781 46.9083 41.0784 46.7584 40.235 46.7209C39.804 46.7022 39.2792 46.7771 38.7919 47.077C38.3234 47.3769 38.0048 47.8079 37.63 47.9204C37.2552 48.0515 36.7679 47.9204 36.2806 47.658C35.8121 47.4143 35.2873 47.0583 34.7438 46.7397C34.5189 46.6085 34.3128 46.4773 34.1066 46.3461C34.1441 46.3648 34.1816 46.3648 34.2003 46.3648C34.294 46.2899 33.7693 45.7839 33.5819 44.7718C33.5444 44.5282 33.5256 44.2471 33.5256 43.9097C33.5256 43.5911 33.4694 43.1976 33.3944 42.8227C33.2445 42.1106 32.9821 41.3234 33.2633 40.7424C33.3195 40.5925 33.4694 40.4051 33.5631 40.124C33.6568 39.8241 33.6006 39.4868 33.4694 39.2619C33.207 38.8121 32.8884 38.5685 32.701 38.3248C32.3262 37.8563 32.2137 37.1816 32.0451 36.6568C31.8951 36.1133 31.6702 35.6636 31.4079 35.4199C31.1642 35.1763 30.9581 35.1388 30.9393 35.1763C30.9019 35.2325 31.033 35.345 31.1642 35.5886C31.2954 35.8322 31.4266 36.2258 31.5016 36.7693C31.614 37.294 31.6328 38.0062 32.12 38.7371C32.3637 39.0745 32.6635 39.3369 32.776 39.5992C32.8322 39.7304 32.8322 39.8054 32.8135 39.9178C32.776 40.0303 32.6635 40.1989 32.5511 40.4238C32.3262 40.9111 32.3262 41.4171 32.4012 41.8482C32.4761 42.2792 32.5886 42.6541 32.6823 42.9914C32.8884 43.6473 32.8509 44.2846 33.0384 44.8843C33.282 45.6152 33.6381 46.0275 33.9005 46.2336C33.6568 46.0837 33.4132 45.9338 33.1883 45.8026C32.6823 45.5027 32.2325 45.2216 31.9514 44.8843C31.8014 44.7156 31.7077 44.5282 31.6702 44.3408C31.614 44.1346 31.614 43.8722 31.5391 43.6099C31.4079 43.0101 30.9393 42.6353 30.527 42.4479C29.6649 42.0731 28.9153 42.298 28.4842 42.4104C28.0344 42.5416 27.8095 42.6728 27.8283 42.7103C27.847 42.7665 28.0907 42.7478 28.5405 42.6915C28.9715 42.6541 29.6462 42.5791 30.2646 42.9164C30.5645 43.0851 30.8456 43.3662 30.9019 43.7411C30.9393 43.9285 30.9393 44.1721 30.9768 44.472C31.033 44.7718 31.1642 45.0717 31.3704 45.3341C31.764 45.8401 32.2887 46.1587 32.776 46.4585C33.282 46.7584 33.788 47.077 34.3128 47.3956C34.8563 47.7142 35.3435 48.0328 35.9058 48.3139C36.4493 48.5763 37.1427 48.8012 37.8174 48.5576C38.4921 48.2952 38.7732 47.7892 39.0918 47.583C39.4104 47.3581 39.804 47.2644 40.1975 47.2457C40.9659 47.2082 41.6594 47.2832 42.1279 47.2082C42.1654 47.2082 42.2029 47.1895 42.2403 47.1895C42.2778 47.2644 42.3153 47.3394 42.3715 47.4143C42.4277 47.5081 42.4652 47.583 42.5215 47.6767C42.5777 47.7517 42.6339 47.8454 42.7276 47.9766C42.8963 48.2015 43.1024 48.3514 43.3086 48.4826C43.7022 48.7262 44.0957 48.8574 44.3956 49.0261C44.7142 49.176 44.9391 49.3447 44.9953 49.4946C45.0328 49.5696 45.0515 49.682 45.0515 49.8132C45.0515 50.0381 45.0703 50.338 45.1452 50.5816C45.4638 51.5749 46.1573 52.1184 46.4759 52.6806C46.6258 52.9618 46.6633 53.1304 46.5883 53.3179C46.5696 53.4116 46.4759 53.5428 46.4009 53.6552C46.3072 53.7676 46.176 53.8988 46.101 53.9551C45.7075 54.2362 44.9391 54.3111 44.2644 54.2549C43.927 54.2362 43.571 54.1612 43.2524 54.0862C42.9712 54.0113 42.5402 53.8426 42.1279 53.7676C41.7156 53.6927 41.2845 53.6552 40.8347 53.7114C40.3849 53.7676 39.8977 53.9551 39.5229 54.3299C39.148 54.7047 38.9981 55.2295 38.9793 55.6605C38.9606 56.0916 38.9981 56.4664 39.0168 56.785C39.0356 57.4035 38.8482 57.9095 38.4359 58.378C38.3984 58.4342 38.3421 58.4717 38.3047 58.5092C38.3421 58.3593 38.3421 58.1531 38.2484 57.9469C38.1547 57.722 37.9861 57.5534 37.8174 57.3847C37.48 57.0661 37.3676 56.71 37.4426 56.1291C37.48 55.8479 37.555 55.5855 37.63 55.2107C37.6675 55.0233 37.7049 54.7609 37.555 54.4611C37.3863 54.1612 37.1427 54.0675 37.0115 53.9738C36.4493 53.5615 35.887 53.1867 35.381 52.8681C35.1374 52.6994 34.95 52.5307 34.875 52.3808C34.8375 52.3058 34.8188 52.1934 34.7813 52.0434C34.7438 51.8935 34.6501 51.7061 34.5377 51.5937C34.294 51.3688 34.0129 51.3125 33.788 51.3125C33.5631 51.3125 33.3944 51.3875 33.2633 51.4437C33.0009 51.5562 32.9072 51.6686 32.9072 51.7061C32.9259 51.7623 33.0758 51.7436 33.3382 51.7248C33.5819 51.7061 33.9567 51.7061 34.1441 51.9497C34.2378 52.0434 34.1816 52.1934 34.294 52.6057C34.4252 52.9805 34.7251 53.2242 34.95 53.4116C35.456 53.7864 36.0182 54.1987 36.618 54.6297C36.7866 54.7235 36.8803 54.7984 36.8803 54.8172C36.8991 54.8359 36.9178 54.9296 36.8803 55.0795C36.8241 55.3606 36.7491 55.7355 36.7304 56.0728C36.7117 56.4102 36.7491 56.7663 36.8803 57.0849C37.0115 57.4035 37.2552 57.6471 37.4426 57.7783C37.8361 58.0594 37.9861 58.2468 38.0048 58.4904C38.0235 58.6966 37.9111 58.7903 37.9486 58.8465C37.9486 58.8465 37.9486 58.8465 37.9673 58.8465C37.6675 59.1277 37.3114 59.3713 36.974 59.6337C36.4305 60.0272 35.8496 60.4395 35.3435 60.9456C35.0812 61.2079 34.8375 61.4703 34.6501 61.7889C34.4252 62.1075 34.3128 62.4261 34.1628 62.6323C34.0129 62.8572 33.9192 62.9321 33.713 62.9884C33.5069 63.0446 33.2258 63.0258 32.9259 63.0071C32.6261 62.9696 32.2325 62.9696 31.8764 63.0258C31.5203 63.0821 31.1642 63.2132 30.8644 63.3819C29.6462 64.0941 28.9715 65.2373 28.503 66.2868C28.0344 67.3363 27.6784 68.3484 27.1536 69.1542C26.8725 69.5478 26.5726 69.8851 26.2165 70.1663C25.8417 70.4474 25.4294 70.691 25.0358 71.0096C24.6423 71.3095 24.2862 71.7218 24.08 72.1716C23.8551 72.6214 23.7614 73.0712 23.7052 73.4835C23.5928 74.3268 23.5928 75.0952 23.4803 75.7512C23.3679 76.4259 23.143 76.9694 22.8056 77.3817C22.1122 78.225 21.2126 78.4874 20.6316 78.5624C20.0506 78.6373 19.732 78.5436 19.7133 78.5998C19.6946 78.6186 20.0132 78.7873 20.6504 78.7873C21.2688 78.7873 22.2809 78.5811 23.143 77.6628C23.574 77.213 23.8739 76.557 24.0238 75.8261C24.1737 75.114 24.2112 74.3268 24.3424 73.5584C24.4736 72.7713 24.7735 72.0404 25.4856 71.5531C25.8417 71.2907 26.254 71.0658 26.6663 70.766C27.0974 70.4661 27.4909 70.0538 27.8095 69.604C28.4467 68.7044 28.8403 67.6362 29.3088 66.6429C29.7586 65.6684 30.4146 64.6938 31.3329 64.2065C31.5578 64.0941 31.8014 64.0004 32.0451 63.9629C32.2887 63.9254 32.5323 63.9442 32.8509 63.9629C32.9821 63.9816 33.1321 63.9816 33.282 64.0004C33.3007 64.1128 33.3382 64.244 33.4132 64.394C33.6006 64.8812 34.0879 65.4809 34.7438 66.0807C35.3998 66.6804 36.2431 67.3176 36.6929 68.2734C36.8991 68.7419 36.9366 69.2479 36.7117 69.7727C36.5242 70.3162 36.0744 70.841 35.9807 71.7031C35.9433 72.1341 36.0932 72.5839 36.3743 72.9025C36.6742 73.2211 37.049 73.371 37.3676 73.4835C38.0235 73.6709 38.6233 73.7459 39.0918 73.9333C40.0289 74.2894 40.2163 75.4326 40.0663 76.1822C39.8977 76.9881 39.5041 77.5878 39.2605 78.0001C38.9981 78.4124 38.8669 78.6561 38.9231 78.6936C38.9606 78.731 39.1668 78.5436 39.5041 78.1688C39.8227 77.794 40.3287 77.213 40.5911 76.2947C40.7223 75.8261 40.7598 75.2826 40.5911 74.7204C40.4599 74.1582 40.0101 73.5584 39.3729 73.2961C38.7732 73.0149 38.136 72.94 37.5925 72.7713C37.0303 72.6026 36.6929 72.2653 36.7304 71.7593C36.7679 71.2533 37.1614 70.691 37.4051 70.0351C37.5363 69.7165 37.6112 69.3417 37.5925 68.9668C37.5738 68.6107 37.4613 68.2734 37.3301 67.9735C36.7304 66.8116 35.7558 66.1931 35.0999 65.6684C34.4065 65.1436 33.9379 64.6563 33.6756 64.2628C33.6193 64.1691 33.5631 64.0754 33.5256 64.0004C33.6568 64.0004 33.8068 63.9816 33.9754 63.9442C34.4065 63.8692 34.8375 63.5131 35.0437 63.1758C35.2686 62.8384 35.3623 62.5386 35.531 62.3324C35.6809 62.0888 35.887 61.8826 36.0932 61.6577C36.5242 61.2267 37.0677 60.8518 37.63 60.4583C38.1922 60.0647 38.7919 59.6337 39.3167 59.034C39.3729 58.9777 39.4104 58.9028 39.4666 58.8278C39.5228 58.9215 40.0663 58.6779 40.7785 59.0527C40.9472 59.1464 41.1159 59.2776 41.247 59.4462C41.3782 59.6149 41.4532 59.8023 41.5282 60.0835C41.6031 60.3458 41.6594 60.6832 41.8093 61.0393C41.8842 61.2267 42.0154 61.4141 42.2029 61.564C42.3903 61.714 42.6339 61.8077 42.8401 61.8451C43.2711 61.9201 43.5897 61.8826 43.8146 61.9389C44.0208 61.9951 44.1707 62.1263 44.2831 62.3511C44.5268 62.8009 44.6392 63.3819 44.9391 63.813C45.2389 64.2253 45.5763 64.4502 45.8012 64.5814C46.0261 64.7126 46.176 64.75 46.1947 64.7126C46.2322 64.6751 46.1385 64.5439 45.9886 64.3565C45.8387 64.1691 45.5763 63.8879 45.4076 63.5319C45.2202 63.1758 45.1827 62.6698 44.9016 62.0326C44.7704 61.714 44.4331 61.3391 44.002 61.2267C43.5897 61.1142 43.2336 61.1517 42.9712 61.1142C42.7276 61.0767 42.5964 60.9643 42.484 60.7207C42.3715 60.4958 42.2966 60.1772 42.2029 59.8773C42.1091 59.5774 41.9405 59.2401 41.7156 59.0152C41.4907 58.7903 41.2283 58.6404 40.9847 58.5467C40.4787 58.378 40.0476 58.4342 39.7852 58.5467C39.6915 58.5842 39.6166 58.6216 39.5603 58.6591C39.9352 58.0969 40.1788 57.3847 40.1413 56.71C40.1038 55.9229 40.0476 55.3232 40.3662 55.042C40.6473 54.7422 41.3033 54.6672 41.9405 54.7984C42.2778 54.8546 42.5402 54.9858 42.9712 55.0983C43.3648 55.2107 43.7771 55.2857 44.1894 55.3044C44.6017 55.3419 45.014 55.3419 45.4451 55.2857C45.8761 55.2295 46.3259 55.117 46.7757 54.7984C47.0194 54.6297 47.1318 54.4611 47.3005 54.2737C47.4317 54.0675 47.6003 53.8801 47.6753 53.599C47.6753 53.5802 47.6753 53.5615 47.694 53.5427C47.8815 53.4678 48.0876 53.3928 48.3125 53.2991C48.7998 53.0742 49.4932 52.9243 50.0742 52.2309C50.2054 52.0622 50.3366 51.8373 50.3741 51.5937C50.4303 51.35 50.4115 51.1251 50.4115 50.9564C50.4303 50.6004 50.4678 50.5441 50.8426 50.3567C51.0113 50.2818 51.2174 50.2068 51.4423 50.0756C51.6672 49.9444 51.8359 49.757 51.9858 49.5883C52.2669 49.2135 52.4356 48.8574 52.5668 48.5201C52.8292 47.8267 53.0728 47.2082 53.2415 46.6834C53.4101 46.1399 53.4851 45.7276 53.6163 45.4653C53.7287 45.2029 53.8037 45.0529 53.7662 45.0155C53.7287 44.978 53.5601 45.0529 53.3539 45.3153C53.1478 45.5777 52.9604 46.0087 52.7355 46.496C52.4918 46.9833 52.2107 47.5643 51.9296 48.2202C51.7984 48.5576 51.611 48.8762 51.4048 49.1385C51.1987 49.4197 50.9738 49.4946 50.5427 49.682C50.3366 49.7757 50.0742 49.9069 49.9055 50.1693C49.7181 50.4317 49.6994 50.7503 49.6994 50.9564C49.7181 51.4062 49.6994 51.5937 49.5307 51.8373C49.1934 52.3058 48.5561 52.5682 48.0876 52.8306C47.9752 52.8868 47.8627 52.9618 47.769 53.018C47.7503 52.6432 47.6378 52.2871 47.4879 52.0434C47.0006 51.2563 46.4196 50.7503 46.2697 50.2068C46.2322 50.0756 46.2322 49.9819 46.2135 49.8132C46.2135 49.5509 46.1947 49.251 46.0636 48.9886C45.8012 48.4076 45.2952 48.1453 44.9203 47.9578C44.5268 47.7704 44.1894 47.6392 43.9271 47.4706C43.7959 47.3956 43.6834 47.3019 43.6272 47.2269C43.5897 47.1895 43.5522 47.1332 43.496 47.0395C43.4398 46.9646 43.4023 46.8896 43.3648 46.8146C42.99 46.1962 42.6901 45.4653 42.1466 44.7718C41.8655 44.4345 41.4907 44.0971 41.0222 43.9285C40.5536 43.7411 39.9914 43.7785 39.7477 43.7785C39.5978 43.7785 39.5228 43.7411 39.5416 43.7411C39.5416 43.7223 39.5416 43.7785 39.5229 43.6661C39.5229 43.5724 39.5416 43.385 39.5603 43.1976L39.6166 42.6541C39.6728 42.1106 39.7665 41.5671 39.8602 41.0423C40.3287 40.5925 41.1159 40.124 42.2216 39.8804C43.3648 39.618 44.7704 39.6929 46.4009 39.4868C46.6071 39.4493 46.7945 39.4306 47.0568 39.3556C47.3005 39.2806 47.5816 39.0557 47.7128 38.8683C47.8627 38.6622 47.9564 38.531 48.0689 38.4185C48.1813 38.3061 48.3313 38.1936 48.4999 38.1187C49.1746 37.7813 50.0742 37.7438 50.9925 37.6126C51.9108 37.5002 52.7917 37.369 53.6538 37.2566C54.5159 37.1441 55.4342 37.0129 56.1838 36.4507C56.3713 36.3195 56.5212 36.1696 56.6524 36.0009C56.7648 35.9822 56.896 35.9634 57.0647 36.0009C57.2896 36.0196 57.5707 36.1134 57.8518 36.2633C58.1142 36.4132 58.4141 36.6381 58.7139 36.9192C59.0325 37.1816 59.3699 37.4627 59.726 37.6501C60.082 37.8375 60.4569 37.9313 60.738 37.9687C61.319 38.025 61.6563 37.9687 61.6751 37.875C61.6938 37.7626 61.3564 37.6314 60.8692 37.444C60.3632 37.2753 59.8571 36.9192 59.2199 36.3382C58.9013 36.0571 58.5452 35.7947 58.1517 35.6261C57.7581 35.4761 57.3833 35.4199 57.0647 35.4761C57.046 35.4761 57.0085 35.4949 56.9897 35.4949C57.0085 35.4761 57.0085 35.4574 57.0272 35.4199C57.1771 35.0264 57.2521 34.6515 57.3458 34.3142C57.4957 33.6395 57.7581 33.1522 58.2454 32.8711C58.6952 32.5712 59.2199 32.4026 59.6697 32.2152C60.1195 32.0465 60.5131 31.8591 60.813 31.6529C61.4127 31.2406 61.5064 30.8096 61.4689 30.7908C61.4127 30.7533 61.244 31.1094 60.663 31.3905C60.3819 31.5405 60.0071 31.6717 59.5385 31.8028C59.0888 31.934 58.5452 32.0652 57.9643 32.4026C57.6832 32.5525 57.402 32.8149 57.1771 33.1147C56.971 33.4333 56.8398 33.7894 56.7461 34.1455C56.5399 34.8577 56.39 35.5324 55.809 35.9072C55.2468 36.3008 54.4409 36.4319 53.5976 36.5257C52.7355 36.6381 51.8546 36.7505 50.9363 36.863C50.0367 36.9942 49.0996 37.0129 48.2001 37.4627C47.9752 37.5752 47.769 37.7251 47.5816 37.9125C47.3942 38.0999 47.263 38.3248 47.1693 38.456C47.0568 38.6059 47.0006 38.6434 46.8507 38.6997C46.7195 38.7559 46.5133 38.7746 46.3259 38.8121C44.8079 39.037 43.3273 39.0182 42.1091 39.3743C41.1908 39.6367 40.4599 40.0678 39.9914 40.4988C40.2725 39.1869 40.741 37.9313 41.5094 36.9755C41.903 36.4882 42.3715 36.1133 42.8963 35.8322C43.421 35.5511 44.0395 35.3824 44.658 35.1763C45.2764 34.9889 45.9324 34.764 46.5321 34.4079C47.1318 34.0518 47.6378 33.5833 48.0501 33.0773C48.6311 32.3464 49.0434 31.5592 49.362 30.7533C49.4745 30.6784 49.6244 30.5659 49.8868 30.4722C50.3178 30.2848 50.9925 30.2473 51.8359 30.341C52.6792 30.4347 53.7662 30.6409 54.9657 30.5284C55.5841 30.4722 56.1651 30.416 56.8585 30.1911C57.1959 30.0599 57.5332 29.8912 57.8143 29.5352C57.9455 29.3665 58.058 29.1416 58.0767 28.8979C58.0955 28.6731 58.058 28.5419 58.058 28.3545C58.0205 27.9047 58.489 27.5298 59.0138 27.3237C59.5198 27.1175 60.1757 27.0238 60.7567 26.7614C61.0566 26.6303 61.3377 26.4428 61.5626 26.1805C61.7875 25.9181 61.9 25.5807 61.9562 25.2996C62.0311 24.7374 62.0874 24.3438 62.256 23.969C62.5934 23.2193 63.1181 22.7508 63.493 22.4884C63.8865 22.2261 64.1489 22.1323 64.1302 22.0761C64.2051 22.1136 63.9053 22.0949 63.4367 22.301Z" fill="#4B301F"/>
<path d="M31.108 55.4735C31.5578 55.5859 32.1388 55.5859 32.6635 55.3985C33.1695 55.2298 33.4506 55.1548 33.8442 55.2298C34.2378 55.286 34.6126 55.3797 34.9312 55.4547C35.5497 55.6046 35.9432 55.6983 35.9995 55.6046C36.0369 55.5109 35.7183 55.2298 35.1186 54.9487C34.8188 54.7988 34.4439 54.6676 33.9941 54.5551C33.7693 54.4989 33.4881 54.4614 33.207 54.4989C32.9259 54.5364 32.6635 54.6301 32.4386 54.6863C31.614 54.9674 30.7894 54.7238 30.1897 54.5551C29.5899 54.3677 29.1776 54.2365 29.1401 54.349C29.1027 54.4427 29.3838 54.7238 29.9835 55.0611C30.2834 55.1923 30.6395 55.3797 31.108 55.4735Z" fill="#4B301F"/>
</g>
<defs>
<clipPath id="clip0_2884_24097">
<rect width="64" height="64" rx="32" fill="white"/>
</clipPath>
</defs>
</svg>
