<svg width="66" height="64" viewBox="0 0 66 64" fill="none" xmlns="http://www.w3.org/2000/svg">
<path fill-rule="evenodd" clip-rule="evenodd" d="M32 0C49.6579 0 64 14.3354 64 32C64 49.6579 49.6646 64 32 64C14.3354 64 0 49.6646 0 32C0 14.3421 14.3354 0 32 0Z" fill="#FAD6C0"/>
<path fill-rule="evenodd" clip-rule="evenodd" d="M2.13021 20.8075C6.80594 21.0536 12.3659 21.7988 16.1373 20.4416C21.8782 18.3724 20.726 9.73652 30.3655 8.78511C42.6577 8.69862 40.7888 16.769 46.8177 19.1841C50.6226 20.7077 56.6113 20.049 61.7492 20.4948C63.2028 24.1208 64 28.0794 64 32.2177C64 49.7556 49.6646 64.0001 32 64.0001C14.3354 64.0001 0 49.7622 0 32.2177C0.00669876 28.1925 0.75696 24.347 2.13021 20.8075Z" fill="#A96C50"/>
<path fill-rule="evenodd" clip-rule="evenodd" d="M32 8.78442C39.2714 8.78442 45.1764 18.0654 45.1764 29.4903C45.1764 40.922 39.2714 50.1962 32 50.1962C24.7285 50.1962 18.8235 40.9152 18.8235 29.4903C18.8235 18.0654 24.7285 8.78442 32 8.78442Z" fill="#D19072"/>
<path fill-rule="evenodd" clip-rule="evenodd" d="M28.6408 29.0497C28.381 31.8487 26.1944 40.0273 27.0881 43.1267C28.5838 48.3287 32.9126 48.0283 35.0801 47.2501C37.2476 46.4718 40.7145 43.5294 40.0807 38.4707C39.5483 34.2108 35.0738 31.1114 33.0647 27.7663C31.2457 24.7351 28.5394 20.9531 28.0261 18.3862C27.6141 16.3108 28.0071 13.5801 29.9908 12.3785C33.2104 10.4261 36.2589 11.9826 37.3491 14.6382C38.1476 16.5702 38.8385 20.639 36.2399 22.4618C34.7125 23.5336 31.7147 20.2226 31.7147 20.2226C31.7147 20.2226 32.5386 22.9602 34.6808 23.8408C36.2843 24.503 38.2871 23.4995 39.1237 21.4446C39.9539 19.4034 40.087 16.4883 39.1237 13.9692C38.3948 12.0645 36.6012 10.4056 35.0801 9.59319C33.559 8.7808 31.5119 8.52138 29.9908 9.08801C28.4697 9.65464 26.7331 11.3272 25.9472 12.9998C25.1614 14.6792 24.8762 17.13 25.2818 19.144C25.7318 21.3627 28.0831 24.6737 28.6408 26.3258C28.926 27.1791 28.7232 28.1417 28.6408 29.0497Z" fill="#4B301F"/>
</svg>
