<?xml version="1.0" encoding="UTF-8"?>
<svg id="Camada_1" data-name="Camada 1" xmlns="http://www.w3.org/2000/svg" viewBox="0 0 1920 351">
  <defs>
    <style>
      .cls-1 {
        fill: #dab08a;
      }

      .cls-2 {
        fill: #0b0e14;
      }
    </style>
  </defs>
  <path class="cls-1" d="m634.82,127.74c-10.09-6.01-21.34-9.06-33.46-9.06s-23.21,3.05-33.35,9.05c-10.1,5.98-18.19,14.2-24.04,24.43-5.86,10.23-8.83,21.6-8.83,33.79v5.04c0,12.64,2.91,24.17,8.64,34.28,5.75,10.14,13.8,18.27,23.94,24.14,10.1,5.86,21.63,8.89,34.27,9.02.26,0,.51,0,.77,0,11.94,0,22.94-2.89,32.71-8.6,9.97-5.83,17.94-14.02,23.69-24.35,5.71-10.27,8.61-21.88,8.61-34.49v-5.04c0-12.19-3-23.57-8.93-33.81-5.91-10.21-13.99-18.41-24.01-24.39Zm-71.53,63.24v-5.04c0-7.33,1.68-13.94,5.13-20.2,3.44-6.24,7.97-11.03,13.83-14.66,5.77-3.57,11.97-5.31,18.94-5.31s13.39,1.74,19.23,5.32c5.92,3.63,10.5,8.44,14,14.68,3.5,6.25,5.2,12.84,5.2,20.16v5.04c0,7.7-1.7,14.7-5.05,20.82-3.37,6.15-7.84,10.84-13.66,14.34h0c-5.79,3.48-12.12,5.18-19.36,5.18s-13.62-1.7-19.48-5.19c-5.87-3.5-10.36-8.18-13.72-14.32-3.35-6.11-5.05-13.12-5.05-20.82Z"/>
  <path class="cls-1" d="m928.28,120.24h-15l-56.7,136.62h30.02l12.05-26.74h44.08l12.7,26.74h29.94l-57.09-136.62Zm-18.68,83.13l11.14-29.34,11.9,29.34h-23.03Z"/>
  <path class="cls-2" d="m1045.75,120.63h88.58v15.42h-72.37v42.51h54.97v15.42h-54.97v62.48h-16.21V120.63Z"/>
  <path class="cls-2" d="m1222.72,118.75h6.52l58.33,139.6h-17.2l-18.59-43.7h-51.61l-18.19,43.7h-17.2l57.94-139.6Zm5.93,38.95l-1.58-5.14-1.19-4.55-1.38,4.35-1.58,5.34-16.61,42.31h39.15l-16.81-42.31Z"/>
  <path class="cls-2" d="m1525.44,120.63h16.21v135.84h-16.21V120.63Z"/>
  <path class="cls-2" d="m1664.25,118.75h6.52l58.33,139.6h-17.2l-18.59-43.7h-51.61l-18.19,43.7h-17.2l57.94-139.6Zm5.93,38.95l-1.58-5.14-1.19-4.55-1.38,4.35-1.58,5.34-16.61,42.31h39.15l-16.81-42.31Z"/>
  <path class="cls-2" d="m1793.76,120.63h16.21v120.81h66.63v15.03h-82.85V120.63Z"/>
  <path class="cls-1" d="m772.34,178.83v27.1h30.08c-.51,3.64-1.81,7.04-3.93,10.31-2.93,4.51-6.64,7.97-11.35,10.56-4.68,2.58-9.38,3.83-14.38,3.83-8.33,0-15.28-1.76-20.66-5.23-5.46-3.52-9.4-8.07-12.05-13.9-2.76-6.06-4.16-12.85-4.16-20.16-.11-1.32,0-4.22,0-5.56,0-7.31,1.4-14.09,4.16-20.16,2.65-5.83,6.59-10.38,12.05-13.9,5.37-3.47,12.32-5.23,20.66-5.23,5,0,9.7,1.25,14.38,3.83,4.7,2.59,8.42,6.05,11.35,10.56.11.17.21.34.31.51l23.58-14.1c-.05-.09-.1-.17-.15-.26-5.31-8.66-12.5-15.51-21.36-20.36-8.82-4.83-18.39-7.29-28.46-7.29-13.42,0-25.18,3.07-34.95,9.13-9.77,6.06-17.28,14.29-22.3,24.47-4.92,9.96-7.41,21.05-7.41,32.97,0,1.29-.06,3.95,0,5.21,0,11.92,2.49,23.02,7.41,32.97,5.02,10.18,12.53,18.41,22.3,24.47,9.77,6.06,21.53,9.13,34.95,9.13,10.06,0,19.64-2.45,28.46-7.29,8.86-4.85,16.04-11.7,21.36-20.36,5.35-8.72,8.07-18.72,8.07-29.71v-21.55h-57.96Z"/>
  <path class="cls-2" d="m1428.46,236.7c-7.84,4.22-16.38,6.33-25.61,6.33-9.89,0-18.72-2.47-26.5-7.42-7.78-4.94-13.87-11.57-18.29-19.87-4.12-7.74-6.29-16.11-6.57-25.11h0c-.02-.69-.06-1.38-.06-2.08,0-.7.04-1.38.06-2.08h0c.28-9,2.45-17.37,6.57-25.11,4.42-8.3,10.51-14.93,18.29-19.87,7.78-4.94,16.61-7.42,26.5-7.42,9.23,0,17.76,2.11,25.61,6.33,7.84,4.22,14.07,10.21,18.69,17.99l13.25-9.1c-6.2-10.02-14.47-17.57-24.81-22.64-10.35-5.07-21.32-7.61-32.92-7.61-12.65,0-24.09,3.13-34.31,9.39-10.22,6.26-18.23,14.73-24.02,25.41-5.41,9.96-8.29,20.83-8.66,32.63h-.02c-.01.53-.02,1.05-.02,1.58,0,.17,0,.33,0,.49,0,.17,0,.33,0,.49,0,.53.01,1.06.02,1.58h.02c.36,11.79,3.25,22.67,8.66,32.63,5.8,10.68,13.81,19.15,24.02,25.41,10.21,6.26,21.65,9.39,34.31,9.39,11.6,0,22.57-2.54,32.92-7.61,10.35-5.07,18.62-12.62,24.81-22.64l-13.25-9.1c-4.62,7.78-10.84,13.78-18.69,17.99Z"/>
  <polygon class="cls-1" points="509.62 121.81 477.3 121.81 452.81 166.65 428.31 121.81 395.99 121.81 438.78 198.17 438.4 255.3 452.81 255.3 467.21 255.3 466.83 198.17 509.62 121.81"/>
  <path class="cls-2" d="m329.65,102.78c0-29.88-24.31-54.18-54.18-54.18-14.78,0-28.45,5.76-38.69,16.27-17.81-10.65-38.13-16.27-58.87-16.27h-.15c-5.82,0-11.67.45-17.38,1.32-28.93,4.38-54.62,20.63-70.49,44.58-.08.11-.15.22-.25.39-4.02,6.13-7.35,12.68-9.89,19.45-3.98,10.61-6,21.45-6,32.2,0,25.03-11.94,38.08-19.06,43.63-2.62,2.05-4.32,4.89-4.78,8.01-.76,5.18,1.67,10.17,6.2,12.71,2.86,1.61,6.04,3.14,9.14,4.62,2.19,1.05,5.3,2.55,7.27,3.66v6.34c0,2.96-.48,5.61-1.41,7.89-2.3,5.6-1.85,11.98,1.2,17.2.44,3.7,1.88,7.14,4.2,10.04v5.62c0,7.76,3.05,15.07,8.57,20.58,5.52,5.5,12.83,8.52,20.59,8.52h.02c11.88,0,23.68-1.58,35.13-4.67l15.43,33.36c1.25,2.7,3.97,4.44,6.94,4.44,1.52,0,2.99-.45,4.28-1.31,3.09-2.06,4.2-6.23,2.6-9.7l-14.65-31.66c7.43-2.95,14.59-6.54,21.3-10.7,3.41-2.12,4.72-6.51,2.97-10-.97-1.93-2.7-3.37-4.77-3.95-2.07-.58-4.3-.27-6.12.87-18.97,11.79-40.8,18.02-63.13,18.04h0c-3.69,0-7.17-1.44-9.79-4.05-2.63-2.61-4.07-6.08-4.07-9.76v-8.62c0-2.34-.97-4.47-2.65-5.84-1.07-.87-1.68-2.17-1.68-3.55v-.18c0-1.73-.57-3.4-1.62-4.7-.96-1.2-1.17-2.88-.54-4.28,1.68-3.71,2.5-7.96,2.5-13v-10c0-6.72-6.35-9.76-15.96-14.38-1.51-.72-3.05-1.46-4.53-2.2,9.12-8.25,21.72-24.75,21.72-52.98,0-8.91,1.69-17.94,5.03-26.83,1.5-3.99,3.33-7.91,5.44-11.66,22.61,7.32,40.8,24.89,48.84,47.32,5.26,14.68,14.68,28.06,27.23,38.7l9.25,7.84c1.65,1.4,3.83,2.04,5.97,1.75,2.15-.29,4.08-1.48,5.29-3.27l7.75-11.39c2.38-3.49,6.15-5.63,10.1-5.7,3.31-.08,6.42,1.17,8.78,3.49,2.36,2.32,3.66,5.41,3.66,8.71,0,13.22-6,25.45-16.46,33.56-2.95,2.28-6.99,2.91-11.09,1.73-3.97-1.15-8.08,1.03-9.38,4.95-.64,1.93-.46,3.99.51,5.82,1.03,1.94,2.84,3.41,4.98,4.03,6.55,1.89,13.71,1.27,19.83-1.72l21.82,79.03c.91,3.31,3.94,5.62,7.37,5.62.69,0,1.37-.09,2.04-.28,1.97-.54,3.61-1.82,4.62-3.6,1.01-1.78,1.26-3.84.72-5.81l-14.98-54.26c8.56-5.1,42.71-27.51,52.4-65.46.16-.62.41-1.26.68-1.91.09-.23.18-.47.25-.72,2.91-10.27,4.38-20.93,4.38-31.7,0-3.6-.18-7.26-.52-10.9,21.35-7.6,36.1-28.34,36.1-51.08Zm-54.18-38.88c21.44,0,38.88,17.44,38.88,38.88,0,15.48-9.28,29.49-23.34,35.65-4.93-20.9-15.69-40.09-31.25-55.62-3.2-3.2-6.61-6.24-10.17-9.06,7.1-6.37,16.2-9.85,25.87-9.85Zm-33.82,133.53c.47-14.36-9.41-26.86-22.99-29.07-10.54-1.71-21.22,2.86-27.22,11.66l-3.22,4.73-3.09-2.62c-10.19-8.64-17.99-19.84-22.57-32.39-9.27-25.4-28.85-45.19-54.01-54.71,13.63-16.14,32.73-26.75,54.1-29.99,4.97-.75,10.05-1.14,15.11-1.14h.13c26.62,0,51.85,10.56,71.05,29.73,19.23,19.21,29.82,44.47,29.82,71.14,0,9.36-1.28,18.62-3.8,27.54-.08.28-.14.57-.18.85-.1.65-.19,1.22-.33,1.77-7.09,28.5-31.59,47.53-42.24,54.63l-4.52-16.39c8.57-9.92,13.52-22.56,13.95-35.74Z"/>
</svg>