<?xml version="1.0" encoding="utf-8"?>
<!-- Generator: Adobe Illustrator 27.3.1, SVG Export Plug-In . SVG Version: 6.00 Build 0)  -->
<svg version="1.1" id="Camada_1" xmlns="http://www.w3.org/2000/svg" xmlns:xlink="http://www.w3.org/1999/xlink" x="0px" y="0px"
	 viewBox="0 0 200 200" style="enable-background:new 0 0 200 200;" xml:space="preserve">
<style type="text/css">
	.st0{clip-path:url(#SVGID_00000054965623350596130650000013735635820117886858_);}
	.st1{fill:#D9A473;}
	.st2{fill:#634A36;}
	.st3{fill:#6A523E;}
	.st4{fill:#E3BB94;}
	.st5{fill:#E3BB94;stroke:#876241;stroke-width:0.9136;}
	.st6{fill:#635434;}
	.st7{fill:#FFFFFF;}
	.st8{fill:#FFFFFF;filter:url(#Adobe_OpacityMaskFilter);}
	.st9{mask:url(#mask0_3823_26659_00000096738364466963027690000017521869742058611602_);}
	.st10{fill:#556611;}
	.st11{fill:#2D3609;}
	.st12{fill:#634E42;}
	.st13{fill:#FFFFFF;filter:url(#Adobe_OpacityMaskFilter_00000152950653715666830690000010601320717558749869_);}
	.st14{mask:url(#mask1_3823_26659_00000053515605082832395840000010079999767957371578_);}
	.st15{fill:#C2A17F;}
	.st16{fill:#A8414A;}
	.st17{fill:#B54650;}
	.st18{fill:#755D4A;}
	.st19{fill:none;stroke:#825D3C;stroke-width:0.6411;stroke-linecap:round;}
	.st20{fill:none;stroke:#825D3C;stroke-width:1.2182;stroke-linecap:round;}
</style>
<g>
	<defs>
		<rect id="SVGID_1_" x="41.1" y="2.5" width="117.9" height="194.9"/>
	</defs>
	<clipPath id="SVGID_00000153670591192860897510000002168733837167119000_">
		<use xlink:href="#SVGID_1_"  style="overflow:visible;"/>
	</clipPath>
	<g style="clip-path:url(#SVGID_00000153670591192860897510000002168733837167119000_);">
		<path class="st1" d="M127.6,161.5H100H72.4c0,0,9.5,14.8-5.3,35.9H100h32.8C118.1,176.4,127.6,161.5,127.6,161.5z"/>
		<path class="st2" d="M100.4,78.8c24.6,0,44.6-17.1,44.6-38.1c0-21.1-20-38.1-44.6-38.1c-24.6,0-44.6,17.1-44.6,38.1
			C55.8,61.8,75.8,78.8,100.4,78.8z"/>
		<path class="st3" d="M158.9,83c0,37.9-23.5,68.6-58.9,68.6S41.1,120.9,41.1,83c0-37.9,18.8-65.5,58.9-66.6
			C138.5,15.4,158.9,45.1,158.9,83z"/>
		<path class="st4" d="M50.5,104.5c0,0-4.2-7.7-6.1-1.4c-3.4,11.3,4.6,27.4,7.8,29.9C52.5,130.3,50.5,104.5,50.5,104.5z"/>
		<path class="st4" d="M149,104.5c0,0,4.2-7.7,6.1-1.4c3.4,11.3-4.6,27.4-7.8,29.9C147,130.3,149,104.5,149,104.5z"/>
		<path class="st5" d="M111.8,189.5l-0.2,0l-0.1,0.1c-7.2,4.4-16.2,4.4-23.5,0l-0.1-0.1l-0.2,0c-6.4,0.7-11.6-0.5-15.8-3.3
			c-4.3-2.9-7.6-7.4-10.2-13.3c-5.1-11.9-7.1-29.5-7.1-50.5c0-14.7,1.2-27.2,7.1-37c5.9-9.8,16.6-17.1,35.8-21.3l0,0
			c1.4-0.3,2.8-0.3,4.2,0.1l0,0c19.3,4.9,30,12.2,36,21.8c6,9.6,7.2,21.7,7.2,36.4c0,21-0.7,39-5.2,51.1c-2.2,6.1-5.4,10.6-9.9,13.4
			C125.3,189.6,119.5,190.6,111.8,189.5z"/>
		<path class="st4" d="M149.4,112.5c0,42.8-17.7,68.9-37.4,68.9c-7.5,4.5-16.9,4.5-24.4,0c-19.6,0-37.4-26.1-37.4-68.9
			c0-30,7.9-51.1,47.2-59.7c1.5-0.3,3-0.3,4.5,0.1C141.2,62.8,149.4,82.5,149.4,112.5z"/>
		<path class="st6" d="M86.2,115.2c0,0-1.1-5.4-3.2-8.5c-0.9-1.4-4.6-5-12.4-3.6c-7.8,1.3-10.3,6.3-10.3,6.3l23.2,5.9H86.2z"/>
		<path d="M77.7,116.4c3.9,0,7-0.9,8.5-1.2c-2.9-4.7-2.3-9.4-11.8-9.4c-4.3,0-11.8,3-16.7,2.7c1.8,2.4,8.8,5.7,12.3,6.7
			C72.4,115.9,74.5,116.4,77.7,116.4z"/>
		<path class="st7" d="M77.7,116.4c3.9,0,7-0.9,8.5-1.2c-2.9-4.7-4.2-8.9-12.1-8.4c-3.1,0.2-8.2,1.8-12.5,3c1.8,2.4,4.9,4.5,8.4,5.5
			C72.4,115.9,74.5,116.4,77.7,116.4z"/>
		<defs>
			<filter id="Adobe_OpacityMaskFilter" filterUnits="userSpaceOnUse" x="68.1" y="103.4" width="12.5" height="12.7">
				<feColorMatrix  type="matrix" values="1 0 0 0 0  0 1 0 0 0  0 0 1 0 0  0 0 0 1 0"/>
			</filter>
		</defs>
		
			<mask maskUnits="userSpaceOnUse" x="68.1" y="103.4" width="12.5" height="12.7" id="mask0_3823_26659_00000096738364466963027690000017521869742058611602_">
			<path class="st8" d="M77.7,116.4c3.9,0,7-0.9,8.5-1.2c-2.9-4.7-4.2-8.9-12.1-8.4c-3.1,0.2-8.2,1.8-12.5,3
				c1.8,2.4,4.9,4.5,8.4,5.5C72.4,115.9,74.5,116.4,77.7,116.4z"/>
		</mask>
		<g class="st9">
			<path class="st10" d="M74.4,115.5c3.1,0,5.7-2.6,5.7-5.8s-2.5-5.8-5.7-5.8c-3.1,0-5.7,2.6-5.7,5.8S71.2,115.5,74.4,115.5z"/>
			<path class="st11" d="M68.1,109.7c0-3.5,2.8-6.4,6.3-6.4c3.4,0,6.3,2.9,6.3,6.4s-2.8,6.4-6.3,6.4
				C70.9,116.1,68.1,113.3,68.1,109.7z M69.3,109.7c0,2.9,2.3,5.2,5.1,5.2c2.8,0,5.1-2.3,5.1-5.2c0-2.9-2.3-5.2-5.1-5.2
				C71.6,104.5,69.3,106.9,69.3,109.7z"/>
			<path d="M74.4,111.9c1.2,0,2.1-1,2.1-2.2s-1-2.2-2.1-2.2c-1.2,0-2.1,1-2.1,2.2S73.2,111.9,74.4,111.9z"/>
			<path class="st7" d="M76.5,112.2c0.6,0,1.2-0.5,1.2-1.2c0-0.7-0.5-1.2-1.2-1.2c-0.6,0-1.2,0.5-1.2,1.2
				C75.4,111.7,75.9,112.2,76.5,112.2z"/>
		</g>
		<path class="st12" d="M84.4,96.8c-7.3,2.7-12.4-2.6-20.8-0.2c-7.4,2.4-5.5,3-6.8,3.8c-1.6-2.4,4-9,20.4-8.4
			C84.3,92.4,92.5,90,84.4,96.8z"/>
		<path class="st12" d="M115.2,96.5c7.2,2.9,12.5-2.3,20.8,0.3c7.3,2.6,5.4,3.2,6.7,4c1.7-2.4-3.8-9.1-20.2-8.9
			C115.4,92.1,106,88.8,115.2,96.5z"/>
		<path class="st6" d="M113.4,115.2c0,0,1.1-5.4,3.2-8.5c0.9-1.4,4.6-5,12.4-3.6c7.8,1.3,10.3,6.3,10.3,6.3l-23.2,5.9H113.4z"/>
		<path d="M121.9,116.4c-3.9,0-7-0.9-8.5-1.2c2.9-4.7,2.3-9.4,11.8-9.4c4.3,0,11.8,3,16.7,2.7c-1.8,2.4-8.8,5.7-12.3,6.7
			C127.2,115.9,125.1,116.4,121.9,116.4z"/>
		<path class="st7" d="M121.9,116.4c-3.9,0-7-0.9-8.5-1.2c2.9-4.7,4.2-8.9,12.1-8.4c3.1,0.2,8.2,1.8,12.5,3
			c-1.8,2.4-4.9,4.5-8.4,5.5C127.2,115.9,125.1,116.4,121.9,116.4z"/>
		<defs>
			
				<filter id="Adobe_OpacityMaskFilter_00000001660313197665195790000008075417940262627002_" filterUnits="userSpaceOnUse" x="119" y="103.4" width="12.5" height="12.7">
				<feColorMatrix  type="matrix" values="1 0 0 0 0  0 1 0 0 0  0 0 1 0 0  0 0 0 1 0"/>
			</filter>
		</defs>
		
			<mask maskUnits="userSpaceOnUse" x="119" y="103.4" width="12.5" height="12.7" id="mask1_3823_26659_00000053515605082832395840000010079999767957371578_">
			<path style="fill:#FFFFFF;filter:url(#Adobe_OpacityMaskFilter_00000001660313197665195790000008075417940262627002_);" d="
				M121.9,116.4c-3.9,0-7-0.9-8.5-1.2c2.9-4.7,4.2-8.9,12.1-8.4c3.1,0.2,8.2,1.8,12.5,3c-1.8,2.4-4.9,4.5-8.4,5.5
				C127.2,115.9,125.1,116.4,121.9,116.4z"/>
		</mask>
		<g class="st14">
			<path class="st10" d="M125.2,115.5c3.1,0,5.7-2.6,5.7-5.8s-2.5-5.8-5.7-5.8c-3.1,0-5.7,2.6-5.7,5.8S122.1,115.5,125.2,115.5z"/>
			<path class="st11" d="M125.2,116.1c-3.4,0-6.3-2.9-6.3-6.4c0-3.5,2.8-6.4,6.3-6.4c3.4,0,6.3,2.9,6.3,6.4
				C131.5,113.3,128.7,116.1,125.2,116.1z M125.2,104.5c-2.8,0-5.1,2.3-5.1,5.2c0,2.9,2.3,5.2,5.1,5.2s5.1-2.3,5.1-5.2
				C130.3,106.9,128.1,104.5,125.2,104.5z"/>
			<path d="M125.2,111.9c1.2,0,2.1-1,2.1-2.2s-1-2.2-2.1-2.2c-1.2,0-2.1,1-2.1,2.2S124.1,111.9,125.2,111.9z"/>
			<path class="st7" d="M124.3,111c0,0.7-0.5,1.2-1.2,1.2c-0.6,0-1.2-0.5-1.2-1.2c0-0.7,0.5-1.2,1.2-1.2
				C123.7,109.8,124.3,110.3,124.3,111z"/>
		</g>
		<path class="st15" d="M100,138.7c-3.3,0.1-6.4-0.5-9.2-1.5c3.5,2.7,5.3,5.5,9.2,5.5c3.9,0,7.1-4.3,9.2-5.5
			C106.6,137.8,103.6,138.6,100,138.7z"/>
		<path class="st7" d="M99.9,159.1c7.4,0,13.3-1.3,13.3-2.9s-6-2.9-13.3-2.9c-7.4,0-13.3,1.3-13.3,2.9S92.5,159.1,99.9,159.1z"/>
		<path class="st16" d="M80.3,153.7c4.6,5.5,9.2,11.7,19.5,12.2c9.9,0.5,15-6.7,19.7-12.2c-8.6,4.6-12.8,4.9-19.4,4.8
			C91.8,158.5,90.1,156.3,80.3,153.7z"/>
		<path class="st17" d="M99.6,151.1c-1.6,0-3.1-0.6-5.7-0.6c-5.2,0.1-6.6,5.2-13.7,3.2c2.3,1.9,9.6,2.8,16.1,1.7
			c2.1-0.4,4.2-0.3,6.3,0.2c6.5,1.4,12.6,2.4,16.8-1.9c-6.2,2.1-8.4-1.8-14.5-3C103.4,150.4,100.7,151.1,99.6,151.1z"/>
		<path class="st18" d="M52.5,72.6C52.8,67.3,63.1,62,67.1,60c4.2-2.1,8.2-4.5,12.6-6.3c2.6-1.1,9.3-2.4,9.3-6.2
			c-4.1-1.7-8.9,0.1-13.1-0.5c1.2-1.7,4.1-2.8,6.2-3.5c-4.7-7.2-14,3.2-19,3.6c-2.5-7.5,16.1-11,18.7-16.1c-1.4-1.5-4.2-1.7-6.2-1.1
			c-3.4-1.1-10.5,5.7-13.4,7.8c-4.4,3.2-10.8,8.8-10.6,15c2.3,0.4,6.9-3.6,4.7,1.4c-1,2.2-4.5,4.1-6.1,6c-2,2.5-4,6.2-3.5,9.6
			C47.1,72.2,50.1,76.1,52.5,72.6z"/>
		<path class="st18" d="M112.5,45.9c6.3-0.6,13.6,5.7,19,8.5c6.4,3.4,10.1,10.4,15.8,14c-1.4-7.9-5.8-12-10-17.9
			c2.7-0.5,6.7,1.9,8.9,3.5c-0.5-7-4.2-8.6-7.9-13.7c2.9-0.6,5.3,2.4,7.9,3.1c0.8-6.1-15.5-12.4-19.9-13.3c0.1,3.8,6.4,4.1,7.1,7.6
			c-2.7,0.1-5.4-0.1-8.1-0.3c2.3,2,6.8,5.2,7.1,8.5c-4.8-2-13.7-4.5-19-3.9C109.6,42.5,109.6,44.1,112.5,45.9z"/>
		<path class="st4" d="M100.3,54.1c-0.4-1.2-0.9-2.5-1-3.8c-0.1-0.7,0-1.3,0-2l0.1-2c0-1.3,0.2-2.6,0-3.9c-0.1-1.3-0.7-2.5-1.4-3.6
			l0,0v0c0.1-0.8,0.3-1.6,0.5-2.4c0.2-0.8,0.5-1.6,0.8-2.4c0.6-1.6,0.9-3.2,0.9-4.8c0-1.7-0.1-3.3-0.4-4.9c-0.1-0.8-0.3-1.6-0.6-2.4
			c-0.1-0.4-0.3-0.8-0.4-1.2c-0.2-0.4-0.4-0.7-0.7-1c0.3,0.3,0.5,0.6,0.7,1c0.2,0.4,0.3,0.8,0.5,1.2c0.3,0.8,0.4,1.6,0.6,2.4
			c0.3,1.6,0.4,3.3,0.4,5c0,1.7-0.3,3.3-0.9,4.9c-0.3,0.8-0.5,1.6-0.8,2.4c-0.2,0.8-0.4,1.6-0.5,2.4l0-0.1c0.8,1.1,1.4,2.3,1.5,3.6
			c0.1,1.3,0,2.6,0,3.9l0,2c0,0.7,0,1.3,0,2c0.1,1.3,0.6,2.5,1,3.7L100.3,54.1z"/>
		<path class="st19" d="M85.9,140.8c-1.9,5-7.3,15.3-13.6,17"/>
		<path class="st19" d="M116.6,141.2c2.2,4.8,8.2,14.8,14.6,16.2"/>
		<path class="st20" d="M83.3,179.2c1.3,0.3,4.4,1,6.4,1c3,1.7,11,4,19.2,0c1.7,0,5.4-0.2,6.4-1"/>
		<path class="st20" d="M89.7,174.1c3,1.7,11,4,19.2,0"/>
	</g>
</g>
</svg>
