<?xml version="1.0" encoding="utf-8"?>
<!-- Generator: Adobe Illustrator 27.3.1, SVG Export Plug-In . SVG Version: 6.00 Build 0)  -->
<svg version="1.1" id="Camada_1" xmlns="http://www.w3.org/2000/svg" xmlns:xlink="http://www.w3.org/1999/xlink" x="0px" y="0px"
	 viewBox="0 0 200 200" style="enable-background:new 0 0 200 200;" xml:space="preserve">
<style type="text/css">
	.st0{clip-path:url(#SVGID_00000119113192504348328870000001998001104942300572_);}
	.st1{fill:#D9A473;}
	.st2{fill:#634A36;}
	.st3{fill:#6A523E;}
	.st4{fill:#E3BB94;}
	.st5{fill:#635434;}
	.st6{fill:#FFFFFF;}
	.st7{fill:#FFFFFF;filter:url(#Adobe_OpacityMaskFilter);}
	.st8{mask:url(#mask0_3823_26711_00000036238524520130263440000002850339850457930886_);}
	.st9{fill:#556611;}
	.st10{fill:#2D3609;}
	.st11{fill:#634E42;}
	.st12{fill:#FFFFFF;filter:url(#Adobe_OpacityMaskFilter_00000071526063695575854850000008595360425093161879_);}
	.st13{mask:url(#mask1_3823_26711_00000091017035560040771300000006878069114852850055_);}
	.st14{fill:#C2A17F;}
	.st15{fill:#A8414A;}
	.st16{fill:#B54650;}
	.st17{fill:#755D4A;}
	.st18{fill:none;stroke:#A07C59;stroke-width:0.9143;stroke-linecap:round;}
	.st19{fill:none;stroke:#A07C59;stroke-width:1.4066;stroke-linecap:round;}
	.st20{fill:none;stroke:#A07C59;stroke-width:1.0549;stroke-linecap:round;}
	.st21{fill:none;stroke:#A07C59;stroke-width:0.8791;stroke-linecap:round;}
</style>
<g>
	<defs>
		<rect id="SVGID_1_" x="2.5" y="2.5" width="195" height="195"/>
	</defs>
	<clipPath id="SVGID_00000120530803886202766780000015411518305171717289_">
		<use xlink:href="#SVGID_1_"  style="overflow:visible;"/>
	</clipPath>
	<g style="clip-path:url(#SVGID_00000120530803886202766780000015411518305171717289_);">
		<path class="st1" d="M128.3,161.6h-28.1H72c0,0,9.7,14.8-5.4,35.9h33.5h33.5C118.6,176.4,128.3,161.6,128.3,161.6z"/>
		<path class="st2" d="M100.6,78.8c25.1,0,45.5-17.1,45.5-38.2c0-21.1-20.4-38.2-45.5-38.2S55.1,19.6,55.1,40.6
			C55.1,61.7,75.5,78.8,100.6,78.8z"/>
		<path class="st3" d="M160.3,83c0,37.9-23.9,68.7-60.1,68.7S40,120.9,40,83c0-37.9,19.2-65.6,60.1-66.6
			C139.4,15.3,160.3,45.1,160.3,83z"/>
		<path class="st4" d="M49.6,104.5c0,0-4.3-7.7-6.2-1.4c-3.5,11.3,4.7,27.4,8,29.9C51.7,130.3,49.6,104.5,49.6,104.5z"/>
		<path class="st4" d="M150.1,104.5c0,0,4.3-7.7,6.2-1.4c3.5,11.3-4.7,27.4-8,29.9C148.1,130.3,150.1,104.5,150.1,104.5z"/>
		<path class="st4" d="M150.5,112.5c0,42.8-20.4,66.3-38.1,68.9c-7.7,4.5-17.2,4.5-24.9,0c-20,0-38.1-26.1-38.1-68.9
			c0-30,8.1-51.2,48.1-59.8c1.5-0.3,3.1-0.3,4.5,0.1C142.2,62.8,150.5,82.5,150.5,112.5z"/>
		<path class="st5" d="M86.1,115.2c0,0-1.1-5.5-3.3-8.5c-1-1.4-4.6-5-12.6-3.6c-8,1.3-10.5,6.3-10.5,6.3l23.7,5.9H86.1z"/>
		<path d="M77.4,116.4c4,0,7.2-0.9,8.7-1.2c-3-4.7-2.3-9.4-12.1-9.4c-4.3,0-12.1,3-17,2.7c1.8,2.4,8.9,5.7,12.5,6.7
			C72,115.9,74.2,116.4,77.4,116.4z"/>
		<path class="st6" d="M77.4,116.4c4,0,7.2-0.9,8.7-1.2c-3-4.7-4.3-8.9-12.4-8.5c-3.2,0.2-8.4,1.8-12.8,3c1.8,2.4,5,4.5,8.6,5.5
			C72,115.9,74.2,116.4,77.4,116.4z"/>
		<defs>
			<filter id="Adobe_OpacityMaskFilter" filterUnits="userSpaceOnUse" x="67.6" y="103.4" width="12.8" height="12.8">
				<feColorMatrix  type="matrix" values="1 0 0 0 0  0 1 0 0 0  0 0 1 0 0  0 0 0 1 0"/>
			</filter>
		</defs>
		
			<mask maskUnits="userSpaceOnUse" x="67.6" y="103.4" width="12.8" height="12.8" id="mask0_3823_26711_00000036238524520130263440000002850339850457930886_">
			<path class="st7" d="M77.4,116.4c4,0,7.2-0.9,8.7-1.2c-3-4.7-4.3-8.9-12.4-8.5c-3.2,0.2-8.4,1.8-12.8,3c1.8,2.4,5,4.5,8.6,5.5
				C72,115.9,74.2,116.4,77.4,116.4z"/>
		</mask>
		<g class="st8">
			<path class="st9" d="M74,115.5c3.2,0,5.8-2.6,5.8-5.8c0-3.2-2.6-5.8-5.8-5.8c-3.2,0-5.8,2.6-5.8,5.8
				C68.2,113,70.8,115.5,74,115.5z"/>
			<path class="st10" d="M67.6,109.8c0-3.5,2.9-6.4,6.4-6.4c3.5,0,6.4,2.9,6.4,6.4c0,3.5-2.9,6.4-6.4,6.4
				C70.5,116.1,67.6,113.3,67.6,109.8z M68.8,109.8c0,2.9,2.3,5.2,5.2,5.2c2.9,0,5.2-2.3,5.2-5.2c0-2.9-2.3-5.2-5.2-5.2
				C71.1,104.5,68.8,106.9,68.8,109.8z"/>
			<path d="M74,111.9c1.2,0,2.2-1,2.2-2.2c0-1.2-1-2.2-2.2-2.2c-1.2,0-2.2,1-2.2,2.2C71.8,111,72.8,111.9,74,111.9z"/>
			<path class="st6" d="M76.2,112.2c0.7,0,1.2-0.5,1.2-1.2c0-0.7-0.5-1.2-1.2-1.2c-0.7,0-1.2,0.5-1.2,1.2
				C75,111.7,75.5,112.2,76.2,112.2z"/>
		</g>
		<path class="st11" d="M84.3,96.8c-7.4,2.7-12.7-2.6-21.2-0.2c-7.5,2.4-5.6,3.1-6.9,3.8c-1.6-2.4,4.1-9,20.8-8.4
			C84.2,92.4,92.5,90,84.3,96.8z"/>
		<path class="st11" d="M115.6,96.5c7.4,2.9,12.8-2.3,21.2,0.3c7.5,2.6,5.5,3.2,6.8,4c1.7-2.4-3.9-9.1-20.6-8.9
			C115.8,92.1,106.3,88.7,115.6,96.5z"/>
		<path class="st5" d="M113.9,115.2c0,0,1.1-5.5,3.3-8.5c1-1.4,4.6-5,12.6-3.6s10.5,6.3,10.5,6.3l-23.7,5.9H113.9z"/>
		<path d="M122.5,116.4c-4,0-7.2-0.9-8.7-1.2c3-4.7,2.3-9.4,12.1-9.4c4.3,0,12.1,3,17,2.7c-1.8,2.4-8.9,5.7-12.5,6.7
			C127.9,115.9,125.7,116.4,122.5,116.4z"/>
		<path class="st6" d="M122.5,116.4c-4,0-7.2-0.9-8.7-1.2c3-4.7,4.3-8.9,12.4-8.5c3.2,0.2,8.4,1.8,12.8,3c-1.8,2.4-5,4.5-8.6,5.5
			C127.9,115.9,125.7,116.4,122.5,116.4z"/>
		<defs>
			
				<filter id="Adobe_OpacityMaskFilter_00000068675418796956753750000014851962199542713738_" filterUnits="userSpaceOnUse" x="119.5" y="103.4" width="12.8" height="12.8">
				<feColorMatrix  type="matrix" values="1 0 0 0 0  0 1 0 0 0  0 0 1 0 0  0 0 0 1 0"/>
			</filter>
		</defs>
		
			<mask maskUnits="userSpaceOnUse" x="119.5" y="103.4" width="12.8" height="12.8" id="mask1_3823_26711_00000091017035560040771300000006878069114852850055_">
			<path style="fill:#FFFFFF;filter:url(#Adobe_OpacityMaskFilter_00000068675418796956753750000014851962199542713738_);" d="
				M122.5,116.4c-4,0-7.2-0.9-8.7-1.2c3-4.7,4.3-8.9,12.4-8.5c3.2,0.2,8.4,1.8,12.8,3c-1.8,2.4-5,4.5-8.6,5.5
				C127.9,115.9,125.7,116.4,122.5,116.4z"/>
		</mask>
		<g class="st13">
			<path class="st9" d="M125.9,115.5c3.2,0,5.8-2.6,5.8-5.8c0-3.2-2.6-5.8-5.8-5.8c-3.2,0-5.8,2.6-5.8,5.8
				C120.1,113,122.7,115.5,125.9,115.5z"/>
			<path class="st10" d="M125.9,116.1c-3.5,0-6.4-2.9-6.4-6.4c0-3.5,2.9-6.4,6.4-6.4c3.5,0,6.4,2.9,6.4,6.4
				C132.3,113.3,129.4,116.1,125.9,116.1z M125.9,104.5c-2.9,0-5.2,2.3-5.2,5.2c0,2.9,2.3,5.2,5.2,5.2c2.9,0,5.2-2.3,5.2-5.2
				C131.1,106.9,128.8,104.5,125.9,104.5z"/>
			<path d="M125.9,111.9c1.2,0,2.2-1,2.2-2.2c0-1.2-1-2.2-2.2-2.2c-1.2,0-2.2,1-2.2,2.2C123.7,111,124.7,111.9,125.9,111.9z"/>
			<path class="st6" d="M124.9,111c0,0.7-0.5,1.2-1.2,1.2c-0.7,0-1.2-0.5-1.2-1.2c0-0.7,0.5-1.2,1.2-1.2
				C124.4,109.8,124.9,110.3,124.9,111z"/>
		</g>
		<path class="st14" d="M100.2,138.8c-3.4,0.1-6.5-0.5-9.3-1.5c3.5,2.7,5.4,5.5,9.3,5.5c3.9,0,7.2-4.3,9.3-5.5
			C106.9,137.8,103.8,138.7,100.2,138.8z"/>
		<path class="st6" d="M100,159.1c7.5,0,13.6-1.3,13.6-2.9c0-1.6-6.1-2.9-13.6-2.9c-7.5,0-13.6,1.3-13.6,2.9
			C86.4,157.8,92.5,159.1,100,159.1z"/>
		<path class="st15" d="M80,153.8c4.7,5.5,9.4,11.7,19.9,12.2c10.1,0.5,15.3-6.7,20.1-12.2c-8.8,4.6-13,4.9-19.8,4.8
			C91.8,158.5,90.1,156.4,80,153.8z"/>
		<path class="st16" d="M99.8,151.1c-1.6,0-3.2-0.6-5.8-0.6c-5.3,0.1-6.8,5.2-13.9,3.2c2.3,1.9,9.8,2.8,16.5,1.7
			c2.1-0.4,4.3-0.3,6.5,0.2c6.6,1.4,12.9,2.4,17.1-1.9c-6.3,2.1-8.6-1.8-14.7-3C103.6,150.4,100.8,151.1,99.8,151.1z"/>
		<path class="st17" d="M51.7,72.6C52.1,67.3,62.5,62,66.6,60c4.3-2.1,8.4-4.5,12.9-6.3c2.7-1.1,9.4-2.4,9.5-6.2
			c-4.2-1.7-9.1,0.1-13.3-0.5c1.2-1.7,4.2-2.8,6.3-3.5c-4.8-7.2-14.3,3.2-19.4,3.6c-2.6-7.5,16.4-11,19-16.1
			c-1.5-1.5-4.3-1.7-6.3-1.1c-3.4-1.1-10.7,5.7-13.7,7.8c-4.5,3.2-11,8.8-10.9,15c2.4,0.4,7.1-3.6,4.8,1.4c-1,2.2-4.6,4.1-6.2,6.1
			c-2.1,2.5-4.1,6.2-3.5,9.6C46.1,72.2,49.2,76.1,51.7,72.6z"/>
		<path class="st17" d="M112.9,45.9c6.4-0.6,13.9,5.7,19.4,8.5c6.6,3.4,10.3,10.4,16.1,14c-1.4-7.9-5.9-12-10.2-17.9
			c2.8-0.5,6.9,1.9,9.1,3.5c-0.5-7-4.2-8.6-8.1-13.7c2.9-0.6,5.4,2.4,8,3.1c0.8-6.1-15.8-12.4-20.3-13.3c0.2,3.8,6.5,4.1,7.3,7.6
			c-2.8,0.1-5.5-0.1-8.3-0.3c2.4,2,7,5.2,7.3,8.5c-4.9-2-14-4.5-19.3-3.9C110,42.5,110,44,112.9,45.9z"/>
		<path class="st4" d="M100.4,54c-0.4-1.2-0.9-2.5-1-3.8c-0.1-0.7,0-1.3,0-2l0.1-2c0-1.3,0.2-2.6,0-3.9c-0.1-1.3-0.7-2.5-1.5-3.6
			l0,0v0c0.1-0.8,0.3-1.6,0.5-2.4c0.2-0.8,0.5-1.6,0.8-2.4c0.6-1.6,0.9-3.2,0.9-4.9c0-1.7-0.1-3.3-0.4-4.9c-0.1-0.8-0.3-1.6-0.6-2.4
			c-0.1-0.4-0.3-0.8-0.5-1.2c-0.2-0.4-0.4-0.7-0.7-1c0.3,0.3,0.6,0.6,0.7,1c0.2,0.4,0.3,0.8,0.5,1.2c0.3,0.8,0.4,1.6,0.6,2.4
			c0.3,1.6,0.4,3.3,0.4,5c0,1.7-0.3,3.3-0.9,4.9c-0.3,0.8-0.6,1.6-0.8,2.4c-0.2,0.8-0.4,1.6-0.5,2.4l0-0.1c0.8,1.1,1.4,2.3,1.5,3.6
			c0.2,1.3,0,2.6,0,3.9l0,2c0,0.7,0,1.3,0,2c0.1,1.3,0.6,2.5,1.1,3.7L100.4,54z"/>
		<path class="st18" d="M85.3,143.6c-4.3,3.1-12.9,11-12.9,17.6"/>
		<path class="st18" d="M114.1,143.6c4.3,3.1,12.9,11,12.9,17.6"/>
		<path class="st19" d="M77.3,77.5c2.7-1.6,10.1-3.8,17.6,0c7.5,3.8,19.5,0.8,24.6-1.2c1.6-0.4,6.1-0.7,11.7,1.2"/>
		<path class="st19" d="M84.3,71.7c1.9-0.9,7-2.3,12.2,0c5.2,2.3,13.6,0.5,17.1-0.7c1.1-0.2,4.2-0.4,8.2,0.7"/>
		<path class="st20" d="M95.4,90.6c0.8,1.2,1.4,4.2-2.3,7"/>
		<path class="st20" d="M105.3,90.6c-0.8,1.2-1.4,4.2,2.3,7"/>
		<path class="st20" d="M101.2,89.5c-0.8,2-1.9,6.3,0,8.2"/>
		<path class="st21" d="M139.6,113.7c3-3,7.6-3,9.1-3"/>
		<path class="st21" d="M142.7,105.7c1.2,0,3.8-0.2,4.7-1.2"/>
		<path class="st21" d="M143.8,108.1c1.2,0,4.9,0.9,5.9,0"/>
		<path class="st21" d="M56.7,105.7c-1.2,0-3.8-0.2-4.7-1.2"/>
		<path class="st21" d="M55.6,108.1c-1.2,0-4.9,0.9-5.9,0"/>
	</g>
</g>
</svg>
