<?xml version="1.0" encoding="utf-8"?>
<!-- Generator: Adobe Illustrator 27.3.1, SVG Export Plug-In . SVG Version: 6.00 Build 0)  -->
<svg version="1.1" id="Camada_1" xmlns="http://www.w3.org/2000/svg" xmlns:xlink="http://www.w3.org/1999/xlink" x="0px" y="0px"
	 viewBox="0 0 200 200" style="enable-background:new 0 0 200 200;" xml:space="preserve">
<style type="text/css">
	.st0{fill:#D9A473;}
	.st1{fill:#4C2A0E;}
	.st2{fill:#572F0F;}
	.st3{fill:#E3BB94;}
	.st4{fill:#635434;}
	.st5{fill:#FFFFFF;}
	.st6{fill:#FFFFFF;filter:url(#Adobe_OpacityMaskFilter);}
	.st7{mask:url(#mask0_3823_26876_00000076584634670040024380000003524082016239066542_);}
	.st8{fill:#556611;}
	.st9{fill:#2D3609;}
	.st10{fill:#634E42;}
	.st11{fill:#C2A17F;}
	.st12{fill:#A8414A;}
	.st13{fill:#B54650;}
	.st14{fill:url(#SVGID_1_);}
	.st15{fill:url(#SVGID_00000016794116290477129300000017476716543033141132_);}
	.st16{fill:#663712;}
	.st17{fill:#E6BE93;}
	.st18{fill:#3B3024;}
	.st19{fill:#302C28;}
</style>
<g>
	<path class="st0" d="M119.6,161.4H91.7H63.8c0,0,9.6,14.8-5.3,35.8h33.2h33.2C110,176.2,119.6,161.4,119.6,161.4z"/>
	<path class="st1" d="M92.1,78.9c24.9,0,45.1-17,45.1-38c0-21-20.2-38-45.1-38c-24.9,0-45.1,17-45.1,38C47,61.9,67.2,78.9,92.1,78.9
		z"/>
	<path class="st2" d="M151.4,83c0,37.8-23.7,68.4-59.7,68.4S32,120.8,32,83s19-65.3,59.7-66.4C130.7,15.7,151.4,45.2,151.4,83z"/>
	<path class="st3" d="M41.5,104.5c0,0-4.3-7.7-6.2-1.4c-3.5,11.3,4.7,27.3,7.9,29.8C43.6,130.2,41.5,104.5,41.5,104.5z"/>
	<path class="st3" d="M141.3,104.5c0,0,4.2-7.7,6.2-1.4c3.5,11.3-4.7,27.3-7.9,29.8C139.3,130.2,141.3,104.5,141.3,104.5z"/>
	<path class="st3" d="M141.7,112.4c0,42.7-22,59.3-37.8,68.7c-7.6,4.5-17.1,4.5-24.7,0c-15.8-9.4-37.8-26-37.8-68.7
		c0-29.9,8-51,47.8-59.6c1.5-0.3,3-0.3,4.5,0.1C133.5,62.9,141.7,82.5,141.7,112.4z"/>
	<path class="st4" d="M77.7,115.1c0,0-1.1-5.4-3.2-8.5c-0.9-1.4-4.6-4.9-12.5-3.6c-7.9,1.3-10.4,6.2-10.4,6.2l23.5,5.9H77.7z"/>
	<path d="M69.1,116.3c3.9,0,7.1-0.9,8.6-1.2c-3-4.7-2.3-9.3-12-9.3c-4.3,0-12,3-16.9,2.7c1.8,2.3,8.9,5.7,12.4,6.7
		C63.8,115.8,65.9,116.3,69.1,116.3z"/>
	<path class="st5" d="M69.1,116.3c3.9,0,7.1-0.9,8.6-1.2c-3-4.7-4.3-8.9-12.3-8.4c-3.2,0.2-8.3,1.8-12.7,3c1.8,2.3,5,4.5,8.6,5.5
		C63.8,115.8,65.9,116.3,69.1,116.3z"/>
	<defs>
		<filter id="Adobe_OpacityMaskFilter" filterUnits="userSpaceOnUse" x="59.4" y="103.4" width="12.7" height="12.7">
			<feColorMatrix  type="matrix" values="1 0 0 0 0  0 1 0 0 0  0 0 1 0 0  0 0 0 1 0"/>
		</filter>
	</defs>
	
		<mask maskUnits="userSpaceOnUse" x="59.4" y="103.4" width="12.7" height="12.7" id="mask0_3823_26876_00000076584634670040024380000003524082016239066542_">
		<path class="st6" d="M69.1,116.3c3.9,0,7.1-0.9,8.6-1.2c-3-4.7-4.3-8.9-12.3-8.4c-3.2,0.2-8.3,1.8-12.7,3c1.8,2.3,5,4.5,8.6,5.5
			C63.8,115.8,65.9,116.3,69.1,116.3z"/>
	</mask>
	<g class="st7">
		<path class="st8" d="M65.7,115.5c3.2,0,5.8-2.6,5.8-5.8c0-3.2-2.6-5.8-5.8-5.8c-3.2,0-5.8,2.6-5.8,5.8
			C60,112.9,62.6,115.5,65.7,115.5z"/>
		<path class="st9" d="M59.4,109.7c0-3.5,2.8-6.4,6.3-6.4s6.3,2.8,6.3,6.4c0,3.5-2.8,6.4-6.3,6.4C62.3,116.1,59.4,113.2,59.4,109.7z
			 M60.6,109.7c0,2.9,2.3,5.2,5.2,5.2c2.8,0,5.2-2.3,5.2-5.2c0-2.9-2.3-5.2-5.2-5.2C62.9,104.5,60.6,106.9,60.6,109.7z"/>
		<path d="M65.7,111.9c1.2,0,2.2-1,2.2-2.2c0-1.2-1-2.2-2.2-2.2c-1.2,0-2.2,1-2.2,2.2C63.6,110.9,64.6,111.9,65.7,111.9z"/>
		<path class="st5" d="M67.9,112.1c0.7,0,1.2-0.5,1.2-1.2c0-0.7-0.5-1.2-1.2-1.2c-0.7,0-1.2,0.5-1.2,1.2
			C66.7,111.6,67.3,112.1,67.9,112.1z"/>
	</g>
	<path class="st10" d="M75.9,96.8c-7.4,2.7-12.6-2.6-21-0.2c-7.5,2.4-5.5,3-6.9,3.8c-1.6-2.4,4.1-8.9,20.7-8.4
		C75.8,92.4,83.3,94.5,75.9,96.8z"/>
	<path class="st10" d="M107.1,96.5c7.3,2.9,12.7-2.3,21,0.3c7.4,2.6,5.5,3.2,6.8,4c1.7-2.4-3.8-9-20.5-8.9
		C107.3,92.1,99.8,94,107.1,96.5z"/>
	<path class="st11" d="M91.7,138.6c-3.3,0.1-6.5-0.5-9.3-1.5c3.5,2.7,5.4,5.5,9.3,5.5c3.9,0,7.2-4.2,9.3-5.5
		C98.4,137.7,95.3,138.5,91.7,138.6z"/>
	<path class="st5" d="M91.6,158.9c7.4,0,13.5-1.3,13.5-2.9c0-1.6-6-2.9-13.5-2.9c-7.4,0-13.5,1.3-13.5,2.9
		C78.1,157.6,84.1,158.9,91.6,158.9z"/>
	<path class="st12" d="M72.5,151.5c4.7,5.5,8.6,13.7,19,14.3c10.1,0.5,14.3-8.7,19.1-14.3c-8.8,4.6-12.1,7-18.9,6.9
		C83.4,158.3,82.4,154.1,72.5,151.5z"/>
	<path class="st13" d="M91.3,150.9c-1.6,0-3.1-0.6-5.8-0.6c-5.3,0.1-6,3.1-13.1,1.1c2.3,1.9,9,4.9,15.6,3.8c2.1-0.4,4.3-0.3,6.4,0.2
		c6.6,1.4,12.4-0.1,16.6-4.4c-6.3,2.1-8.1,0.7-14.2-0.5C95.2,150.2,92.4,150.9,91.3,150.9z"/>
	
		<radialGradient id="SVGID_1_" cx="-30.8941" cy="363.7422" r="3.0356" gradientTransform="matrix(-4.8378 1.3085 0.7521 2.7805 -299.612 -836.927)" gradientUnits="userSpaceOnUse">
		<stop  offset="0" style="stop-color:#E6BDC6"/>
		<stop  offset="1" style="stop-color:#E3BB94"/>
	</radialGradient>
	<path class="st14" d="M106,137.7c1.1,5.5,9.9,8.4,19.5,6.4c9.6-2,16.5-8.1,15.3-13.6c-1.1-5.5-9.9-8.4-19.5-6.4
		C111.7,126,104.8,132.1,106,137.7z"/>
	
		<radialGradient id="SVGID_00000057114922787839622450000007067226867373115784_" cx="67.5915" cy="84.7001" r="3.0367" gradientTransform="matrix(4.8378 1.3085 0.7521 -2.7805 -329.9112 280.7)" gradientUnits="userSpaceOnUse">
		<stop  offset="0" style="stop-color:#E6BDC6"/>
		<stop  offset="1" style="stop-color:#E3BB94"/>
	</radialGradient>
	<path style="fill:url(#SVGID_00000057114922787839622450000007067226867373115784_);" d="M78.2,137.3c-1.1,5.5-9.9,8.4-19.5,6.4
		c-9.6-2-16.5-8.1-15.3-13.6c1.1-5.5,9.9-8.4,19.5-6.4C72.5,125.6,79.3,131.7,78.2,137.3z"/>
	<path class="st16" d="M43.6,72.7c0.4-5.3,10.7-10.6,14.8-12.6c4.3-2.1,8.3-4.5,12.8-6.3c2.7-1.1,9.4-2.4,9.4-6.2
		c-4.1-1.7-9,0.1-13.3-0.5c1.2-1.7,4.2-2.8,6.3-3.5c-4.7-7.2-14.2,3.2-19.2,3.5c-2.6-7.5,16.3-10.9,18.9-16
		c-1.5-1.5-4.2-1.7-6.3-1.1c-3.4-1.1-10.7,5.7-13.6,7.8c-4.4,3.2-10.9,8.8-10.8,15c2.4,0.4,7-3.6,4.8,1.4c-1,2.2-4.6,4.1-6.2,6
		c-2.1,2.5-4.1,6.2-3.5,9.6C38.1,72.3,41.1,76.1,43.6,72.7z"/>
	<path class="st16" d="M104.3,46.1c6.4-0.6,13.8,5.7,19.2,8.5c6.5,3.4,10.2,10.4,16,14c-1.4-7.8-5.9-12-10.1-17.8
		c2.8-0.5,6.8,1.9,9,3.4c-0.5-6.9-4.2-8.6-8-13.6c2.9-0.6,5.4,2.4,8,3.1c0.8-6.1-15.7-12.3-20.1-13.3c0.2,3.8,6.5,4,7.2,7.6
		c-2.8,0.1-5.5-0.1-8.2-0.3c2.4,1.9,6.9,5.2,7.2,8.4c-4.9-2-13.9-4.5-19.2-3.9C101.5,42.7,101.4,44.2,104.3,46.1z"/>
	<path class="st3" d="M92,54.2c-0.4-1.2-0.9-2.5-1-3.8c-0.1-0.7,0-1.3,0-2l0.1-2c0-1.3,0.2-2.6,0-3.9c-0.1-1.3-0.7-2.5-1.4-3.6l0,0
		v0c0.1-0.8,0.3-1.6,0.5-2.4c0.2-0.8,0.5-1.6,0.8-2.4c0.6-1.5,0.9-3.2,0.9-4.8c0-1.7-0.1-3.3-0.4-4.9c-0.1-0.8-0.3-1.6-0.6-2.4
		c-0.1-0.4-0.3-0.8-0.5-1.1c-0.2-0.4-0.4-0.7-0.7-1c0.3,0.3,0.5,0.6,0.7,1c0.2,0.4,0.3,0.8,0.5,1.1c0.3,0.8,0.4,1.6,0.6,2.4
		c0.3,1.6,0.4,3.3,0.4,4.9c0,1.7-0.3,3.3-0.9,4.9c-0.3,0.8-0.5,1.6-0.8,2.4c-0.2,0.8-0.4,1.6-0.5,2.4l0-0.1c0.8,1.1,1.4,2.3,1.5,3.6
		c0.2,1.3,0,2.6,0,3.9l0,2c0,0.7,0,1.3,0,1.9c0.1,1.3,0.6,2.5,1.1,3.7L92,54.2z"/>
	<path class="st4" d="M132.7,110c0,0-5.7-8.2-14.2-6.9c-6.3,1-10.6,5.1-12.9,12.3C114.5,108.3,132.7,110,132.7,110z"/>
	<path class="st17" d="M118.8,115.5c8.5,0.7,12.3-2.4,13.2-4.3c0,0-7.6-2.2-14.6-0.9c-7,1.4-11.8,5.1-11.8,5.1
		S114.3,115.2,118.8,115.5z"/>
	<path class="st18" d="M105.6,115.5c0,0,7.9-3.5,13.5-3.7c5.6-0.2,10.4,0.8,14.4,0.1c1.7-0.8,3-3.2,3-3.2s-2.3,1.3-4.8,1.3
		s-6-1.7-13.3-0.9C110.3,110.1,105.6,115.5,105.6,115.5z"/>
	<path class="st19" d="M167.3,31.1c-5.3-1.1-7.7-5.5-7.2-10.7c0.6-0.2,0.2-1-0.3-1c0.6-0.2,0.3-0.8,0-1.1c-1.7-1.8-0.8,2.8-1.1,3.7
		c-2.2-1.8-1,3.1-1.3,3.9c-2.2-0.7-2.2,4.9-7,3.2c-2.7,2.7,7.8,0.1,6.6,8.2c0.2,0.3,0.7,0.2,0.8-0.2c0.6,1.2-0.1,3.8,1.1,4.3
		c-0.7,4.8,1.8,4.3,1-0.2c0.4-4.2,1.8-9.5,6.7-9.3C167.7,32.6,168.7,30.9,167.3,31.1z M158.2,35.2C158.1,35.2,158.1,35.2,158.2,35.2
		c-0.1-0.2-0.1-0.3,0-0.4c0.1,0.2,0.1,0.4,0.1,0.6C158.2,35.4,158.2,35.3,158.2,35.2z M164.4,31.3c-3,1.1-3.9,3.2-4.6,6.1
		c-0.5-0.7-0.7-5.5-2.2-4.2c-0.9-1.6-2.7-2.3-4.2-3.1c2.7-1.2,5.2-2.8,6-5.9c0.1,3.5,2.5,5.9,5.6,7
		C164.7,31.2,164.5,31.2,164.4,31.3z"/>
</g>
</svg>
