<?xml version="1.0" encoding="utf-8"?>
<!-- Generator: Adobe Illustrator 27.3.1, SVG Export Plug-In . SVG Version: 6.00 Build 0)  -->
<svg version="1.1" id="Camada_1" xmlns="http://www.w3.org/2000/svg" xmlns:xlink="http://www.w3.org/1999/xlink" x="0px" y="0px"
	 viewBox="0 0 200 200" style="enable-background:new 0 0 200 200;" xml:space="preserve">
<style type="text/css">
	.st0{clip-path:url(#SVGID_00000146488765330257816270000015502156042808230035_);}
	.st1{fill:#FFFFFF;filter:url(#Adobe_OpacityMaskFilter);}
	.st2{mask:url(#mask0_3823_26917_00000110440300320422709080000008189126915434349237_);}
	.st3{fill:#F7CFA5;}
	.st4{fill:#E3B788;}
	.st5{fill:#332117;}
	.st6{fill:#E3BB94;}
	.st7{fill:#572F0F;}
	.st8{fill:#D9A975;}
	.st9{fill:url(#SVGID_00000115501042478216253150000001386143091212781226_);}
	.st10{fill:url(#SVGID_00000003074616900212234210000006792406778444774297_);}
	.st11{fill:#DFEAF0;}
	.st12{fill:#BECED4;}
	.st13{fill:#EDFAFF;}
	.st14{fill:#F5CB9F;}
	.st15{fill:#634E42;}
	.st16{fill:#635434;}
	.st17{fill:#E6BE93;}
	.st18{fill:#3B3024;}
	.st19{fill:#A8414A;}
	.st20{fill:#B54650;}
	.st21{fill:#81B7E3;}
	.st22{fill:#D9B490;}
	.st23{fill:#F2EEE9;}
	.st24{fill:#AAD0F0;}
</style>
<g>
	<defs>
		<rect id="SVGID_1_" x="2.4" y="2.4" width="195.2" height="195.2"/>
	</defs>
	<clipPath id="SVGID_00000029025656932155777300000012815333074733763742_">
		<use xlink:href="#SVGID_1_"  style="overflow:visible;"/>
	</clipPath>
	<g style="clip-path:url(#SVGID_00000029025656932155777300000012815333074733763742_);">
		<defs>
			<filter id="Adobe_OpacityMaskFilter" filterUnits="userSpaceOnUse" x="-9.9" y="8.4" width="222.1" height="514.2">
				<feColorMatrix  type="matrix" values="1 0 0 0 0  0 1 0 0 0  0 0 1 0 0  0 0 0 1 0"/>
			</filter>
		</defs>
		
			<mask maskUnits="userSpaceOnUse" x="-9.9" y="8.4" width="222.1" height="514.2" id="mask0_3823_26917_00000110440300320422709080000008189126915434349237_">
			<path class="st1" d="M212.8,2.4H-12.8v262.3h225.7V2.4z"/>
		</mask>
		<g class="st2">
			<path class="st3" d="M195.6,522.6c-7.3-46.1-32.6-85.1-32.6-120.6c0-33.9,8.5-90,18-117L164.7,212c0,0-2.4,0.2-26.3-5.3
				c-4-0.9-7.6-3.4-8.6-7.5c-3.6-14.4-4.9-33.6-4.9-33.6H100H75.1c0,0-1.3,19.2-4.9,33.6c-1,4.1-4.6,6.6-8.6,7.5
				c-23.9,5.5-26.3,5.6-26.3,5.6L19,284.9c9.5,27,18,83.1,18,117c0,35.6-25.4,74.6-32.6,120.6L195.6,522.6L195.6,522.6z"/>
			<path class="st4" d="M74.4,173.6c11.9,21.9,32.7,26.7,40.9,23.6c7.5-2.8,10.3-15.5,10.3-21.9L74.4,173.6z"/>
			<path class="st5" d="M49,112.1c-29.7,18.4,8.6,70.9,27,50.4C85.6,151.7,70.1,99.1,49,112.1z"/>
			<path class="st6" d="M100.9,40.8c-52.5,0-52.1,41.9-52.1,70.3c0,20.9,7.1,44.1,21.2,58.3c15.3,15.4,22.6,18.9,30.9,18.9
				c8.3-0.1,15.6-3.5,30.9-18.9c14.1-14.2,21.2-37.4,21.2-58.3C153,82.7,153.4,40.8,100.9,40.8z"/>
			<path class="st7" d="M161.3,68.3c0-27.4-20.3-59.9-60.3-59.9S41.1,42.7,41.1,69.7c0,31,3.8,65,12.9,72.7
				c-3.4-9.2-6.1-28.3-4.1-42.3C53.5,58.8,66.2,53.3,90.5,50c20.5,20.7,60.5,1,62.4,49.5c0.9,22.4-3.7,39.1-5.1,42.9
				C153,130.4,161.3,124.5,161.3,68.3z"/>
			<path class="st6" d="M153.4,133.5c2-2.6,3.5-5.6,4.7-8.6c1.3-3.1,2.3-6.3,2.9-9.6c0.6-3.3,1.2-9.1,0.7-12.4
				c-0.2-1.4-0.6-3.1-1.6-4.2c-1.1-1.2-2.5-0.4-3.5,0.4c-1,0.9-1.8,3.3-2.1,6.5c-0.2,1.7-0.9,7.2-1.8,9.3c-0.5,4.7-1.1,9.8-1.5,12.2
				c-0.9,4.8-1.5,8.6-1.5,8.6c0.4,0.4,1.8-0.3,2.2-0.6C152.4,134.7,152.9,134.1,153.4,133.5z"/>
			<path class="st6" d="M49.1,133.5c-2-2.6-3.5-5.6-4.7-8.6c-1.3-3.1-2.3-6.3-2.9-9.6c-0.6-3.3-1.2-9.1-0.7-12.4
				c0.2-1.4,0.6-3.1,1.6-4.2c1.1-1.2,2.5-0.4,3.5,0.4c1,0.9,1.8,3.3,2.1,6.5c0.2,1.7,0.9,7.2,1.8,9.3c0.5,4.7,1.1,9.8,1.5,12.2
				c0.9,4.8,1.5,8.6,1.5,8.6c-0.4,0.4-1.8-0.3-2.2-0.6C50,134.7,49.5,134.1,49.1,133.5z"/>
			<path class="st8" d="M100.9,144.6c-3.5,0.1-6.8-0.6-9.7-1.6c3.7,2.9,5.6,5.8,9.7,5.8c4.1,0,7.5-4.5,9.7-5.8
				C107.9,143.6,104.7,144.5,100.9,144.6z"/>
			
				<radialGradient id="SVGID_00000112595160305435584090000008164625395221562499_" cx="-28.9094" cy="323.8514" r="3.0499" gradientTransform="matrix(-6.2942 1.338 0.7822 3.6795 -305.2023 -1017.1234)" gradientUnits="userSpaceOnUse">
				<stop  offset="0" style="stop-color:#E7C1CB"/>
				<stop  offset="1" style="stop-color:#E3BB94"/>
			</radialGradient>
			<path style="fill:url(#SVGID_00000112595160305435584090000008164625395221562499_);" d="M110.9,139.9c1.3,6.2,10.9,9.4,21.5,7.2
				c10.6-2.3,18.2-9.1,16.9-15.3c-1.3-6.2-10.9-9.4-21.5-7.2C117.2,126.8,109.6,133.7,110.9,139.9z"/>
			
				<radialGradient id="SVGID_00000095303589120798304170000017953991716596155057_" cx="51.5793" cy="107.4161" r="3.0499" gradientTransform="matrix(6.2942 1.3379 0.7821 -3.6795 -336.9029 462.0461)" gradientUnits="userSpaceOnUse">
				<stop  offset="0" style="stop-color:#E7C1CB"/>
				<stop  offset="1" style="stop-color:#E3BB94"/>
			</radialGradient>
			<path style="fill:url(#SVGID_00000095303589120798304170000017953991716596155057_);" d="M91,139.9c-1.3,6.2-10.9,9.4-21.5,7.2
				c-10.6-2.3-18.2-9.1-16.9-15.3c1.3-6.2,10.9-9.4,21.5-7.2C84.7,126.8,92.2,133.7,91,139.9z"/>
			<path class="st11" d="M101.3,17.4c-58.1,0-61.1,55.9-59.4,81.9c1.7-2.7,4.3-0.3,5,1.6c-0.8-6.6,0.8-20.6,4.6-31
				c10.9-30.3,49.6-28.3,49.6-28.3s38.5-1.8,49.7,28.3c3.9,10.4,5.7,23.7,4.9,30.3c1.5-2,3.7-3.5,5.1-0.3
				C162.7,74,159.3,17.4,101.3,17.4z"/>
			<path class="st12" d="M150.9,66.4c-13.5-29.1-50.4-26.7-50.4-26.7s-38-2.4-49.8,27.6c-5.3,13.3-4.7,32.5-3.7,33.6
				c-0.8-6.6,0.8-20.6,4.6-31c10.9-30.3,49.6-28.3,49.6-28.3s38.5-1.8,49.7,28.3c3.9,10.4,5.7,23.7,4.9,30.3
				C156.7,99.1,156.7,78.8,150.9,66.4z"/>
			<path class="st13" d="M57.3,39.7c0,0,16.3-24.9,54.7-18.1c37.5,6.6,36.7,29.2,26.4,18.7c-4.6-0.6,4.5,8.8,1.5,8.7
				c-10-7.8-35.9-19.7-65.3-8.2c-17.3,6.8-0.8-3.9-3.1-5C66,33.3,57.3,42.4,57.3,39.7z"/>
			<path class="st14" d="M84.8,50.9c2.3-0.3,4.9-1.5,5.3-2.9c0.2-1,0.4-4.2,0.4-4.2s0,7,3.8,9.6L84.8,50.9z"/>
			<path class="st15" d="M113,100.1c1.5,0.7,3.3-0.2,4.8-0.7c2.6-0.9,5.2-1.8,7.9-2.3c5.1-1.1,9.1-1.9,16.2,1
				c0.4,0.1,0.7-0.2,0.4-0.6c-2.8-3.2-7.8-4-11.4-4.5c-4.8-0.7-18,2.1-19.3,2.9c-1,0.6-0.1,2.9,0.4,3.6
				C112.4,99.8,112.7,100,113,100.1z"/>
			<path class="st16" d="M142.5,113c0,0-5.7-8.2-14.3-6.9c-6.3,1-10.6,5.1-12.9,12.4C124.3,111.2,142.5,113,142.5,113z"/>
			<path class="st17" d="M128.6,118.5c8.5,0.7,12.4-2.4,13.2-4.3c0,0-7.6-2.2-14.6-0.9c-7,1.4-11.8,5.1-11.8,5.1
				S124.1,118.2,128.6,118.5z"/>
			<path class="st18" d="M115.3,118.5c0,0,8-3.6,13.6-3.8c5.6-0.2,10.4,0.8,14.5,0.1c1.7-0.8,3-3.2,3-3.2s-2.3,1.3-4.8,1.3
				c-2.5,0-6-1.8-13.3-0.9C120,113,115.3,118.5,115.3,118.5z"/>
			<path class="st15" d="M89.4,100.1c-1.5,0.7-3.3-0.2-4.8-0.7c-2.6-0.9-5.2-1.8-7.9-2.3c-5.1-1.1-9.1-1.9-16.2,1
				c-0.4,0.1-0.7-0.2-0.4-0.6c2.8-3.2,7.8-4,11.4-4.5c4.8-0.7,18,2.1,19.3,2.9c1,0.6,0.1,2.9-0.4,3.6C90.1,99.8,89.8,100,89.4,100.1
				z"/>
			<path class="st16" d="M59.9,113c0,0,5.7-8.2,14.3-6.9c6.3,1,10.6,5.1,12.9,12.4C78.2,111.2,59.9,113,59.9,113z"/>
			<path class="st17" d="M73.9,118.5c-8.5,0.7-12.4-2.4-13.2-4.3c0,0,7.6-2.2,14.6-0.9c7,1.4,11.8,5.1,11.8,5.1
				S78.4,118.2,73.9,118.5z"/>
			<path class="st18" d="M87.1,118.5c0,0-8-3.6-13.6-3.8c-5.6-0.2-10.4,0.8-14.5,0.1c-1.7-0.8-3-3.2-3-3.2s2.3,1.3,4.8,1.3
				c2.5,0,6-1.8,13.3-0.9C82.5,113,87.1,118.5,87.1,118.5z"/>
			<path class="st19" d="M81.8,157c6.8,6.9,13.6,9.2,19.7,9.4c6.1-0.2,12.1-2.4,18.6-9.8c-8.2,2.2-10.8,3.9-18.6,3.9
				C93.7,160.6,89,159.1,81.8,157z"/>
			<path class="st20" d="M101.4,156.5c-7,0-16,1.5-19.8-0.3c-0.2-0.1,0.1,0.8,0.3,1c3.5,2.1,13,3.5,19.4,3.4
				c6.3,0.1,15-1.3,18.3-3.4c0.2-0.1,0.5-0.5,0.6-0.9C115.1,157.9,108.4,156.5,101.4,156.5z"/>
			<path class="st21" d="M138.9,148.2c-1-2.4-4.7-9.9-5.9-8.5c-2.2,2.5,1.4,9.6,0.8,11.5c-0.6,1.9-2.9-1.1-4.4,1.5
				c-1.5,2.6,1.4,6.6-1.5,8.3c-2.9,1.7-7.2,2.9-9.3,5.8c-2.1,2.9-3.3,7.9-5.3,10.4c-2,2.5-4.1,7.1-2.5,9.5c1.6,2.3,5.2-5.3,5.9-9
				c0.7-3.7,17.2-15.7,17.2-15.7L138.9,148.2z"/>
			<path class="st22" d="M134.6,191.7c15.2,44.6,83.1,118.1,77.3,145.5c-3.5,16.8-12.4,33.9-18.1,36.4c-4.5,2-22.4-9.6-28.5-23.7
				C153.8,323.7,117.1,205,117.1,205L134.6,191.7z"/>
			<path class="st22" d="M156.3,146.8l-9.4,7l5.2,17.6c0,0,3.3-10.3,10.1-18.7c2.4-3.9,3.8-6.6,5.5-18.9c1.7-12.2,0-16.8,0-16.8
				s-6.4-0.6-7.3,15.5C160.5,132.5,157.3,141.3,156.3,146.8z"/>
			<path class="st22" d="M119.7,172.2c5.6-6.5,14.8-12.5,14.8-12.5l17.2,12.5c-4.9,6.2-16.7,18.8-21.9,24.9c-4.4,5.2-12.8,8-12.8,8
				C115,198,110.2,183.3,119.7,172.2z"/>
			<path class="st23" d="M159.8,134.3c0.7,5,1.5,10.7,1.6,12.3c0.1,1.5-2.6,8.2-4.9,14.2C156.6,160.7,158.8,137.1,159.8,134.3z"/>
			<path class="st22" d="M151.3,112.4l6,13.3c0,0,3.2,17.6,3.4,20.5c0.2,2.9-7.2,23.5-9,25.9c-4.8-1-16.7-1.5-16.7-1.5l13.8-22.3
				l1.5-18.6C150.3,129.8,143.4,116.1,151.3,112.4z"/>
			<path class="st23" d="M150.3,129.8l2.7,5.2l1,16.8c0,0,0.1,12.2-1.7,17.8C151.9,170.6,150.3,129.8,150.3,129.8z"/>
			<path class="st22" d="M145.1,120.5l6.5,14.5l1.7,16.7c0,0,1.5,17.4-1.5,20.5c-2.2-0.2-21.1,0.1-21.1,0.1l12.1-21.9l1.3-12.5
				C144.1,137.9,136.1,127.4,145.1,120.5z"/>
			<path class="st23" d="M131.4,170.9l11.3-20.5l0.8-7.2l1.6,5.5l-0.1,12.4c0,0-5.5,6.5-9,11.1c-1.1,0-2,0-2.9,0L131.4,170.9z"/>
			<path class="st22" d="M138.6,132.3l5.8,16.4l0.6,12.4c0,0-6.4,8.4-9.4,13.1l-9.5-6.7l8.4-7.8c0,0,2.5-7.4,3.2-10.2
				C135.7,144.5,132.6,136.5,138.6,132.3z"/>
			<path class="st24" d="M133.1,165.9c9.8-4.4,15.7,1.4,12.6,4.5C142.8,173.4,136.9,164.7,133.1,165.9z"/>
			<path class="st21" d="M163.3,116.7c8.9-11.3,19.4-8.2,17.6-2.6C179.3,119.4,167,112.8,163.3,116.7z"/>
			<path class="st21" d="M144.7,145.1c8.9-11.3,19.4-8.2,17.6-2.6C160.7,147.8,148.5,141.2,144.7,145.1z"/>
			<path class="st21" d="M139,131.3c3-6.1-0.4-10-2.4-8.2C134.7,124.9,139.9,128.9,139,131.3z"/>
			<path class="st21" d="M137.1,131.6c-3-10.4-11.1-11.2-11.5-6.9C125.3,128.9,135.6,127.8,137.1,131.6z"/>
			<path class="st24" d="M134.2,163.2c3.1-6.4,8.4-6,8.2-3.2C142.1,162.8,135.6,160.9,134.2,163.2z"/>
			<path class="st21" d="M160.3,117.1c-1.2-7,3.6-12.7,6-9.8C168.9,110.3,160.8,113,160.3,117.1z"/>
			<path class="st21" d="M143.8,141.9c-1.2-7,3.6-12.7,6-9.8C152.3,135.1,144.3,137.8,143.8,141.9z"/>
			<path class="st21" d="M127.5,156.2c-0.5-9.6-7.3-11.9-8.5-8.3C117.9,151.4,126.9,152.6,127.5,156.2z"/>
			<path class="st21" d="M63.5,154.1c1-2.4,3.9-7.1,4.7-5.5c0.8,1.6-0.9,4.6-0.3,6.5c0.6,1.9,3.3,3,4.7,5.6c1.5,2.6,0,4.6,2.9,6.3
				c2.9,1.7,7.2-0.3,9.3,2.6c2.1,2.9,0.8,7.1,2.8,9.6c2,2.5,6.2,12.9,4.6,15.3c-1.6,2.3-3-1.7-3.7-5.4s-12.9-15.5-18-20
				C64.2,163.8,63.5,154.1,63.5,154.1z"/>
			<path class="st22" d="M67.8,196.7C52.6,241.3-15.3,314.8-9.5,342.2c3.5,16.8,12.4,34,18.1,36.4c4.5,2,22.4-9.6,28.5-23.7
				c11.5-26.2,48.2-144.9,48.2-144.9L67.8,196.7z"/>
			<path class="st22" d="M46.1,151.8l9.4,7l-5.2,17.6c0,0-3.3-10.3-10.1-18.7c-2.4-3.9-3.8-6.6-5.5-18.9c-1.7-12.2,0-16.8,0-16.8
				s6.4-0.6,7.3,15.5C41.9,137.5,45.1,146.4,46.1,151.8z"/>
			<path class="st22" d="M82.6,177.2c-5.6-6.5-14.8-12.5-14.8-12.5l-17.2,12.5c4.9,6.2,16.7,18.8,21.9,24.9c4.4,5.2,12.8,8,12.8,8
				C87.4,203.1,92.2,188.3,82.6,177.2z"/>
			<path class="st23" d="M42.5,139.3c-0.7,5-1.5,10.7-1.6,12.3c-0.1,1.5,2.6,8.2,4.9,14.2C45.8,165.7,43.5,142.2,42.5,139.3z"/>
			<path class="st22" d="M51.1,117.5l-6,13.3c0,0-3.2,17.6-3.4,20.5c-0.2,2.9,7.2,23.5,9,25.9c4.8-1,16.7-1.5,16.7-1.5l-13.8-22.3
				L52,134.8C52,134.8,58.9,121.1,51.1,117.5z"/>
			<path class="st23" d="M52,134.8l-2.7,5.2l-1,16.8c0,0-0.1,12.2,1.7,17.8C50.5,175.7,52,134.8,52,134.8z"/>
			<path class="st22" d="M57.2,125.5L50.8,140l-1.7,16.7c0,0-1.5,17.4,1.5,20.5c2.2-0.2,21.1,0.1,21.1,0.1l-12.1-21.9l-1.3-12.5
				C58.3,142.9,66.3,132.5,57.2,125.5z"/>
			<path class="st23" d="M70.9,175.9l-11.3-20.5l-0.8-7.2l-1.6,5.5l0.1,12.4c0,0,5.5,6.5,9,11.1c1.1,0,2,0,2.9,0L70.9,175.9z"/>
			<path class="st22" d="M63.8,137.3l-5.8,16.4l-0.6,12.4c0,0,6.4,8.4,9.4,13.1l9.5-6.7l-8.4-7.8c0,0-2.5-7.4-3.2-10.2
				C66.7,149.5,69.8,141.6,63.8,137.3z"/>
			<path class="st21" d="M35.5,137.9c-6.2-7.9-13.5-5.7-12.3-1.8C24.4,139.7,32.9,135.1,35.5,137.9z"/>
			<path class="st21" d="M57.7,150.1c-8.9-11.3-19.4-8.2-17.6-2.6C41.7,152.8,53.9,146.2,57.7,150.1z"/>
			<path class="st21" d="M68.8,156c0.6-6.8,5.5-8.3,6.2-5.7C75.8,152.8,69.3,153.5,68.8,156z"/>
			<path class="st21" d="M69.8,147.8c1.1-10.8,9-13.1,10.1-8.8C81,143,70.6,143.8,69.8,147.8z"/>
			<path class="st21" d="M89.9,197.5c4,7.1,1.8,12.7-0.4,10.7C87.4,206.4,91.2,200.4,89.9,197.5z"/>
			<path class="st21" d="M37.6,138.1c0.8-4.9-2.5-8.9-4.2-6.8C31.6,133.4,37.3,135.3,37.6,138.1z"/>
			<path class="st21" d="M58.6,146.9c1.2-7-3.6-12.7-6-9.8C50,140.2,58.1,142.8,58.6,146.9z"/>
		</g>
	</g>
</g>
</svg>
