<?xml version="1.0" encoding="utf-8"?>
<!-- Generator: Adobe Illustrator 27.3.1, SVG Export Plug-In . SVG Version: 6.00 Build 0)  -->
<svg version="1.1" id="Camada_1" xmlns="http://www.w3.org/2000/svg" xmlns:xlink="http://www.w3.org/1999/xlink" x="0px" y="0px"
	 viewBox="0 0 200 200" style="enable-background:new 0 0 200 200;" xml:space="preserve">
<style type="text/css">
	.st0{clip-path:url(#SVGID_00000046325343991606321210000011187272553751659146_);}
	.st1{fill:#D9A473;}
	.st2{fill:#634A36;}
	.st3{fill:#6A523E;}
	.st4{fill:#E3BB94;}
	.st5{fill:#A07A55;}
	.st6{fill:#635434;}
	.st7{fill:#FFFFFF;}
	.st8{fill:#FFFFFF;filter:url(#Adobe_OpacityMaskFilter);}
	.st9{mask:url(#mask0_3823_26825_00000111181231905806092340000004752586564555531199_);}
	.st10{fill:#556611;}
	.st11{fill:#2D3609;}
	.st12{fill:#634E42;}
	.st13{fill:#FFFFFF;filter:url(#Adobe_OpacityMaskFilter_00000172432032256743352320000010402342684295281801_);}
	.st14{mask:url(#mask1_3823_26825_00000133523628752231470710000011705473240399093148_);}
	.st15{fill:#C2A17F;}
	.st16{fill:#A8414A;}
	.st17{fill:#B54650;}
	.st18{fill:#755D4A;}
	.st19{fill:none;stroke:#BD936A;stroke-width:0.6458;stroke-linecap:round;}
</style>
<g>
	<defs>
		<rect id="SVGID_1_" x="39.3" y="1.8" width="121.4" height="196.3"/>
	</defs>
	<clipPath id="SVGID_00000025416573075500534370000009467188382165052052_">
		<use xlink:href="#SVGID_1_"  style="overflow:visible;"/>
	</clipPath>
	<g style="clip-path:url(#SVGID_00000025416573075500534370000009467188382165052052_);">
		<path class="st1" d="M128.4,162H100H71.6c0,0,9.8,14.9-5.4,36.2H100h33.8C118.6,176.9,128.4,162,128.4,162z"/>
		<path class="st2" d="M100.4,78.7c25.3,0,45.9-17.2,45.9-38.4c0-21.2-20.5-38.4-45.9-38.4S54.5,19,54.5,40.3
			C54.5,61.5,75.1,78.7,100.4,78.7z"/>
		<path class="st3" d="M160.7,82.9c0,38.2-24.2,69.1-60.7,69.1s-60.7-30.9-60.7-69.1s19.4-66,60.7-67.1
			C139.6,14.8,160.7,44.7,160.7,82.9z"/>
		<path class="st4" d="M49,104.5c0,0-4.3-7.8-6.3-1.4c-3.5,11.4,4.8,27.6,8.1,30.1C51.1,130.5,49,104.5,49,104.5z"/>
		<path class="st4" d="M150.5,104.5c0,0,4.3-7.8,6.3-1.4c3.5,11.4-4.8,27.6-8.1,30.1C148.4,130.5,150.5,104.5,150.5,104.5z"/>
		<path class="st4" d="M150.8,112.5c0,43.1-20.6,66.7-38.5,69.4c-7.7,4.6-17.4,4.6-25.1,0c-20.2,0-38.5-26.3-38.5-69.4
			c0-30.2,8.2-51.5,48.6-60.2c1.5-0.3,3.1-0.3,4.6,0.1C142.5,62.6,150.8,82.3,150.8,112.5z"/>
		<path class="st5" d="M86,114.5c0,3.6-5.8,11.1-12.9,11.1c-7.1,0-12.9-7.6-12.9-11.1c0-7.6,5.8-6.5,12.9-6.5
			C80.2,108.1,84.3,111.3,86,114.5z"/>
		<path class="st5" d="M114.1,114.5c0,3.6,5.8,11.1,12.9,11.1c7.1,0,12.9-7.6,12.9-11.1c0-7-5.8-6.5-12.9-6.5
			C119.9,108.1,115.7,111.3,114.1,114.5z"/>
		<path class="st6" d="M85.8,115.3c0,0-1.1-5.5-3.3-8.6c-1-1.4-4.7-5-12.8-3.7c-8.1,1.3-10.6,6.3-10.6,6.3l23.9,5.9H85.8z"/>
		<path d="M77,116.5c4,0,7.2-0.9,8.7-1.2c-3-4.7-2.3-9.4-12.2-9.4c-4.4,0-12.2,3-17.2,2.7c1.8,2.4,9,5.7,12.7,6.8
			C71.6,116,73.8,116.5,77,116.5z"/>
		<path class="st7" d="M77,116.5c4,0,7.2-0.9,8.7-1.2c-3-4.7-4.4-9-12.5-8.5c-3.2,0.2-8.5,1.8-12.9,3c1.8,2.4,5.1,4.5,8.7,5.5
			C71.6,116,73.8,116.5,77,116.5z"/>
		<defs>
			<filter id="Adobe_OpacityMaskFilter" filterUnits="userSpaceOnUse" x="67.2" y="103.4" width="12.9" height="12.8">
				<feColorMatrix  type="matrix" values="1 0 0 0 0  0 1 0 0 0  0 0 1 0 0  0 0 0 1 0"/>
			</filter>
		</defs>
		
			<mask maskUnits="userSpaceOnUse" x="67.2" y="103.4" width="12.9" height="12.8" id="mask0_3823_26825_00000111181231905806092340000004752586564555531199_">
			<path class="st8" d="M77,116.5c4,0,7.2-0.9,8.7-1.2c-3-4.7-4.4-9-12.5-8.5c-3.2,0.2-8.5,1.8-12.9,3c1.8,2.4,5.1,4.5,8.7,5.5
				C71.6,116,73.8,116.5,77,116.5z"/>
		</mask>
		<g class="st9">
			<path class="st10" d="M73.6,115.6c3.2,0,5.9-2.6,5.9-5.8s-2.6-5.8-5.9-5.8c-3.2,0-5.9,2.6-5.9,5.8S70.4,115.6,73.6,115.6z"/>
			<path class="st11" d="M67.2,109.8c0-3.5,2.9-6.4,6.4-6.4c3.6,0,6.4,2.9,6.4,6.4c0,3.5-2.9,6.4-6.4,6.4
				C70.1,116.2,67.2,113.4,67.2,109.8z M68.3,109.8c0,2.9,2.4,5.2,5.3,5.2c2.9,0,5.3-2.4,5.3-5.2c0-2.9-2.4-5.2-5.3-5.2
				C70.7,104.6,68.3,106.9,68.3,109.8z"/>
			<path d="M73.6,112c1.2,0,2.2-1,2.2-2.2s-1-2.2-2.2-2.2s-2.2,1-2.2,2.2S72.4,112,73.6,112z"/>
			<path class="st7" d="M75.8,112.3c0.7,0,1.2-0.5,1.2-1.2c0-0.7-0.5-1.2-1.2-1.2c-0.7,0-1.2,0.5-1.2,1.2
				C74.6,111.7,75.2,112.3,75.8,112.3z"/>
		</g>
		<path class="st12" d="M84,96.7c-7.5,2.7-12.8-2.6-21.4-0.2c-7.6,2.4-5.6,3.1-7,3.8c-1.7-2.5,4.1-9,21-8.5
			C83.9,92.4,92.3,89.9,84,96.7z"/>
		<path class="st12" d="M115.6,96.4c7.4,2.9,12.9-2.3,21.4,0.3c7.5,2.6,5.6,3.2,6.9,4c1.7-2.4-3.9-9.1-20.8-9
			C115.8,92.1,106.2,88.7,115.6,96.4z"/>
		<path class="st6" d="M113.8,115.3c0,0,1.1-5.5,3.3-8.6c1-1.4,4.7-5,12.8-3.7c8.1,1.3,10.6,6.3,10.6,6.3l-23.9,5.9H113.8z"/>
		<path d="M122.6,116.5c-4,0-7.2-0.9-8.7-1.2c3-4.7,2.3-9.4,12.2-9.4c4.4,0,12.2,3,17.2,2.7c-1.8,2.4-9,5.7-12.7,6.8
			C128,116,125.8,116.5,122.6,116.5z"/>
		<path class="st7" d="M122.6,116.5c-4,0-7.2-0.9-8.7-1.2c3-4.7,4.4-9,12.5-8.5c3.2,0.2,8.5,1.8,12.9,3c-1.8,2.4-5.1,4.5-8.7,5.5
			C128,116,125.8,116.5,122.6,116.5z"/>
		<defs>
			
				<filter id="Adobe_OpacityMaskFilter_00000072983205849821059810000001150158980507884464_" filterUnits="userSpaceOnUse" x="119.6" y="103.4" width="12.9" height="12.8">
				<feColorMatrix  type="matrix" values="1 0 0 0 0  0 1 0 0 0  0 0 1 0 0  0 0 0 1 0"/>
			</filter>
		</defs>
		
			<mask maskUnits="userSpaceOnUse" x="119.6" y="103.4" width="12.9" height="12.8" id="mask1_3823_26825_00000133523628752231470710000011705473240399093148_">
			<path style="fill:#FFFFFF;filter:url(#Adobe_OpacityMaskFilter_00000072983205849821059810000001150158980507884464_);" d="
				M122.6,116.5c-4,0-7.2-0.9-8.7-1.2c3-4.7,4.4-9,12.5-8.5c3.2,0.2,8.5,1.8,12.9,3c-1.8,2.4-5.1,4.5-8.7,5.5
				C128,116,125.8,116.5,122.6,116.5z"/>
		</mask>
		<g class="st14">
			<path class="st10" d="M126,115.6c3.2,0,5.9-2.6,5.9-5.8s-2.6-5.8-5.9-5.8c-3.2,0-5.9,2.6-5.9,5.8S122.8,115.6,126,115.6z"/>
			<path class="st11" d="M126,116.2c-3.6,0-6.4-2.9-6.4-6.4c0-3.5,2.9-6.4,6.4-6.4s6.4,2.9,6.4,6.4
				C132.4,113.4,129.6,116.2,126,116.2z M126,104.6c-2.9,0-5.3,2.4-5.3,5.2c0,2.9,2.4,5.2,5.3,5.2s5.3-2.4,5.3-5.2
				C131.3,106.9,128.9,104.6,126,104.6z"/>
			<path d="M126,112c1.2,0,2.2-1,2.2-2.2s-1-2.2-2.2-2.2s-2.2,1-2.2,2.2S124.8,112,126,112z"/>
			<path class="st7" d="M125,111.1c0,0.7-0.5,1.2-1.2,1.2c-0.7,0-1.2-0.5-1.2-1.2c0-0.7,0.5-1.2,1.2-1.2
				C124.5,109.9,125,110.4,125,111.1z"/>
		</g>
		<path class="st15" d="M100,139c-3.4,0.1-6.6-0.5-9.4-1.5c3.6,2.8,5.5,5.5,9.4,5.5s7.3-4.3,9.4-5.5
			C106.8,138.1,103.7,138.9,100,139z"/>
		<path class="st7" d="M99.9,159.5c7.6,0,13.7-1.3,13.7-3s-6.1-3-13.7-3s-13.7,1.3-13.7,3S92.3,159.5,99.9,159.5z"/>
		<path class="st16" d="M79.7,154.1c4.7,5.5,9.5,11.8,20.1,12.3c10.2,0.5,15.4-6.7,20.3-12.3c-8.9,4.7-13.2,4.9-20,4.9
			C91.6,158.9,89.8,156.7,79.7,154.1z"/>
		<path class="st17" d="M99.6,151.4c-1.6,0-3.2-0.6-5.9-0.6c-5.4,0.1-6.8,5.3-14.1,3.2c2.3,1.9,9.9,2.8,16.6,1.7
			c2.2-0.4,4.4-0.3,6.5,0.2c6.7,1.4,13,2.4,17.3-1.9c-6.4,2.1-8.7-1.8-14.9-3.1C103.5,150.7,100.7,151.4,99.6,151.4z"/>
		<path class="st18" d="M51.1,72.4c0.4-5.3,10.9-10.7,15.1-12.7c4.4-2.1,8.5-4.6,13-6.4c2.7-1.1,9.5-2.4,9.6-6.2
			c-4.2-1.7-9.2,0.1-13.5-0.5c1.3-1.7,4.2-2.8,6.4-3.6c-4.8-7.3-14.4,3.2-19.6,3.6c-2.6-7.6,16.6-11,19.2-16.2
			c-1.5-1.5-4.3-1.7-6.4-1.1C71.4,28.1,64,35,61,37.1c-4.5,3.2-11.1,8.9-11,15.1c2.4,0.4,7.1-3.6,4.8,1.4c-1,2.3-4.6,4.1-6.3,6.1
			c-2.1,2.5-4.1,6.3-3.6,9.7C45.5,72,48.6,75.9,51.1,72.4z"/>
		<path class="st18" d="M112.9,45.5c6.5-0.6,14,5.7,19.5,8.6c6.6,3.4,10.4,10.5,16.3,14.1c-1.4-7.9-6-12.1-10.3-18
			c2.8-0.5,6.9,1.9,9.2,3.5c-0.5-7-4.3-8.7-8.1-13.8c3-0.6,5.5,2.4,8.1,3.1c0.8-6.2-15.9-12.5-20.5-13.4c0.2,3.8,6.6,4.1,7.3,7.7
			c-2.8,0.1-5.6-0.1-8.4-0.3c2.4,2,7,5.3,7.3,8.5c-5-2-14.2-4.6-19.5-3.9C109.9,42.1,109.9,43.7,112.9,45.5z"/>
		<path class="st4" d="M100.3,53.7c-0.5-1.2-0.9-2.5-1.1-3.8c-0.1-0.7,0-1.3,0-2l0.1-2c0-1.3,0.2-2.6,0-3.9
			c-0.1-1.3-0.7-2.5-1.5-3.6l0,0v0c0.1-0.8,0.3-1.7,0.5-2.5c0.2-0.8,0.5-1.6,0.8-2.4c0.6-1.6,0.9-3.2,0.9-4.9c0-1.7-0.1-3.3-0.4-5
			c-0.1-0.8-0.3-1.6-0.6-2.4c-0.1-0.4-0.3-0.8-0.5-1.2c-0.2-0.4-0.4-0.7-0.7-1c0.3,0.3,0.6,0.6,0.7,1c0.2,0.4,0.3,0.8,0.5,1.2
			c0.3,0.8,0.4,1.6,0.6,2.4c0.3,1.7,0.4,3.3,0.4,5c0,1.7-0.3,3.3-0.9,4.9c-0.3,0.8-0.6,1.6-0.8,2.4c-0.2,0.8-0.4,1.6-0.5,2.4l0-0.1
			c0.8,1.1,1.4,2.3,1.5,3.7c0.2,1.3,0,2.7,0,4l0,2c0,0.7,0,1.3,0,2c0.1,1.3,0.6,2.5,1.1,3.8L100.3,53.7z"/>
		<path class="st19" d="M84.1,131.6c-4.3,3.1-13,11.1-13,17.7"/>
		<path class="st19" d="M110.1,131.6c4.3,3.1,13,11.1,13,17.7"/>
	</g>
</g>
</svg>
