<?xml version="1.0" encoding="utf-8"?>
<!-- Generator: Adobe Illustrator 27.3.1, SVG Export Plug-In . SVG Version: 6.00 Build 0)  -->
<svg version="1.1" id="Camada_1" xmlns="http://www.w3.org/2000/svg" xmlns:xlink="http://www.w3.org/1999/xlink" x="0px" y="0px"
	 viewBox="0 0 200 200" style="enable-background:new 0 0 200 200;" xml:space="preserve">
<style type="text/css">
	.st0{clip-path:url(#SVGID_00000134968687037909330040000000731258949215454369_);}
	.st1{fill:#D9A473;}
	.st2{fill:#634A36;}
	.st3{fill:#6A523E;}
	.st4{fill:#E3BB94;}
	.st5{fill:#C49F7B;stroke:#7D5B3C;stroke-width:0.6421;}
	.st6{fill:url(#SVGID_00000085973153868781010590000008751209183574020030_);}
	.st7{fill:#635434;}
	.st8{fill:#FFFFFF;}
	.st9{fill:#FFFFFF;filter:url(#Adobe_OpacityMaskFilter);}
	.st10{mask:url(#mask0_3823_26772_00000129201346127826508780000006688168784841037748_);}
	.st11{fill:#556611;}
	.st12{fill:#2D3609;}
	.st13{fill:#634E42;}
	.st14{fill:#FFFFFF;filter:url(#Adobe_OpacityMaskFilter_00000088094187681932873540000008607412490893155480_);}
	.st15{mask:url(#mask1_3823_26772_00000158000027053143436540000015019109293074693280_);}
	.st16{fill:#C2A17F;}
	.st17{fill:#A8414A;}
	.st18{fill:#B54650;}
	.st19{fill:#755D4A;}
	.st20{fill:none;stroke:#7D5B3C;stroke-width:0.6421;stroke-linecap:round;}
	.st21{fill:none;stroke:#7D5B3C;stroke-width:0.9149;}
</style>
<g>
	<defs>
		<rect id="SVGID_1_" x="41" y="2.4" width="118" height="195.2"/>
	</defs>
	<clipPath id="SVGID_00000141441980393251469230000010423652748468208268_">
		<use xlink:href="#SVGID_1_"  style="overflow:visible;"/>
	</clipPath>
	<g style="clip-path:url(#SVGID_00000141441980393251469230000010423652748468208268_);">
		<path class="st1" d="M127.6,161.6H100H72.4c0,0,9.5,14.8-5.3,36H100h32.9C118.1,176.5,127.6,161.6,127.6,161.6z"/>
		<path class="st2" d="M100.4,78.8c24.6,0,44.6-17.1,44.6-38.2c0-21.1-20-38.2-44.6-38.2S55.8,19.5,55.8,40.6
			C55.8,61.7,75.8,78.8,100.4,78.8z"/>
		<path class="st3" d="M159,83c0,38-23.5,68.7-59,68.7c-35.5,0-59-30.8-59-68.7c0-38,18.8-65.6,59-66.7C138.5,15.3,159,45,159,83z"
			/>
		<path class="st4" d="M50.4,104.5c0,0-4.2-7.7-6.1-1.4c-3.4,11.3,4.6,27.4,7.9,29.9C52.5,130.3,50.4,104.5,50.4,104.5z"/>
		<path class="st4" d="M149.1,104.5c0,0,4.2-7.7,6.1-1.4c3.4,11.3-4.6,27.4-7.9,29.9C147,130.3,149.1,104.5,149.1,104.5z"/>
		<path class="st5" d="M111.8,183.6L111.8,183.6l-0.2,0c-7.3,4.4-16.4,4.4-23.6,0l-0.1,0h-0.1c-9.5,0-18.6-6.3-25.3-17.9
			c-6.7-11.6-11.1-28.5-11.1-49.5c0-14.7,1.9-27.2,8.7-37.1c6.7-9.9,18.2-17.1,37.4-21.4h0c1.4-0.3,2.9-0.3,4.2,0.1h0
			c19.3,4.9,30.9,12.2,37.7,21.9c6.8,9.7,8.8,21.8,8.8,36.5c0,21-4.3,37.9-11.1,49.5C130.3,177.3,121.3,183.6,111.8,183.6z"/>
		
			<linearGradient id="SVGID_00000119102685955404928820000008662314720966974613_" gradientUnits="userSpaceOnUse" x1="296.9686" y1="-278.4086" x2="296.7109" y2="-303.7931" gradientTransform="matrix(1 0 0 -1 -197.6378 -118.9449)">
			<stop  offset="0" style="stop-color:#E3BB94"/>
			<stop  offset="1" style="stop-color:#D3AD88"/>
		</linearGradient>
		<path style="fill:url(#SVGID_00000119102685955404928820000008662314720966974613_);" d="M149.4,112.5c0,42.9-17.8,69-37.4,69
			c-7.5,4.6-16.9,4.6-24.4,0c-19.6,0-37.4-26.1-37.4-69c0-30,7.9-51.2,47.2-59.8c1.5-0.3,3-0.3,4.5,0.1
			C141.3,62.8,149.4,82.4,149.4,112.5z"/>
		<path class="st7" d="M86.2,115.2c0,0-1.1-5.5-3.2-8.5c-0.9-1.4-4.6-5-12.4-3.6c-7.8,1.3-10.3,6.3-10.3,6.3l23.2,5.9H86.2z"/>
		<path d="M77.7,116.4c3.9,0,7-0.9,8.5-1.2c-2.9-4.7-2.3-9.4-11.8-9.4c-4.3,0-11.8,3-16.7,2.7c1.8,2.4,8.8,5.7,12.3,6.7
			C72.4,115.9,74.5,116.4,77.7,116.4z"/>
		<path class="st8" d="M77.7,116.4c3.9,0,7-0.9,8.5-1.2c-2.9-4.7-4.2-8.9-12.1-8.5c-3.1,0.2-8.2,1.8-12.5,3c1.8,2.4,4.9,4.5,8.5,5.5
			C72.4,115.9,74.5,116.4,77.7,116.4z"/>
		<defs>
			<filter id="Adobe_OpacityMaskFilter" filterUnits="userSpaceOnUse" x="68.1" y="103.4" width="12.5" height="12.8">
				<feColorMatrix  type="matrix" values="1 0 0 0 0  0 1 0 0 0  0 0 1 0 0  0 0 0 1 0"/>
			</filter>
		</defs>
		
			<mask maskUnits="userSpaceOnUse" x="68.1" y="103.4" width="12.5" height="12.8" id="mask0_3823_26772_00000129201346127826508780000006688168784841037748_">
			<path class="st9" d="M77.7,116.4c3.9,0,7-0.9,8.5-1.2c-2.9-4.7-4.2-8.9-12.1-8.5c-3.1,0.2-8.2,1.8-12.5,3
				c1.8,2.4,4.9,4.5,8.5,5.5C72.4,115.9,74.5,116.4,77.7,116.4z"/>
		</mask>
		<g class="st10">
			<path class="st11" d="M74.3,115.6c3.1,0,5.7-2.6,5.7-5.8s-2.5-5.8-5.7-5.8c-3.1,0-5.7,2.6-5.7,5.8S71.2,115.6,74.3,115.6z"/>
			<path class="st12" d="M68.1,109.8c0-3.5,2.8-6.4,6.3-6.4c3.5,0,6.3,2.9,6.3,6.4s-2.8,6.4-6.3,6.4
				C70.9,116.2,68.1,113.3,68.1,109.8z M69.2,109.8c0,2.9,2.3,5.2,5.1,5.2c2.8,0,5.1-2.3,5.1-5.2c0-2.9-2.3-5.2-5.1-5.2
				C71.5,104.6,69.2,106.9,69.2,109.8z"/>
			<path d="M74.3,111.9c1.2,0,2.1-1,2.1-2.2c0-1.2-1-2.2-2.1-2.2c-1.2,0-2.1,1-2.1,2.2C72.2,111,73.2,111.9,74.3,111.9z"/>
			<path class="st8" d="M76.5,112.2c0.6,0,1.2-0.5,1.2-1.2c0-0.7-0.5-1.2-1.2-1.2s-1.2,0.5-1.2,1.2
				C75.3,111.7,75.8,112.2,76.5,112.2z"/>
		</g>
		<path class="st13" d="M84.4,96.8c-7.3,2.7-12.5-2.6-20.8-0.2c-7.4,2.4-5.5,3.1-6.8,3.8c-1.6-2.5,4-9,20.5-8.5
			C84.3,92.4,92.5,90,84.4,96.8z"/>
		<path class="st13" d="M115.2,96.5c7.2,2.9,12.5-2.3,20.8,0.3c7.3,2.6,5.4,3.2,6.7,4c1.7-2.4-3.8-9.1-20.2-8.9
			C115.4,92.1,106,88.7,115.2,96.5z"/>
		<path class="st7" d="M113.5,115.2c0,0,1.1-5.5,3.2-8.5c0.9-1.4,4.6-5,12.4-3.6c7.8,1.3,10.3,6.3,10.3,6.3l-23.2,5.9H113.5z"/>
		<path d="M121.9,116.4c-3.9,0-7-0.9-8.5-1.2c2.9-4.7,2.3-9.4,11.8-9.4c4.3,0,11.8,3,16.7,2.7c-1.8,2.4-8.8,5.7-12.3,6.7
			C127.2,115.9,125.1,116.4,121.9,116.4z"/>
		<path class="st8" d="M121.9,116.4c-3.9,0-7-0.9-8.5-1.2c2.9-4.7,4.2-8.9,12.1-8.5c3.1,0.2,8.2,1.8,12.5,3
			c-1.8,2.4-4.9,4.5-8.5,5.5C127.2,115.9,125.1,116.4,121.9,116.4z"/>
		<defs>
			
				<filter id="Adobe_OpacityMaskFilter_00000040576215703882137870000000748473495790126991_" filterUnits="userSpaceOnUse" x="119" y="103.4" width="12.5" height="12.8">
				<feColorMatrix  type="matrix" values="1 0 0 0 0  0 1 0 0 0  0 0 1 0 0  0 0 0 1 0"/>
			</filter>
		</defs>
		
			<mask maskUnits="userSpaceOnUse" x="119" y="103.4" width="12.5" height="12.8" id="mask1_3823_26772_00000158000027053143436540000015019109293074693280_">
			<path style="fill:#FFFFFF;filter:url(#Adobe_OpacityMaskFilter_00000040576215703882137870000000748473495790126991_);" d="
				M121.9,116.4c-3.9,0-7-0.9-8.5-1.2c2.9-4.7,4.2-8.9,12.1-8.5c3.1,0.2,8.2,1.8,12.5,3c-1.8,2.4-4.9,4.5-8.5,5.5
				C127.2,115.9,125.1,116.4,121.9,116.4z"/>
		</mask>
		<g class="st15">
			<path class="st11" d="M125.3,115.6c3.1,0,5.7-2.6,5.7-5.8s-2.5-5.8-5.7-5.8c-3.1,0-5.7,2.6-5.7,5.8S122.1,115.6,125.3,115.6z"/>
			<path class="st12" d="M125.3,116.2c-3.5,0-6.3-2.9-6.3-6.4c0-3.5,2.8-6.4,6.3-6.4c3.5,0,6.3,2.9,6.3,6.4
				C131.5,113.3,128.7,116.2,125.3,116.2z M125.3,104.6c-2.8,0-5.1,2.3-5.1,5.2c0,2.9,2.3,5.2,5.1,5.2c2.8,0,5.1-2.3,5.1-5.2
				C130.4,106.9,128.1,104.6,125.3,104.6z"/>
			<path d="M125.3,111.9c1.2,0,2.1-1,2.1-2.2c0-1.2-1-2.2-2.1-2.2c-1.2,0-2.1,1-2.1,2.2C123.1,111,124.1,111.9,125.3,111.9z"/>
			<path class="st8" d="M124.3,111c0,0.7-0.5,1.2-1.2,1.2c-0.6,0-1.2-0.5-1.2-1.2c0-0.7,0.5-1.2,1.2-1.2
				C123.8,109.8,124.3,110.4,124.3,111z"/>
		</g>
		<path class="st16" d="M100,138.8c-3.3,0.1-6.4-0.5-9.2-1.5c3.5,2.7,5.3,5.5,9.2,5.5c3.9,0,7.1-4.3,9.2-5.5
			C106.6,137.9,103.6,138.7,100,138.8z"/>
		<path class="st8" d="M99.9,159.2c7.4,0,13.3-1.3,13.3-2.9s-6-2.9-13.3-2.9c-7.4,0-13.3,1.3-13.3,2.9S92.5,159.2,99.9,159.2z"/>
		<path class="st17" d="M80.3,153.8c4.6,5.5,9.2,11.7,19.6,12.2c9.9,0.5,15-6.7,19.7-12.2c-8.7,4.6-12.8,4.9-19.5,4.8
			C91.8,158.6,90.1,156.4,80.3,153.8z"/>
		<path class="st18" d="M99.6,151.1c-1.6,0-3.1-0.6-5.7-0.6c-5.2,0.1-6.6,5.2-13.7,3.2c2.3,1.9,9.6,2.8,16.2,1.7
			c2.1-0.4,4.2-0.3,6.3,0.2c6.5,1.4,12.7,2.4,16.8-1.9c-6.2,2.1-8.5-1.8-14.5-3C103.4,150.4,100.7,151.1,99.6,151.1z"/>
		<path class="st19" d="M52.4,72.6C52.8,67.3,63,62,67.1,59.9c4.2-2.1,8.2-4.5,12.6-6.3c2.6-1.1,9.3-2.4,9.3-6.2
			c-4.1-1.7-8.9,0.1-13.1-0.5c1.2-1.7,4.1-2.8,6.2-3.5c-4.7-7.2-14,3.2-19,3.6c-2.5-7.5,16.1-11,18.7-16.1c-1.4-1.5-4.2-1.7-6.2-1.1
			c-3.4-1.1-10.5,5.7-13.5,7.8c-4.4,3.2-10.8,8.8-10.7,15c2.3,0.4,6.9-3.6,4.7,1.4c-1,2.3-4.5,4.1-6.1,6.1c-2,2.5-4,6.2-3.5,9.6
			C47,72.2,50,76,52.4,72.6z"/>
		<path class="st19" d="M112.5,45.9c6.3-0.6,13.6,5.7,19,8.5c6.5,3.4,10.1,10.4,15.8,14c-1.4-7.9-5.8-12-10-17.9
			c2.7-0.5,6.7,1.9,8.9,3.5c-0.5-7-4.2-8.6-7.9-13.7c2.9-0.6,5.3,2.4,7.9,3.1c0.8-6.1-15.5-12.4-19.9-13.3c0.1,3.8,6.4,4.1,7.1,7.7
			c-2.7,0.1-5.4-0.1-8.2-0.3c2.3,2,6.8,5.2,7.1,8.5c-4.8-2-13.8-4.6-19-3.9C109.7,42.5,109.6,44,112.5,45.9z"/>
		<path class="st4" d="M100.3,54c-0.4-1.2-0.9-2.5-1-3.8c-0.1-0.7,0-1.3,0-2l0.1-2c0-1.3,0.2-2.6,0-3.9c-0.1-1.3-0.7-2.5-1.4-3.6
			l0,0v0c0.1-0.8,0.3-1.7,0.5-2.4c0.2-0.8,0.5-1.6,0.8-2.4c0.6-1.6,0.9-3.2,0.9-4.9c0-1.7-0.1-3.3-0.4-5c-0.1-0.8-0.3-1.6-0.6-2.4
			c-0.1-0.4-0.3-0.8-0.4-1.2c-0.2-0.4-0.4-0.7-0.7-1c0.3,0.3,0.5,0.6,0.7,1c0.2,0.4,0.3,0.8,0.5,1.2c0.3,0.8,0.4,1.6,0.6,2.4
			c0.3,1.6,0.4,3.3,0.4,5c0,1.7-0.3,3.3-0.9,4.9c-0.3,0.8-0.5,1.6-0.8,2.4c-0.2,0.8-0.4,1.6-0.5,2.4l0-0.1c0.8,1.1,1.4,2.3,1.5,3.6
			c0.1,1.3,0,2.6,0,3.9l0,2c0,0.7,0,1.3,0,2c0.1,1.3,0.6,2.5,1,3.7L100.3,54z"/>
		<path class="st20" d="M85.6,140.6c-4.3,3.1-12.9,11-12.9,17.6"/>
		<path class="st20" d="M114.4,140.6c4.3,3.1,12.9,11,12.9,17.6"/>
		<path class="st21" d="M79.3,186.4c1.6,0.5,5.5,1.6,8,1.6c3.7,2.7,13.8,6.4,24.1,0c2.1,0,6.7-0.3,8-1.6"/>
		<path class="st21" d="M84.2,191.2c1.3,0.3,4.4,1,6.4,1c3,1.7,11,4,19.3,0c1.7,0,5.4-0.2,6.4-1"/>
		<path class="st21" d="M83.3,176.2c1.3,0.3,4.4,1,6.4,1c3,1.7,11,4,19.3,0c1.7,0,5.4-0.2,6.4-1"/>
	</g>
</g>
</svg>
