<?xml version="1.0" encoding="utf-8"?>
<!-- Generator: Adobe Illustrator 27.3.1, SVG Export Plug-In . SVG Version: 6.00 Build 0)  -->
<svg version="1.1" id="Camada_1" xmlns="http://www.w3.org/2000/svg" xmlns:xlink="http://www.w3.org/1999/xlink" x="0px" y="0px"
	 viewBox="0 0 150 150" style="enable-background:new 0 0 150 150;" xml:space="preserve">
<style type="text/css">
	.st0{fill:#FFFFFF;}
</style>
<g id="right-arrow" transform="translate(0 -132)">
	<g id="Grupo_1" transform="translate(0 132)">
		<path id="Caminho_12" class="st0" d="M147.4,71.1L147.4,71.1l-30.2-30c-2.3-2.2-6-2.1-8.2,0.2c-2.2,2.2-2.1,5.8,0,8l20.3,20.2H7.1
			c-3.2,0-5.8,2.6-5.8,5.8c0,3.2,2.6,5.8,5.8,5.8c0,0,0,0,0,0h122.2l-20.3,20.2c-2.2,2.3-2.2,5.9,0.1,8.2c2.2,2.2,5.8,2.2,8,0
			l30.2-30l0,0C149.7,77.1,149.7,73.5,147.4,71.1C147.5,71.2,147.5,71.2,147.4,71.1z"/>
	</g>
</g>
</svg>
